<svg width="38" height="50" viewBox="0 0 38 50" fill="none" xmlns="http://www.w3.org/2000/svg">
<path d="M26.2582 37.751C25.454 37.5904 24.6899 37.3494 24.0063 36.9478C23.9259 37.1888 23.8857 37.3896 23.8857 37.6707V42.1687C23.8857 44.0562 22.3577 45.5823 20.4677 45.5823H7.84127C5.95132 45.5823 4.42328 44.0562 4.42328 42.1687V8.27309C4.42328 6.14458 6.15238 4.41767 8.2836 4.41767H20.1058C22.237 4.41767 23.9661 6.14458 23.9661 8.27309V8.71486C23.9661 9.87952 24.8106 10.8835 25.9767 11.004C27.3037 11.1245 28.3894 10.0803 28.3894 8.79518V6.06426C28.3492 2.69076 25.6148 0 22.2773 0H6.07196C2.69418 0 0 2.69076 0 6.06426V44.3775C0 47.4699 2.53333 50 5.62963 50H22.7196C25.8159 50 28.3492 47.4699 28.3492 44.3775V38.3534C27.6656 38.1526 26.982 37.9518 26.2582 37.751Z" fill="url(#paint0_linear)"/>
<path d="M14.1545 43.4939C15.909 43.4939 17.3312 42.0735 17.3312 40.3213C17.3312 38.569 15.909 37.1486 14.1545 37.1486C12.4 37.1486 10.9778 38.569 10.9778 40.3213C10.9778 42.0735 12.4 43.4939 14.1545 43.4939Z" fill="url(#paint1_linear)"/>
<path d="M25.4941 39.9197C18.6179 39.9197 12.9883 34.3374 12.9883 27.4298C12.9883 20.5221 18.5777 14.9398 25.4941 14.9398C32.4105 14.9398 37.9999 20.5221 37.9999 27.4298C37.9999 34.3374 32.4105 39.9197 25.4941 39.9197ZM25.4941 18.1125C20.347 18.1125 16.1248 22.2892 16.1248 27.4699C16.1248 32.6507 20.3068 36.8274 25.4941 36.8274C30.6814 36.8274 34.8634 32.6507 34.8634 27.4699C34.8634 22.2892 30.6814 18.1125 25.4941 18.1125Z" fill="white"/>
<path d="M29.0328 30.7229C28.7514 30.7229 28.5101 30.6024 28.309 30.4016C27.9069 30 27.9471 29.3574 28.309 28.996L29.9175 27.4297L28.309 25.8634C27.9069 25.4618 27.9069 24.8594 28.309 24.4578C28.7112 24.0562 29.3143 24.0562 29.7164 24.4578L32.0889 26.747C32.29 26.9478 32.4106 27.1887 32.4106 27.4699C32.4106 27.751 32.29 27.992 32.0889 28.1928L29.7164 30.4819C29.5556 30.6426 29.2741 30.7229 29.0328 30.7229Z" fill="white"/>
<path d="M21.9957 30.7229C21.7544 30.7229 21.4729 30.6426 21.3121 30.4418L18.9396 28.1526C18.7386 27.9518 18.6179 27.7109 18.6179 27.4297C18.6179 27.1486 18.7386 26.9077 18.9396 26.7068L21.3121 24.4177C21.7142 24.0161 22.3576 24.0562 22.7195 24.4177C23.1216 24.8193 23.0814 25.4619 22.7195 25.8233L21.111 27.3896L22.7195 28.9558C23.1216 29.3574 23.1216 29.9599 22.7195 30.3615C22.5184 30.6426 22.237 30.7229 21.9957 30.7229Z" fill="white"/>
<path d="M23.363 33.735C23.2423 33.735 23.1217 33.6948 23.0011 33.6547C22.4783 33.4539 22.2371 32.8515 22.4381 32.3695L26.6603 21.8073C26.8614 21.2852 27.4646 21.0442 27.9471 21.245C28.4297 21.4458 28.7111 22.0482 28.5101 22.5302L24.2879 33.0924C24.127 33.494 23.7651 33.735 23.363 33.735Z" fill="white"/>
<defs>
<linearGradient id="paint0_linear" x1="-1.73956" y1="10.2307" x2="36.5989" y2="46.198" gradientUnits="userSpaceOnUse">
<stop stop-color="white"/>
<stop offset="0.5811" stop-color="#F9FAFA" stop-opacity="0.4189"/>
<stop offset="1" stop-color="#F1F2F2" stop-opacity="0"/>
</linearGradient>
<linearGradient id="paint1_linear" x1="8.38381" y1="46.1721" x2="23.0464" y2="31.2855" gradientUnits="userSpaceOnUse">
<stop stop-color="white"/>
<stop offset="0.5811" stop-color="#F9FAFA" stop-opacity="0.4189"/>
<stop offset="1" stop-color="#F1F2F2" stop-opacity="0"/>
</linearGradient>
</defs>
</svg>
