<svg width="49" height="50" viewBox="0 0 49 50" fill="none" xmlns="http://www.w3.org/2000/svg">
<path d="M25.112 41.9019C25.112 43.8538 23.5082 45.4318 21.5245 45.4318H8.22997C6.24634 45.4318 4.64255 43.8538 4.64255 41.9019V11.171C4.64255 8.97003 6.45736 7.18432 8.69423 7.18432H10.4246C10.4246 5.64777 10.4246 4.15276 10.298 2.61621H6.41516C2.82773 2.61621 0 5.3986 0 8.84545V44.1445C0 47.3421 2.65891 49.9584 5.9087 49.9584H23.8458C27.0956 49.9584 29.7545 47.3421 29.7545 44.1445V34.5514C29.7545 33.3056 28.6994 32.2674 27.4332 32.2674C26.1671 32.2674 25.112 33.3056 25.112 34.5514V41.9019Z" fill="url(#paint0_linear)"/>
<path d="M14.8562 43.2309C16.6976 43.2309 18.1904 41.7621 18.1904 39.9502C18.1904 38.1383 16.6976 36.6694 14.8562 36.6694C13.0147 36.6694 11.522 38.1383 11.522 39.9502C11.522 41.7621 13.0147 43.2309 14.8562 43.2309Z" fill="url(#paint1_linear)"/>
<path d="M11.522 33.7625C11.0999 33.7625 10.7201 33.6379 10.3402 33.4302C9.62273 33.0149 9.20068 32.1844 9.20068 31.3538V25.8721C9.20068 25.789 9.20068 25.706 9.20068 25.6644V2.28405C9.20068 1.03821 10.2558 0 11.522 0H46.6787C47.9449 0 49 1.03821 49 2.28405V25.9136C49 27.1595 47.9449 28.1977 46.6787 28.1977H21.5667C21.0603 28.1977 20.5538 28.3638 20.1318 28.613L12.7881 33.3887C12.4083 33.6379 11.9862 33.7625 11.522 33.7625ZM13.8432 26.1213V27.201L18.1481 24.4186C18.95 23.8787 19.8785 23.6296 20.8493 23.6296H44.3574V4.56811H13.8432V25.9136C13.8432 25.9967 13.8432 26.0382 13.8432 26.1213Z" fill="white"/>
<path d="M41.2765 23.6296H20.1318V28.613L20.7649 28.1977H41.4032C41.4032 26.6612 41.361 25.1247 41.2765 23.6296Z" fill="url(#paint2_linear)"/>
<path d="M38.913 11.8769H19.3721C18.5702 11.8769 17.8949 11.2125 17.8949 10.4235C17.8949 9.63442 18.5702 8.96997 19.3721 8.96997H38.913C39.7149 8.96997 40.3902 9.63442 40.3902 10.4235C40.3902 11.2125 39.7149 11.8769 38.913 11.8769Z" fill="white"/>
<path d="M30.8518 18.314H19.3721C18.5702 18.314 17.8949 17.6495 17.8949 16.8605C17.8949 16.0714 18.5702 15.407 19.3721 15.407H30.8518C31.6537 15.407 32.329 16.0714 32.329 16.8605C32.329 17.6495 31.6537 18.314 30.8518 18.314Z" fill="white"/>
<defs>
<linearGradient id="paint0_linear" x1="0" y1="26.3006" x2="29.75" y2="26.3006" gradientUnits="userSpaceOnUse">
<stop stop-color="white"/>
<stop offset="0.5811" stop-color="#F9FAFA" stop-opacity="0.4189"/>
<stop offset="1" stop-color="#F1F2F2" stop-opacity="0"/>
</linearGradient>
<linearGradient id="paint1_linear" x1="8.79941" y1="46.0319" x2="23.9563" y2="30.4126" gradientUnits="userSpaceOnUse">
<stop stop-color="white"/>
<stop offset="0.1377" stop-color="#FBFBFB"/>
<stop offset="0.2692" stop-color="#F0F0F0"/>
<stop offset="0.3983" stop-color="#DCDCDC"/>
<stop offset="0.5259" stop-color="#C1C1C1"/>
<stop offset="0.6524" stop-color="#9E9E9E"/>
<stop offset="0.7781" stop-color="#747474"/>
<stop offset="0.9008" stop-color="#424242"/>
<stop offset="0.9888" stop-color="#1A1A1A"/>
</linearGradient>
<linearGradient id="paint2_linear" x1="46.7558" y1="25.9874" x2="11.0566" y2="26.1627" gradientUnits="userSpaceOnUse">
<stop offset="0.2218" stop-color="white"/>
<stop offset="0.4573" stop-color="#FDFDFD"/>
<stop offset="0.5656" stop-color="#F5F5F5"/>
<stop offset="0.6479" stop-color="#E9E9E9"/>
<stop offset="0.7171" stop-color="#D6D6D6"/>
<stop offset="0.778" stop-color="#BFBFBF"/>
<stop offset="0.8331" stop-color="#A2A2A2"/>
<stop offset="0.884" stop-color="#7F7F7F"/>
<stop offset="0.9313" stop-color="#565656"/>
<stop offset="0.9743" stop-color="#2A2A2A"/>
<stop offset="0.9888" stop-color="#1A1A1A"/>
</linearGradient>
</defs>
</svg>
