<svg width="39" height="51" viewBox="0 0 39 51" fill="none" xmlns="http://www.w3.org/2000/svg">
<g clip-path="url(#clip0)">
<path d="M26.7331 38.2788C25.9288 38.1182 25.1648 37.8772 24.4812 37.4756C24.4008 37.7166 24.3606 37.9174 24.3606 38.1985V42.6965C24.3606 44.5841 22.8325 46.1102 20.9426 46.1102H8.31612C6.42618 46.1102 4.89813 44.5841 4.89813 42.6965V8.80093C4.89813 6.67241 6.62723 4.9455 8.75845 4.9455H20.5807C22.7119 4.9455 24.441 6.67241 24.441 8.80093V9.24269C24.441 10.4074 25.2854 11.4114 26.4516 11.5318C27.7786 11.6523 28.8643 10.6082 28.8643 9.32301V6.59209C28.8241 3.2186 26.0897 0.527832 22.7521 0.527832H6.54681C3.16903 0.527832 0.474854 3.2186 0.474854 6.59209V44.9053C0.474854 47.9977 3.00819 50.5278 6.10448 50.5278H23.1944C26.2907 50.5278 28.8241 47.9977 28.8241 44.9053V38.8812C28.1405 38.6804 27.4569 38.4796 26.7331 38.2788Z" fill="url(#paint0_linear)"/>
<path d="M14.6294 44.0218C16.3838 44.0218 17.8061 42.6013 17.8061 40.8491C17.8061 39.0969 16.3838 37.6764 14.6294 37.6764C12.8749 37.6764 11.4526 39.0969 11.4526 40.8491C11.4526 42.6013 12.8749 44.0218 14.6294 44.0218Z" fill="url(#paint1_linear)"/>
<path d="M25.969 40.4476C19.0928 40.4476 13.4632 34.8652 13.4632 27.9576C13.4632 21.05 19.0526 15.4677 25.969 15.4677C32.8854 15.4677 38.4749 21.05 38.4749 27.9576C38.4749 34.8652 32.8854 40.4476 25.969 40.4476ZM25.969 18.6403C20.8219 18.6403 16.5997 22.817 16.5997 27.9978C16.5997 33.1785 20.7817 37.3552 25.969 37.3552C31.1563 37.3552 35.3383 33.1785 35.3383 27.9978C35.3383 22.817 31.1563 18.6403 25.969 18.6403Z" fill="white"/>
<path d="M29.5077 31.2508C29.2262 31.2508 28.9849 31.1304 28.7838 30.9295C28.3817 30.5279 28.4219 29.8854 28.7838 29.5239L30.3923 27.9577L28.7838 26.3914C28.3817 25.9898 28.3817 25.3874 28.7838 24.9858C29.186 24.5842 29.7891 24.5842 30.1913 24.9858L32.5637 27.2749C32.7648 27.4757 32.8854 27.7167 32.8854 27.9978C32.8854 28.2789 32.7648 28.5199 32.5637 28.7207L30.1913 31.0099C30.0304 31.1705 29.7489 31.2508 29.5077 31.2508Z" fill="white"/>
<path d="M22.4706 31.2507C22.2294 31.2507 21.9479 31.1704 21.787 30.9696L19.4145 28.6805C19.2135 28.4797 19.0928 28.2387 19.0928 27.9576C19.0928 27.6764 19.2135 27.4355 19.4145 27.2347L21.787 24.9455C22.1891 24.5439 22.8325 24.5841 23.1944 24.9455C23.5965 25.3471 23.5563 25.9897 23.1944 26.3511L21.586 27.9174L23.1944 29.4837C23.5965 29.8853 23.5965 30.4877 23.1944 30.8893C22.9934 31.1704 22.7119 31.2507 22.4706 31.2507Z" fill="white"/>
<path d="M23.8378 34.2627C23.7172 34.2627 23.5965 34.2225 23.4759 34.1824C22.9532 33.9816 22.7119 33.3792 22.913 32.8972L27.1352 22.335C27.3362 21.8129 27.9394 21.5719 28.4219 21.7727C28.9045 21.9735 29.186 22.576 28.9849 23.0579L24.7627 33.6201C24.6018 34.0217 24.2399 34.2627 23.8378 34.2627Z" fill="white"/>
</g>
<defs>
<linearGradient id="paint0_linear" x1="-1.2647" y1="10.7586" x2="37.0738" y2="46.7258" gradientUnits="userSpaceOnUse">
<stop stop-color="white"/>
<stop offset="0.3764" stop-color="#FDFDFD"/>
<stop offset="0.5119" stop-color="#F6F6F6"/>
<stop offset="0.6086" stop-color="#EAEAEA"/>
<stop offset="0.6868" stop-color="#DADADA"/>
<stop offset="0.7538" stop-color="#C4C4C4"/>
<stop offset="0.8131" stop-color="#A8A8A8"/>
<stop offset="0.8667" stop-color="#888888"/>
<stop offset="0.916" stop-color="#626262"/>
<stop offset="0.9599" stop-color="#393939"/>
<stop offset="0.9888" stop-color="#1A1A1A"/>
</linearGradient>
<linearGradient id="paint1_linear" x1="8.85866" y1="46.7" x2="23.5213" y2="31.8134" gradientUnits="userSpaceOnUse">
<stop stop-color="white"/>
<stop offset="0.1377" stop-color="#FBFBFB"/>
<stop offset="0.2692" stop-color="#F0F0F0"/>
<stop offset="0.3983" stop-color="#DCDCDC"/>
<stop offset="0.5259" stop-color="#C1C1C1"/>
<stop offset="0.6524" stop-color="#9E9E9E"/>
<stop offset="0.7781" stop-color="#747474"/>
<stop offset="0.9008" stop-color="#424242"/>
<stop offset="0.9888" stop-color="#1A1A1A"/>
</linearGradient>
<clipPath id="clip0">
<rect width="38" height="50" fill="white" transform="translate(0.474854 0.527832)"/>
</clipPath>
</defs>
</svg>
