<svg width="38" height="51" viewBox="0 0 38 51" fill="none" xmlns="http://www.w3.org/2000/svg">
<g clip-path="url(#clip0)">
<path d="M24.6127 10.5477C24.1138 10.5477 23.6149 10.3828 23.1575 10.0531C22.1597 9.26989 22.035 7.82719 22.8249 6.87912L27.0656 1.68539C27.8556 0.696106 29.3107 0.572446 30.267 1.35563C31.2648 2.13881 31.3895 3.58151 30.5996 4.52958L26.4004 9.68209C25.9431 10.2592 25.2779 10.5477 24.6127 10.5477Z" fill="url(#paint0_linear)"/>
<path d="M13.3873 10.548C12.7221 10.548 12.0569 10.2595 11.5996 9.7236L7.40044 4.57108C6.6105 3.5818 6.73523 2.18031 7.73304 1.39713C8.73085 0.61395 10.1444 0.73761 10.9344 1.72689L15.1335 6.87941C15.9234 7.86869 15.7987 9.27017 14.8009 10.0534C14.3851 10.3831 13.8862 10.548 13.3873 10.548Z" fill="url(#paint1_linear)"/>
<path d="M2.28665 37.6294C1.03939 37.6294 0 36.5989 0 35.3623V23.6558C0 22.4192 1.03939 21.3887 2.28665 21.3887C3.53392 21.3887 4.5733 22.4192 4.5733 23.6558V35.3623C4.5733 36.5989 3.53392 37.6294 2.28665 37.6294Z" fill="white"/>
<path d="M35.7133 37.6294C34.4661 37.6294 33.4267 36.5989 33.4267 35.3623V23.6558C33.4267 22.4192 34.4661 21.3887 35.7133 21.3887C36.9606 21.3887 38 22.4192 38 23.6558V35.3623C38 36.5989 37.0022 37.6294 35.7133 37.6294Z" fill="white"/>
<path d="M13.7615 50.8612C12.5142 50.8612 11.4748 49.8307 11.4748 48.5941V42.3286C11.4748 41.092 12.5142 40.0615 13.7615 40.0615C15.0088 40.0615 16.0481 41.092 16.0481 42.3286V48.5941C16.0481 49.8719 15.0088 50.8612 13.7615 50.8612Z" fill="url(#paint2_linear)"/>
<path d="M24.2801 50.8612C23.0328 50.8612 21.9934 49.8307 21.9934 48.5941V42.3286C21.9934 41.092 23.0328 40.0615 24.2801 40.0615C25.5274 40.0615 26.5667 41.092 26.5667 42.3286V48.5941C26.5667 49.8719 25.5274 50.8612 24.2801 50.8612Z" fill="url(#paint3_linear)"/>
<path d="M24.5711 43.2766H13.4289C9.22976 43.2766 5.82057 39.8965 5.82057 35.7333V23.6558C5.82057 22.4192 6.85996 21.3887 8.10722 21.3887H29.8512C31.0985 21.3887 32.1379 22.4192 32.1379 23.6558V35.7745C32.1794 39.9377 28.7702 43.2766 24.5711 43.2766ZM10.3939 25.9229V35.7745C10.3939 37.4233 11.7659 38.7836 13.4289 38.7836H24.5711C26.2341 38.7836 27.6061 37.4233 27.6061 35.7745V25.9229H10.3939Z" fill="white"/>
<path d="M29.8928 19.7811C28.6455 19.7811 27.6061 18.7506 27.6061 17.514C27.6061 12.8149 23.7396 8.98148 19 8.98148C14.2604 8.98148 10.3939 12.8149 10.3939 17.514C10.3939 18.7506 9.35449 19.7811 8.10722 19.7811C6.85996 19.7811 5.82057 18.7506 5.82057 17.514C5.82057 10.3005 11.7659 4.44727 19 4.44727C26.2757 4.44727 32.1794 10.3005 32.1794 17.514C32.1794 18.7506 31.14 19.7811 29.8928 19.7811Z" fill="white"/>
</g>
<defs>
<linearGradient id="paint0_linear" x1="30.0451" y1="1.33984" x2="23.6407" y2="9.91733" gradientUnits="userSpaceOnUse">
<stop stop-color="white"/>
<stop offset="0.1377" stop-color="#FBFBFB"/>
<stop offset="0.2692" stop-color="#F0F0F0"/>
<stop offset="0.3983" stop-color="#DCDCDC"/>
<stop offset="0.5259" stop-color="#C1C1C1"/>
<stop offset="0.6524" stop-color="#9E9E9E"/>
<stop offset="0.7781" stop-color="#747474"/>
<stop offset="0.9008" stop-color="#424242"/>
<stop offset="0.9888" stop-color="#1A1A1A"/>
</linearGradient>
<linearGradient id="paint1_linear" x1="8.57898" y1="1.61234" x2="13.5937" y2="9.33976" gradientUnits="userSpaceOnUse">
<stop stop-color="white"/>
<stop offset="0.1393" stop-color="#FBFBFB"/>
<stop offset="0.2722" stop-color="#F0F0F0"/>
<stop offset="0.4028" stop-color="#DCDCDC"/>
<stop offset="0.5318" stop-color="#C1C1C1"/>
<stop offset="0.6598" stop-color="#9E9E9E"/>
<stop offset="0.7869" stop-color="#747474"/>
<stop offset="0.911" stop-color="#424242"/>
<stop offset="1" stop-color="#1A1A1A"/>
</linearGradient>
<linearGradient id="paint2_linear" x1="13.8026" y1="50.766" x2="13.73" y2="43.2242" gradientUnits="userSpaceOnUse">
<stop stop-color="white"/>
<stop offset="1" stop-color="#1A1A1A"/>
</linearGradient>
<linearGradient id="paint3_linear" x1="24.2087" y1="50.5534" x2="24.2812" y2="43.2395" gradientUnits="userSpaceOnUse">
<stop stop-color="white"/>
<stop offset="0.7279" stop-color="#757575"/>
<stop offset="0.9112" stop-color="#393939"/>
<stop offset="1" stop-color="#1A1A1A"/>
</linearGradient>
<clipPath id="clip0">
<rect width="38" height="50" fill="white" transform="translate(0 0.861084)"/>
</clipPath>
</defs>
</svg>
