<svg width="1440" height="103" viewBox="0 0 1440 103" fill="none" xmlns="http://www.w3.org/2000/svg">
<g clip-path="url(#clip0)">
<path d="M543.425 27.5766C544.091 27.1943 544.281 26.2384 543.901 25.5693C543.52 24.9002 542.569 24.709 541.903 25.0914L541.522 25.3781C540.856 25.8561 540.666 26.7163 541.141 27.3855C541.427 27.7678 541.903 28.0546 542.378 28.0546C542.664 28.0546 542.949 27.959 543.139 27.8634L543.425 27.5766Z" fill="black"/>
<path d="M533.721 34.3634C534.387 33.8854 534.482 33.0252 534.006 32.356C533.53 31.6869 532.579 31.5913 532.008 32.0693L531.723 32.2605C531.057 32.7384 530.962 33.5987 531.437 34.2678C531.723 34.6501 532.103 34.8413 532.579 34.8413C532.865 34.8413 533.15 34.7457 533.435 34.5545L533.721 34.3634Z" fill="black"/>
<path d="M553.509 21.6502C554.175 21.2679 554.461 20.4076 554.08 19.7385C553.7 19.0694 552.843 18.7826 552.177 19.165L551.797 19.2606C551.131 19.6429 550.846 20.5032 551.226 21.1723C551.511 21.6502 551.987 21.937 552.463 21.937C552.653 21.937 552.939 21.8414 553.129 21.7458L553.509 21.6502Z" fill="black"/>
<path d="M631.522 6.06946C631.427 6.83416 631.998 7.59885 632.759 7.59885H633.235C633.33 7.59885 633.33 7.59885 633.425 7.59885C634.186 7.59885 634.757 7.02533 634.852 6.35622C634.947 5.59152 634.376 4.82682 633.615 4.82682H633.139C632.283 4.63565 631.617 5.30476 631.522 6.06946Z" fill="black"/>
<path d="M524.492 41.7236C525.063 41.2456 525.158 40.2898 524.683 39.7162C524.207 39.1427 523.256 39.0471 522.685 39.5251L522.304 39.8118C521.733 40.2898 521.638 41.2456 522.114 41.8192C522.399 42.2015 522.78 42.2971 523.256 42.2971C523.541 42.2971 523.922 42.2015 524.207 42.0103L524.492 41.7236Z" fill="black"/>
<path d="M599.366 6.35627C599.27 5.59157 598.604 5.01805 597.748 5.11363L597.273 5.20922C596.511 5.30481 595.941 5.97392 596.036 6.83421C596.131 7.5989 596.702 8.07684 597.463 8.07684C597.558 8.07684 597.558 8.07684 597.653 8.07684L598.129 7.98125C598.89 7.79008 599.461 7.12097 599.366 6.35627Z" fill="black"/>
<path d="M611.163 5.49594C611.163 4.73124 610.497 4.15771 609.736 4.15771C609.736 4.15771 609.736 4.15771 609.64 4.15771H609.165C608.404 4.15771 607.738 4.82683 607.833 5.68711C607.833 6.45181 608.499 7.02534 609.26 7.02534C609.26 7.02534 609.26 7.02534 609.355 7.02534H609.831C610.592 6.92975 611.163 6.26064 611.163 5.49594Z" fill="black"/>
<path d="M619.725 5.40036C619.725 6.16506 620.296 6.83417 621.152 6.83417H621.628C621.628 6.83417 621.628 6.83417 621.723 6.83417C622.484 6.83417 623.15 6.26065 623.15 5.49595C623.15 4.73125 622.579 4.06214 621.818 3.96655H621.342C620.391 4.06214 619.725 4.63566 619.725 5.40036Z" fill="black"/>
<path d="M586.046 9.89299L586.522 9.7974C587.283 9.60623 587.759 8.84153 587.664 8.07683C587.473 7.31213 586.712 6.8342 585.951 6.92978L585.476 7.02537C584.714 7.21655 584.239 7.98124 584.334 8.74594C584.429 9.41505 585.095 9.89299 585.761 9.89299C585.856 9.89299 585.951 9.89299 586.046 9.89299Z" fill="black"/>
<path d="M576.152 10.8488C575.962 10.0841 575.106 9.70178 574.344 9.89296L573.869 9.98854C573.108 10.1797 572.727 11.04 572.917 11.8047C573.108 12.3782 573.678 12.8562 574.249 12.8562C574.344 12.8562 574.535 12.8562 574.63 12.7606L575.106 12.665C575.867 12.3782 576.342 11.6135 576.152 10.8488Z" fill="black"/>
<path d="M564.165 16.5841C564.926 16.2973 565.211 15.4371 564.926 14.6724C564.64 13.9077 563.784 13.6209 563.023 13.9077L562.547 14.0988C561.786 14.3856 561.501 15.2459 561.786 16.0106C561.977 16.5841 562.547 16.8709 563.118 16.8709C563.309 16.8709 563.499 16.8709 563.689 16.7753L564.165 16.5841Z" fill="black"/>
<path d="M409.281 100.892C409.281 101.657 409.947 102.23 410.708 102.23H410.803H411.279C412.04 102.23 412.706 101.466 412.611 100.701C412.611 99.9363 411.85 99.3627 411.089 99.3627H410.613C409.852 99.3627 409.186 100.032 409.281 100.892Z" fill="black"/>
<path d="M377.125 99.1716C377.22 98.4069 376.744 97.6422 375.983 97.5466L375.507 97.451C374.746 97.2598 373.985 97.8333 373.89 98.598C373.795 99.3627 374.271 100.127 375.032 100.223L375.507 100.319C375.603 100.319 375.698 100.319 375.698 100.319C376.364 100.414 376.934 99.9363 377.125 99.1716Z" fill="black"/>
<path d="M488.34 72.6939C489.006 72.2159 489.101 71.3557 488.626 70.6865C488.15 70.0174 487.294 69.9218 486.628 70.3998L486.247 70.6865C485.581 71.1645 485.486 72.0248 485.962 72.6939C486.247 73.0762 486.628 73.2674 487.104 73.2674C487.389 73.2674 487.674 73.1718 487.96 72.9806L488.34 72.6939Z" fill="black"/>
<path d="M388.827 100.51C388.922 99.7451 388.256 99.076 387.495 98.9804H387.019C386.258 98.8848 385.497 99.4584 385.497 100.319C385.402 101.083 385.972 101.848 386.829 101.848H387.304H387.4C388.161 101.848 388.827 101.275 388.827 100.51Z" fill="black"/>
<path d="M352.865 91.429C352.104 91.1422 351.342 91.5246 351.057 92.2893C350.772 93.054 351.152 93.8187 351.913 94.1055L352.389 94.2966C352.579 94.3922 352.674 94.3922 352.865 94.3922C353.435 94.3922 354.006 94.0099 354.197 93.4363C354.482 92.6716 354.101 91.9069 353.34 91.6202L352.865 91.429Z" fill="black"/>
<path d="M364.471 95.0613L363.996 94.9657C363.235 94.7746 362.474 95.2525 362.283 96.0172C362.093 96.7819 362.569 97.5466 363.33 97.7378L363.805 97.8334C363.901 97.8334 363.996 97.8334 364.186 97.8334C364.852 97.8334 365.423 97.3554 365.613 96.7819C365.708 96.0172 365.233 95.2525 364.471 95.0613Z" fill="black"/>
<path d="M400.719 100.988C400.719 100.223 400.053 99.554 399.292 99.554H398.816C398.055 99.554 397.389 100.223 397.389 100.988C397.389 101.752 397.96 102.422 398.816 102.422H399.292C400.053 102.422 400.719 101.848 400.719 100.988Z" fill="black"/>
<path d="M468.457 86.0761C469.123 85.6937 469.408 84.8334 469.027 84.1643C468.647 83.4952 467.791 83.2085 467.125 83.5908L466.744 83.782C466.078 84.1643 465.793 85.0246 466.173 85.6937C466.459 86.1717 466.934 86.4584 467.41 86.4584C467.6 86.4584 467.886 86.3628 468.076 86.2672L468.457 86.0761Z" fill="black"/>
<path d="M457.706 91.429C458.467 91.1423 458.753 90.282 458.467 89.5173C458.182 88.7526 457.326 88.4658 456.564 88.7526L456.184 88.9438C455.423 89.2305 455.137 90.0908 455.423 90.8555C455.613 91.429 456.184 91.7158 456.755 91.7158C456.945 91.7158 457.135 91.7158 457.326 91.6202L457.706 91.429Z" fill="black"/>
<path d="M478.636 79.7674C479.302 79.2894 479.493 78.4291 479.017 77.76C478.541 77.0909 477.685 76.8997 477.019 77.3777L476.638 77.6644C475.972 78.1424 475.782 79.0027 476.258 79.6718C476.543 80.0541 477.019 80.3409 477.4 80.3409C477.685 80.3409 477.97 80.2453 478.161 80.0541L478.636 79.7674Z" fill="black"/>
<path d="M422.315 98.3113C421.554 98.4069 420.983 99.1716 421.078 99.9363C421.173 100.701 421.744 101.179 422.505 101.179C422.6 101.179 422.6 101.179 422.696 101.179L423.171 101.083C423.932 100.988 424.503 100.223 424.408 99.4583C424.313 98.6936 423.552 98.1201 422.791 98.2157L422.315 98.3113Z" fill="black"/>
<path d="M447.431 93.9143C447.146 93.1496 446.385 92.7672 445.624 92.9584L445.148 93.1496C444.387 93.4363 444.006 94.201 444.197 94.9657C444.387 95.5392 444.958 95.9216 445.529 95.9216C445.719 95.9216 445.814 95.9216 446.004 95.826L446.48 95.6348C447.241 95.4437 447.622 94.679 447.431 93.9143Z" fill="black"/>
<path d="M432.78 97.9289C432.97 98.598 433.541 99.076 434.207 99.076C434.302 99.076 434.397 99.076 434.493 99.076L434.968 98.9804C435.729 98.7892 436.205 98.0245 436.015 97.2598C435.824 96.4951 435.063 96.0172 434.302 96.2084L433.827 96.3039C433.066 96.3995 432.59 97.1642 432.78 97.9289Z" fill="black"/>
<path d="M697.357 30.8266C696.882 31.4957 697.072 32.356 697.643 32.834L698.023 33.1207C698.309 33.3119 698.594 33.4075 698.879 33.4075C699.355 33.4075 699.736 33.2163 700.021 32.834C700.497 32.1648 700.306 31.3046 699.736 30.8266L699.355 30.5399C698.689 30.0619 697.833 30.1575 697.357 30.8266Z" fill="black"/>
<path d="M676.998 18.4958C676.617 19.1649 676.903 20.0252 677.664 20.4076L678.044 20.5987C678.235 20.6943 678.52 20.7899 678.71 20.7899C679.186 20.7899 679.757 20.5032 679.947 20.0252C680.328 19.3561 680.042 18.4958 679.281 18.1135L678.805 17.9223C678.235 17.5399 677.378 17.8267 676.998 18.4958Z" fill="black"/>
<path d="M687.463 24.2311C687.082 24.9002 687.273 25.7605 687.939 26.2384L688.319 26.5252C688.509 26.7164 688.795 26.7164 689.08 26.7164C689.556 26.7164 690.032 26.5252 690.317 26.0473C690.698 25.3781 690.507 24.5179 689.841 24.0399L689.461 23.7532C688.7 23.3708 687.843 23.562 687.463 24.2311Z" fill="black"/>
<path d="M644.461 9.22386L644.936 9.31944C645.032 9.31944 645.127 9.31944 645.222 9.31944C645.888 9.31944 646.459 8.84151 646.649 8.1724C646.839 7.4077 646.268 6.643 645.507 6.45182L645.032 6.35624C644.27 6.26065 643.509 6.73859 643.414 7.50328C643.129 8.36357 643.7 9.12827 644.461 9.22386Z" fill="black"/>
<path d="M340.211 87.4143C339.831 88.0834 340.116 88.9437 340.877 89.3261L341.353 89.5172C341.543 89.6128 341.734 89.6128 341.924 89.6128C342.495 89.6128 342.97 89.3261 343.256 88.7525C343.636 88.0834 343.256 87.2231 342.59 86.8408L342.209 86.6496C341.353 86.3629 340.497 86.7452 340.211 87.4143Z" fill="black"/>
<path d="M706.776 38.0913C706.3 38.6648 706.395 39.6207 706.966 40.0986L707.347 40.3854C707.632 40.5765 707.917 40.6721 708.203 40.6721C708.583 40.6721 709.059 40.481 709.344 40.0986C709.82 39.5251 709.725 38.5692 709.154 38.0913L708.774 37.8045C708.203 37.3266 707.252 37.4222 706.776 38.0913Z" fill="black"/>
<path d="M666.152 13.812C665.867 14.5767 666.247 15.3414 667.008 15.6282L667.484 15.8194C667.674 15.915 667.865 15.915 668.055 15.915C668.626 15.915 669.196 15.5326 669.387 15.0547C669.672 14.29 669.292 13.5253 668.626 13.2385L668.15 13.0473C667.294 12.665 666.437 13.0473 666.152 13.812Z" fill="black"/>
<path d="M655.877 11.9003L656.353 11.9959C656.448 11.9959 656.638 12.0915 656.733 12.0915C657.304 12.0915 657.875 11.7092 658.065 11.0401C658.256 10.2754 657.875 9.51066 657.114 9.2239L656.638 9.12831C655.877 8.93713 655.116 9.31948 654.926 10.0842C654.64 10.9445 655.116 11.7092 655.877 11.9003Z" fill="black"/>
<path d="M13.3192 96.5907L13.7949 96.4951C14.556 96.304 14.9366 95.4437 14.7463 94.679C14.556 93.9143 13.6998 93.5319 12.9387 93.7231L12.463 93.8187C11.7019 94.0099 11.3213 94.8701 11.5116 95.6348C11.7019 96.2084 12.2727 96.6863 12.8435 96.6863C13.0338 96.6863 13.2241 96.5907 13.3192 96.5907Z" fill="black"/>
<path d="M25.1163 92.3849C25.8774 92.0981 26.1628 91.2378 25.8774 90.4731C25.592 89.7084 24.7357 89.4217 23.9746 89.7084L23.5941 89.8996C22.833 90.1864 22.5476 91.0467 22.833 91.8114C23.0233 92.3849 23.5941 92.6716 24.1649 92.6716C24.3552 92.6716 24.5455 92.6716 24.7357 92.5761L25.1163 92.3849Z" fill="black"/>
<path d="M35.8668 87.2232C36.5327 86.8408 36.8182 85.9805 36.4376 85.3114C36.0571 84.6423 35.2008 84.3556 34.5348 84.7379L34.1543 84.9291C33.4883 85.3114 33.2029 86.1717 33.5835 86.8408C33.8689 87.3188 34.3446 87.6055 34.8203 87.6055C35.0105 87.6055 35.296 87.5099 35.4862 87.4144L35.8668 87.2232Z" fill="black"/>
<path d="M2.1882 99.4584C2.9493 99.2672 3.42499 98.5025 3.32985 97.7378C3.13957 96.9731 2.37847 96.4951 1.61737 96.5907L1.14169 96.6863C0.380588 96.8775 -0.0950986 97.6422 3.88073e-05 98.4069C0.0951762 99.076 0.761138 99.5539 1.4271 99.5539C1.52224 99.5539 1.61737 99.5539 1.71251 99.5539L2.1882 99.4584Z" fill="black"/>
<path d="M46.6173 79.0982C46.1416 78.4291 45.2854 78.2379 44.6194 78.7159L44.2389 79.0026C43.5729 79.385 43.3826 80.3409 43.7632 81.01C44.0486 81.3923 44.5243 81.6791 45 81.6791C45.2854 81.6791 45.5708 81.5835 45.7611 81.4879L46.1416 81.2011C46.9027 80.6276 47.093 79.7673 46.6173 79.0982Z" fill="black"/>
<path d="M329.841 81.5835C329.461 82.2526 329.651 83.1129 330.317 83.5909L330.698 83.8776C330.888 83.9732 331.173 84.0688 331.459 84.0688C331.934 84.0688 332.41 83.782 332.696 83.3997C333.076 82.7306 332.886 81.8703 332.22 81.3923L331.839 81.1056C331.078 80.7232 330.222 80.9144 329.841 81.5835Z" fill="black"/>
<path d="M244.503 17.54C244.123 18.2091 244.503 19.0694 245.169 19.4517L245.55 19.6429C245.74 19.7385 245.93 19.8341 246.216 19.8341C246.786 19.8341 247.262 19.5473 247.452 19.0694C247.833 18.4003 247.548 17.54 246.786 17.1576L246.311 16.9664C245.645 16.4885 244.789 16.7753 244.503 17.54Z" fill="black"/>
<path d="M234.799 14.9591C234.989 15.0547 235.085 15.0547 235.275 15.0547C235.846 15.0547 236.416 14.6723 236.607 14.0988C236.892 13.3341 236.512 12.5694 235.751 12.2827L235.275 12.0915C234.514 11.8047 233.753 12.1871 233.467 12.9518C233.182 13.7165 233.562 14.4812 234.323 14.7679L234.799 14.9591Z" fill="black"/>
<path d="M254.968 23.084C254.588 23.7531 254.778 24.6134 255.444 25.0914L255.825 25.3781C256.015 25.4737 256.3 25.5693 256.586 25.5693C257.061 25.5693 257.537 25.2825 257.822 24.9002C258.203 24.2311 258.013 23.3708 257.347 22.8928L256.966 22.6061C256.3 22.1282 255.349 22.3193 254.968 23.084Z" fill="black"/>
<path d="M264.958 29.4884C264.482 30.1575 264.672 31.0178 265.338 31.4957L265.719 31.7825C266.004 31.9736 266.29 32.0692 266.575 32.0692C267.051 32.0692 267.431 31.878 267.717 31.4957C268.192 30.8266 268.002 29.9663 267.336 29.4884L266.956 29.2016C266.29 28.7237 265.433 28.8193 264.958 29.4884Z" fill="black"/>
<path d="M210.539 7.21651C210.444 7.98121 210.92 8.74591 211.681 8.8415L212.156 8.93708C212.252 8.93708 212.347 8.93708 212.442 8.93708C213.108 8.93708 213.679 8.45915 213.869 7.79003C213.964 7.02534 213.488 6.26064 212.727 6.16505L212.156 6.06946C211.395 5.87829 210.729 6.45181 210.539 7.21651Z" fill="black"/>
<path d="M223.192 11.3268L223.668 11.4224C223.763 11.4224 223.953 11.518 224.049 11.518C224.715 11.518 225.285 11.1356 225.381 10.4665C225.571 9.70183 225.095 8.93713 224.334 8.74596L223.858 8.65037C223.097 8.4592 222.336 8.93713 222.146 9.70183C221.956 10.3709 222.431 11.1356 223.192 11.3268Z" fill="black"/>
<path d="M274.471 36.5618C273.996 37.1353 274.091 38.0912 274.662 38.5692L275.042 38.8559C275.328 39.0471 275.613 39.1427 275.898 39.1427C276.279 39.1427 276.755 38.9515 277.04 38.5692C277.516 37.9956 277.421 37.0398 276.85 36.5618L276.469 36.2751C275.899 35.8927 274.947 35.9883 274.471 36.5618Z" fill="black"/>
<path d="M56.3213 72.1204C55.8456 71.4513 54.9894 71.3557 54.3234 71.8336L53.9429 72.1204C53.2769 72.5983 53.1818 73.4586 53.6575 74.1277C53.9429 74.5101 54.3234 74.7012 54.7991 74.7012C55.0845 74.7012 55.3699 74.6057 55.6554 74.4145L56.0359 74.1277C56.6067 73.7454 56.797 72.7895 56.3213 72.1204Z" fill="black"/>
<path d="M198.742 5.8783C198.647 6.643 199.218 7.31211 200.074 7.4077H200.55H200.645C201.406 7.4077 201.977 6.83417 202.072 6.06947C202.167 5.30478 201.596 4.54008 200.74 4.54008H200.264C199.598 4.44449 198.837 5.1136 198.742 5.8783Z" fill="black"/>
<path d="M319.947 74.8924C319.471 75.5615 319.662 76.4218 320.328 76.8997L320.708 77.1864C320.994 77.3776 321.279 77.4732 321.564 77.4732C322.04 77.4732 322.421 77.282 322.706 76.8997C323.182 76.2306 322.991 75.3703 322.326 74.8924L321.945 74.6056C321.374 74.1277 320.423 74.3188 319.947 74.8924Z" fill="black"/>
<path d="M310.624 67.6277C310.148 68.2013 310.243 69.1571 310.814 69.6351L311.194 69.9218C311.48 70.113 311.765 70.2086 312.051 70.2086C312.431 70.2086 312.907 70.0174 313.192 69.6351C313.668 69.0615 313.573 68.1057 313.002 67.6277L312.622 67.341C311.956 66.9586 311.099 67.0542 310.624 67.6277Z" fill="black"/>
<path d="M186.945 5.40036C186.945 6.16506 187.611 6.83417 188.372 6.83417H188.848C189.609 6.83417 190.275 6.16506 190.275 5.40036C190.275 4.63566 189.704 3.96655 188.848 3.96655H188.372C187.611 3.96655 186.945 4.63566 186.945 5.40036Z" fill="black"/>
<path d="M92.4736 41.15C91.9979 40.5765 91.0465 40.4809 90.4757 40.9588L90.0951 41.2456C89.5243 41.7235 89.4292 42.6794 89.9049 43.2529C90.1903 43.6353 90.5708 43.7309 90.9514 43.7309C91.2368 43.7309 91.6173 43.6353 91.9027 43.3485L92.2833 43.0618C92.8541 42.6794 92.9493 41.8191 92.4736 41.15Z" fill="black"/>
<path d="M111.406 26.9075C110.93 26.2384 110.074 26.0473 109.408 26.5252L109.027 26.812C108.362 27.2899 108.171 28.1502 108.647 28.8193C108.932 29.2016 109.408 29.4884 109.789 29.4884C110.074 29.4884 110.359 29.3928 110.55 29.2016L110.93 28.9149C111.691 28.4369 111.882 27.5767 111.406 26.9075Z" fill="black"/>
<path d="M101.702 33.7898C101.226 33.1207 100.37 33.0251 99.704 33.5031L99.3234 33.7898C98.6575 34.2678 98.5623 35.128 99.038 35.7971C99.3234 36.1795 99.704 36.3707 100.18 36.3707C100.465 36.3707 100.751 36.2751 101.036 36.0839L101.416 35.7971C102.082 35.3192 102.178 34.3633 101.702 33.7898Z" fill="black"/>
<path d="M74.5877 56.8264C74.112 56.2528 73.1607 56.1573 72.5898 56.7308L72.2093 57.0175C71.6385 57.4955 71.5433 58.4514 72.1142 59.0249C72.3996 59.3116 72.7801 59.5028 73.1607 59.5028C73.5412 59.5028 73.8266 59.4072 74.112 59.1205L74.4926 58.8337C74.9683 58.3558 75.0634 57.4955 74.5877 56.8264Z" fill="black"/>
<path d="M65.5497 64.6645C65.074 64.091 64.1226 63.9954 63.5518 64.4734L63.1712 64.7601C62.6004 65.2381 62.5053 66.1939 62.981 66.7674C63.2664 67.1498 63.6469 67.2454 64.1226 67.2454C64.408 67.2454 64.7886 67.1498 65.074 66.9586L65.4545 66.6719C65.9302 66.1939 66.0254 65.3336 65.5497 64.6645Z" fill="black"/>
<path d="M83.4355 48.9882C82.9598 48.4147 82.0085 48.3191 81.4376 48.8926L81.0571 49.1794C80.4863 49.6573 80.3911 50.6132 80.9619 51.1867C81.2474 51.4735 81.6279 51.6647 82.0085 51.6647C82.389 51.6647 82.6744 51.5691 82.9598 51.2823L83.3404 50.9956C83.9112 50.5176 84.0063 49.5618 83.4355 48.9882Z" fill="black"/>
<path d="M164.683 8.268C164.778 8.268 164.778 8.268 164.873 8.268L165.349 8.17242C166.11 8.07683 166.681 7.31213 166.586 6.54743C166.49 5.78273 165.729 5.20921 164.968 5.3048L164.493 5.40038C163.731 5.49597 163.161 6.26067 163.256 7.02537C163.351 7.79007 164.017 8.268 164.683 8.268Z" fill="black"/>
<path d="M153.837 10.2753C154.598 10.0841 155.074 9.31944 154.884 8.55474C154.693 7.79004 153.932 7.3121 153.171 7.50328L152.696 7.59886C151.934 7.79004 151.459 8.55474 151.649 9.31944C151.839 9.98855 152.41 10.4665 153.076 10.4665C153.171 10.4665 153.266 10.4665 153.361 10.4665L153.837 10.2753Z" fill="black"/>
<path d="M176.48 7.12092C176.48 7.12092 176.575 7.12092 176.48 7.12092H177.051C177.812 7.12092 178.478 6.35622 178.383 5.59152C178.383 4.82682 177.717 4.2533 176.86 4.2533H176.385C175.624 4.2533 174.958 5.01799 175.053 5.78269C175.148 6.54739 175.719 7.12092 176.48 7.12092Z" fill="black"/>
<path d="M142.516 13.3341C143.277 13.0474 143.658 12.2827 143.467 11.518C143.182 10.7533 142.421 10.3709 141.66 10.5621L141.184 10.7533C140.423 11.04 140.042 11.8047 140.233 12.5694C140.423 13.1429 140.994 13.5253 141.564 13.5253C141.755 13.5253 141.85 13.5253 142.04 13.4297L142.516 13.3341Z" fill="black"/>
<path d="M121.015 22.7017C121.681 22.3193 121.966 21.4591 121.586 20.7899C121.205 20.1208 120.349 19.8341 119.683 20.2164L119.302 20.4076C118.636 20.7899 118.351 21.6502 118.731 22.3193C119.017 22.7973 119.493 23.084 119.968 23.084C120.159 23.084 120.444 22.9885 120.634 22.8929L121.015 22.7017Z" fill="black"/>
<path d="M131.575 17.54C132.336 17.2532 132.622 16.3929 132.336 15.6282C132.051 14.8635 131.194 14.5768 130.433 14.8635L129.958 15.0547C129.197 15.3415 128.911 16.2018 129.197 16.9665C129.387 17.54 129.958 17.8267 130.528 17.8267C130.719 17.8267 130.909 17.8267 131.099 17.7312L131.575 17.54Z" fill="black"/>
<path d="M511.744 57.4955C511.744 58.3558 511.173 59.2161 510.222 59.4072C509.176 59.5984 508.224 58.9293 507.939 57.8778L506.987 53.0985L502.516 51.2823C501.565 50.9 501.089 49.7529 501.469 48.797C501.85 47.8412 502.992 47.3632 503.943 47.7456L510.317 50.3264L511.744 57.1131C511.744 57.2087 511.744 57.3043 511.744 57.4955Z" fill="black"/>
<path d="M505.941 62.3704C505.941 63.2307 505.37 64.091 504.419 64.2822C503.372 64.4733 502.421 63.8042 502.135 62.7528L501.184 57.9734L496.712 56.1572C495.761 55.7749 495.285 54.6279 495.666 53.672C496.047 52.7161 497.188 52.2382 498.14 52.6205L504.514 55.2014L505.941 61.9881C505.941 62.1792 505.941 62.2748 505.941 62.3704Z" fill="black"/>
<path d="M299.397 49.9441C299.397 50.0396 299.397 50.2308 299.397 50.3264L297.97 57.1131L291.596 59.694C290.645 60.0763 289.503 59.5984 289.123 58.6425C288.742 57.6866 289.218 56.5396 290.169 56.1572L294.641 54.3411L295.592 49.5617C295.782 48.5102 296.829 47.8411 297.875 48.0323C298.731 48.2235 299.397 49.0838 299.397 49.9441Z" fill="black"/>
<path d="M293.499 44.9735C293.499 45.0691 293.499 45.2603 293.499 45.3559L292.072 52.1426L285.698 54.7234C284.746 55.1058 283.605 54.6279 283.224 53.672C282.844 52.7161 283.319 51.5691 284.271 51.1867L288.742 49.3705L289.693 44.5912C289.884 43.5397 290.93 42.8706 291.977 43.0618C292.928 43.3485 293.499 44.1132 293.499 44.9735Z" fill="black"/>
<path d="M972.019 26.334C972.685 25.9517 972.875 24.9958 972.495 24.3267C972.114 23.6576 971.163 23.4664 970.497 23.8487L970.116 24.1355C969.45 24.6134 969.26 25.4737 969.736 26.1428C970.021 26.5252 970.497 26.812 970.972 26.812C971.258 26.812 971.543 26.7164 971.734 26.6208L972.019 26.334Z" fill="black"/>
<path d="M962.315 33.1207C962.981 32.6428 963.076 31.7825 962.6 31.1134C962.125 30.4443 961.173 30.3487 960.602 30.8266L960.317 31.0178C959.651 31.4957 959.556 32.356 960.031 33.0251C960.317 33.4075 960.697 33.5986 961.173 33.5986C961.459 33.5986 961.744 33.5031 962.029 33.3119L962.315 33.1207Z" fill="black"/>
<path d="M982.103 20.4076C982.769 20.0252 983.055 19.1649 982.674 18.4958C982.294 17.8267 981.437 17.5399 980.771 17.9223L980.391 18.1135C979.725 18.4958 979.44 19.3561 979.82 20.0252C980.106 20.5032 980.581 20.7899 981.057 20.7899C981.247 20.7899 981.533 20.6943 981.723 20.5987L982.103 20.4076Z" fill="black"/>
<path d="M1060.12 4.82685C1060.02 5.59155 1060.59 6.35625 1061.35 6.35625H1061.83C1061.92 6.35625 1061.92 6.35625 1062.02 6.35625C1062.78 6.35625 1063.35 5.78272 1063.45 5.11361C1063.54 4.34891 1062.97 3.58421 1062.21 3.58421H1061.73C1060.88 3.48863 1060.21 4.06215 1060.12 4.82685Z" fill="black"/>
<path d="M953.086 40.481C953.657 40.003 953.752 39.0472 953.277 38.4736C952.801 37.9001 951.85 37.8045 951.279 38.2825L950.898 38.5692C950.327 39.0472 950.232 40.003 950.708 40.5766C950.993 40.9589 951.374 41.0545 951.85 41.0545C952.135 41.0545 952.516 40.9589 952.801 40.7677L953.086 40.481Z" fill="black"/>
<path d="M1027.96 5.11359C1027.86 4.34889 1027.2 3.77537 1026.34 3.87096L1025.87 3.96654C1025.11 4.06213 1024.53 4.73124 1024.63 5.59153C1024.73 6.35623 1025.3 6.83417 1026.06 6.83417C1026.15 6.83417 1026.15 6.83417 1026.25 6.83417L1026.72 6.73858C1027.48 6.5474 1028.05 5.87829 1027.96 5.11359Z" fill="black"/>
<path d="M1039.76 4.25332C1039.76 3.48862 1039.09 2.9151 1038.33 2.9151C1038.33 2.9151 1038.33 2.9151 1038.23 2.9151H1037.76C1037 2.9151 1036.33 3.58421 1036.43 4.4445C1036.43 5.2092 1037.09 5.78272 1037.85 5.78272C1037.85 5.78272 1037.85 5.78272 1037.95 5.78272H1038.42C1039.19 5.68713 1039.76 5.11361 1039.76 4.25332Z" fill="black"/>
<path d="M1048.32 4.25333C1048.32 5.01803 1048.89 5.68714 1049.75 5.68714H1050.22C1050.22 5.68714 1050.22 5.68714 1050.32 5.68714C1051.08 5.68714 1051.74 5.11362 1051.74 4.34892C1051.74 3.58422 1051.17 2.91511 1050.41 2.81952H1049.94C1048.99 2.81952 1048.32 3.39304 1048.32 4.25333Z" fill="black"/>
<path d="M1014.64 8.65031L1015.12 8.55473C1015.88 8.36355 1016.35 7.59885 1016.26 6.83416C1016.07 6.06946 1015.31 5.59152 1014.55 5.68711L1014.07 5.78269C1013.31 5.97387 1012.83 6.73857 1012.93 7.50327C1013.02 8.17238 1013.69 8.65031 1014.35 8.65031C1014.45 8.65031 1014.55 8.65031 1014.64 8.65031Z" fill="black"/>
<path d="M1004.75 9.60622C1004.56 8.84152 1003.7 8.45917 1002.94 8.65034L1002.46 8.74593C1001.7 8.9371 1001.32 9.79739 1001.51 10.5621C1001.7 11.1356 1002.27 11.6136 1002.84 11.6136C1002.94 11.6136 1003.13 11.6135 1003.22 11.518L1003.7 11.4224C1004.46 11.1356 1004.94 10.3709 1004.75 9.60622Z" fill="black"/>
<path d="M992.759 15.3414C993.52 15.0547 993.805 14.1944 993.52 13.4297C993.235 12.665 992.378 12.3782 991.617 12.665L991.142 12.8562C990.38 13.1429 990.095 14.0032 990.38 14.7679C990.571 15.3414 991.141 15.6282 991.712 15.6282C991.903 15.6282 992.093 15.6282 992.283 15.5326L992.759 15.3414Z" fill="black"/>
<path d="M837.875 99.6495C837.875 100.414 838.541 100.988 839.302 100.988H839.397H839.873C840.634 100.988 841.3 100.223 841.205 99.4583C841.205 98.6936 840.444 98.1201 839.683 98.1201H839.207C838.446 98.1201 837.78 98.7892 837.875 99.6495Z" fill="black"/>
<path d="M805.719 97.929C805.814 97.1643 805.338 96.3996 804.577 96.304L804.101 96.2084C803.34 96.0172 802.579 96.5907 802.484 97.3554C802.389 98.1201 802.865 98.8848 803.626 98.9804L804.101 99.076C804.196 99.076 804.292 99.076 804.292 99.076C804.958 99.1716 805.528 98.6937 805.719 97.929Z" fill="black"/>
<path d="M916.934 71.5468C917.6 71.0689 917.695 70.2086 917.22 69.5395C916.744 68.8704 915.888 68.7748 915.222 69.2528L914.841 69.5395C914.175 70.0174 914.08 70.8777 914.556 71.5468C914.841 71.9292 915.222 72.1204 915.698 72.1204C915.983 72.1204 916.268 72.0248 916.554 71.8336L916.934 71.5468Z" fill="black"/>
<path d="M817.421 99.2671C817.516 98.5024 816.85 97.8333 816.089 97.7377H815.613C814.852 97.6422 814.091 98.2157 814.091 99.076C813.996 99.8407 814.566 100.605 815.423 100.605H815.898H815.994C816.755 100.605 817.421 100.032 817.421 99.2671Z" fill="black"/>
<path d="M781.459 90.1864C780.698 89.8996 779.936 90.282 779.651 91.0467C779.366 91.8114 779.746 92.5761 780.507 92.8628L780.983 93.054C781.173 93.1496 781.268 93.1496 781.459 93.1496C782.029 93.1496 782.6 92.7673 782.791 92.1937C783.076 91.429 782.695 90.6643 781.934 90.3776L781.459 90.1864Z" fill="black"/>
<path d="M793.065 93.8187L792.59 93.7231C791.829 93.5319 791.067 94.0099 790.877 94.7746C790.687 95.5393 791.163 96.304 791.924 96.4952L792.399 96.5907C792.495 96.5907 792.59 96.5907 792.78 96.5907C793.446 96.5907 794.017 96.1128 794.207 95.5393C794.302 94.8702 793.826 94.0099 793.065 93.8187Z" fill="black"/>
<path d="M829.313 99.7451C829.313 98.9804 828.647 98.3113 827.886 98.3113H827.41C826.649 98.3113 825.983 98.9804 825.983 99.7451C825.983 100.51 826.554 101.179 827.41 101.179H827.886C828.647 101.179 829.313 100.605 829.313 99.7451Z" fill="black"/>
<path d="M896.956 84.8335C897.621 84.4511 897.907 83.5908 897.526 82.9217C897.146 82.2526 896.29 81.9658 895.624 82.3482L895.243 82.5394C894.577 82.9217 894.292 83.782 894.672 84.4511C894.958 84.9291 895.433 85.2158 895.909 85.2158C896.099 85.2158 896.385 85.1202 896.575 85.0246L896.956 84.8335Z" fill="black"/>
<path d="M886.3 90.1863C887.061 89.8996 887.347 89.0393 887.061 88.2746C886.776 87.5099 885.919 87.2231 885.158 87.5099L884.778 87.7011C884.017 87.9878 883.731 88.8481 884.017 89.6128C884.207 90.1863 884.778 90.4731 885.349 90.4731C885.539 90.4731 885.729 90.4731 885.919 90.3775L886.3 90.1863Z" fill="black"/>
<path d="M907.23 78.5247C907.896 78.0467 908.087 77.1865 907.611 76.5173C907.135 75.8482 906.279 75.6571 905.613 76.135L905.232 76.4218C904.566 76.8997 904.376 77.76 904.852 78.4291C905.137 78.8114 905.613 79.0982 905.994 79.0982C906.279 79.0982 906.564 79.0026 906.755 78.8114L907.23 78.5247Z" fill="black"/>
<path d="M850.909 97.0687C850.148 97.1642 849.577 97.9289 849.672 98.6936C849.767 99.4583 850.338 99.9363 851.099 99.9363C851.194 99.9363 851.194 99.9363 851.289 99.9363L851.765 99.8407C852.526 99.7451 853.097 98.9804 853.002 98.2157C852.907 97.451 852.146 96.8775 851.385 96.9731L850.909 97.0687Z" fill="black"/>
<path d="M876.025 92.6716C875.74 91.9069 874.979 91.5246 874.218 91.7158L873.742 91.9069C872.981 92.1937 872.6 92.9584 872.791 93.7231C872.981 94.2966 873.552 94.679 874.122 94.679C874.313 94.679 874.408 94.679 874.598 94.5834L875.074 94.3922C875.835 94.2966 876.215 93.4363 876.025 92.6716Z" fill="black"/>
<path d="M861.374 96.6863C861.564 97.3554 862.135 97.8334 862.801 97.8334C862.896 97.8334 862.991 97.8334 863.087 97.8334L863.562 97.7378C864.323 97.5466 864.799 96.7819 864.609 96.0172C864.418 95.2525 863.657 94.7746 862.896 94.9657L862.421 95.0613C861.659 95.1569 861.184 95.9216 861.374 96.6863Z" fill="black"/>
<path d="M1125.95 29.5839C1125.48 30.2531 1125.67 31.1133 1126.24 31.5913L1126.62 31.878C1126.9 32.0692 1127.19 32.1648 1127.47 32.1648C1127.95 32.1648 1128.33 31.9736 1128.62 31.5913C1129.09 30.9222 1128.9 30.0619 1128.33 29.5839L1127.95 29.2972C1127.28 28.8193 1126.43 29.0104 1125.95 29.5839Z" fill="black"/>
<path d="M1105.59 17.2532C1105.21 17.9223 1105.5 18.7826 1106.26 19.1649L1106.64 19.3561C1106.83 19.4517 1107.11 19.5473 1107.3 19.5473C1107.78 19.5473 1108.35 19.2605 1108.54 18.7826C1108.92 18.1135 1108.64 17.2532 1107.88 16.8709L1107.4 16.6797C1106.83 16.2973 1105.97 16.5841 1105.59 17.2532Z" fill="black"/>
<path d="M1116.06 22.9884C1115.68 23.6575 1115.87 24.5178 1116.53 24.9958L1116.91 25.2825C1117.1 25.4737 1117.39 25.4737 1117.67 25.4737C1118.15 25.4737 1118.63 25.2825 1118.91 24.8046C1119.29 24.1355 1119.1 23.2752 1118.44 22.7972L1118.05 22.5105C1117.29 22.1281 1116.44 22.3193 1116.06 22.9884Z" fill="black"/>
<path d="M1073.05 8.07682L1073.53 8.17241C1073.63 8.17241 1073.72 8.17241 1073.82 8.17241C1074.48 8.17241 1075.05 7.69447 1075.24 7.02536C1075.43 6.26066 1074.86 5.49596 1074.1 5.30479L1073.63 5.2092C1072.86 5.11361 1072.1 5.59155 1072.01 6.35625C1071.72 7.12095 1072.29 7.88565 1073.05 8.07682Z" fill="black"/>
<path d="M768.805 86.1717C768.425 86.8408 768.71 87.7011 769.471 88.0835L769.947 88.2746C770.137 88.3702 770.328 88.3702 770.518 88.3702C771.089 88.3702 771.564 88.0835 771.85 87.5099C772.23 86.8408 771.85 85.9805 771.184 85.5982L770.803 85.407C769.947 85.2158 769.091 85.5026 768.805 86.1717Z" fill="black"/>
<path d="M1135.37 36.8486C1134.89 37.4222 1134.99 38.378 1135.56 38.856L1135.94 39.1427C1136.23 39.3339 1136.51 39.4295 1136.8 39.4295C1137.18 39.4295 1137.65 39.2383 1137.94 38.856C1138.41 38.2824 1138.32 37.3266 1137.75 36.8486L1137.37 36.5619C1136.8 36.1795 1135.85 36.2751 1135.37 36.8486Z" fill="black"/>
<path d="M1094.75 12.5694C1094.46 13.3341 1094.84 14.0988 1095.6 14.3856L1096.08 14.5768C1096.27 14.6723 1096.46 14.6723 1096.65 14.6723C1097.22 14.6723 1097.79 14.29 1097.98 13.8121C1098.27 13.0474 1097.89 12.2827 1097.22 11.9959L1096.74 11.8047C1095.89 11.4224 1095.03 11.8047 1094.75 12.5694Z" fill="black"/>
<path d="M1084.47 10.6577L1084.95 10.7533C1085.04 10.7533 1085.23 10.8488 1085.33 10.8488C1085.9 10.8488 1086.47 10.4665 1086.66 9.79738C1086.85 9.03268 1086.47 8.26798 1085.71 7.98122L1085.23 7.88563C1084.47 7.69446 1083.71 8.07681 1083.52 8.84151C1083.23 9.70179 1083.71 10.4665 1084.47 10.6577Z" fill="black"/>
<path d="M758.435 80.3409C758.055 81.01 758.245 81.8703 758.911 82.3482L759.292 82.635C759.482 82.7306 759.767 82.8262 760.053 82.8262C760.528 82.8262 761.004 82.5394 761.29 82.1571C761.67 81.4879 761.48 80.6277 760.814 80.1497L760.433 79.863C759.672 79.4806 758.816 79.6718 758.435 80.3409Z" fill="black"/>
<path d="M748.541 73.7453C748.065 74.4144 748.256 75.2747 748.922 75.7526L749.302 76.0394C749.588 76.2306 749.873 76.3262 750.158 76.3262C750.634 76.3262 751.015 76.135 751.3 75.7526C751.776 75.0835 751.585 74.2233 750.92 73.7453L750.539 73.4586C749.968 72.885 749.017 73.0762 748.541 73.7453Z" fill="black"/>
<path d="M739.218 66.3851C738.742 66.9587 738.837 67.9145 739.408 68.3925L739.788 68.6792C740.074 68.8704 740.359 68.966 740.645 68.966C741.025 68.966 741.501 68.7748 741.786 68.3925C742.262 67.8189 742.167 66.8631 741.596 66.3851L741.215 66.0984C740.549 65.716 739.693 65.8116 739.218 66.3851Z" fill="black"/>
<path d="M1156.59 46.7897C1156.59 46.8853 1156.59 47.0765 1156.59 47.172L1155.16 53.9588L1148.78 56.5396C1147.83 56.922 1146.69 56.444 1146.31 55.4882C1145.93 54.5323 1146.41 53.3852 1147.36 53.0029L1151.83 51.1867L1152.78 46.4073C1152.97 45.3559 1154.02 44.6868 1155.06 44.8779C1155.92 45.0691 1156.59 45.9294 1156.59 46.7897Z" fill="black"/>
<path d="M1150.69 41.8192C1150.69 41.9148 1150.69 42.1059 1150.69 42.2015L1149.26 48.9882L1142.89 51.5691C1141.93 51.9514 1140.79 51.4735 1140.41 50.5176C1140.03 49.5618 1140.51 48.4147 1141.46 48.0324L1145.93 46.2162L1146.88 41.4368C1147.07 40.3854 1148.12 39.7163 1149.16 39.9074C1150.12 40.1942 1150.69 40.9589 1150.69 41.8192Z" fill="black"/>
<path d="M940.338 56.2529C940.338 57.1132 939.767 57.9734 938.816 58.1646C937.769 58.3558 936.818 57.6867 936.533 56.6352L935.581 51.8559L931.11 50.0397C930.158 49.6573 929.683 48.5103 930.063 47.5544C930.444 46.5985 931.586 46.1206 932.537 46.503L938.911 49.0838L940.338 55.8705C940.338 55.9661 940.338 56.0617 940.338 56.2529Z" fill="black"/>
<path d="M934.535 61.1278C934.535 61.9881 933.964 62.8484 933.013 63.0396C931.966 63.2307 931.015 62.5616 930.729 61.5102L929.778 56.7308L925.306 54.9146C924.355 54.5323 923.879 53.3852 924.26 52.4294C924.64 51.4735 925.782 50.9956 926.733 51.3779L933.108 53.9588L934.535 60.7455C934.535 60.9366 934.535 61.0322 934.535 61.1278Z" fill="black"/>
<path d="M727.991 48.7014C727.991 48.797 727.991 48.9882 727.991 49.0838L726.564 55.8705L720.19 58.4514C719.239 58.8337 718.097 58.3558 717.717 57.3999C717.336 56.444 717.812 55.297 718.763 54.9146L723.235 53.0985L724.186 48.3191C724.376 47.2676 725.423 46.5985 726.469 46.7897C727.325 46.9809 727.991 47.8412 727.991 48.7014Z" fill="black"/>
<path d="M722.093 43.7309C722.093 43.8265 722.093 44.0177 722.093 44.1133L720.666 50.9L714.292 53.4808C713.34 53.8632 712.199 53.3852 711.818 52.4294C711.438 51.4735 711.913 50.3264 712.865 49.9441L717.336 48.1279L718.287 43.3486C718.478 42.2971 719.524 41.628 720.571 41.8192C721.522 42.1059 722.093 42.8706 722.093 43.7309Z" fill="black"/>
<path d="M1426.68 3.10627L1426.2 3.20186C1425.44 3.39303 1425.06 4.25332 1425.25 5.01802C1425.44 5.78271 1426.3 6.16506 1427.06 5.97389L1427.54 5.8783C1428.3 5.68713 1428.68 4.82684 1428.49 4.06214C1428.3 3.48862 1427.73 3.01068 1427.16 3.01068C1426.97 3.01068 1426.78 3.10627 1426.68 3.10627Z" fill="black"/>
<path d="M1414.98 7.31209C1414.22 7.59885 1413.93 8.45914 1414.22 9.22384C1414.5 9.98854 1415.36 10.2753 1416.12 9.98854L1416.5 9.79736C1417.26 9.5106 1417.55 8.65032 1417.26 7.88562C1417.07 7.31209 1416.5 7.02533 1415.93 7.02533C1415.74 7.02533 1415.55 7.02533 1415.36 7.12092L1414.98 7.31209Z" fill="black"/>
<path d="M1404.13 12.4738C1403.47 12.8562 1403.18 13.7165 1403.56 14.3856C1403.94 15.0547 1404.8 15.3415 1405.46 14.9591L1405.85 14.7679C1406.51 14.3856 1406.8 13.5253 1406.42 12.8562C1406.13 12.3783 1405.66 12.0915 1405.18 12.0915C1404.99 12.0915 1404.7 12.1871 1404.51 12.2827L1404.13 12.4738Z" fill="black"/>
<path d="M1437.81 0.238654C1437.05 0.429828 1436.57 1.19453 1436.67 1.95923C1436.86 2.72393 1437.62 3.20186 1438.38 3.10627L1438.86 3.01069C1439.62 2.81951 1440.09 2.05481 1440 1.29011C1439.9 0.621003 1439.24 0.143066 1438.57 0.143066C1438.48 0.143066 1438.38 0.143066 1438.29 0.143066L1437.81 0.238654Z" fill="black"/>
<path d="M1393.38 20.5987C1393.86 21.2679 1394.71 21.459 1395.38 20.9811L1395.76 20.6943C1396.43 20.312 1396.62 19.3561 1396.24 18.687C1395.95 18.3046 1395.48 18.0179 1395 18.0179C1394.71 18.0179 1394.43 18.1135 1394.24 18.2091L1393.86 18.4958C1393.1 19.0693 1392.91 19.9296 1393.38 20.5987Z" fill="black"/>
<path d="M1195.5 82.157C1195.88 81.4879 1195.5 80.6276 1194.83 80.2453L1194.45 80.0541C1194.26 79.9585 1194.07 79.8629 1193.78 79.8629C1193.21 79.8629 1192.74 80.1497 1192.55 80.6276C1192.17 81.2967 1192.45 82.157 1193.21 82.5394L1193.69 82.7305C1194.36 83.2085 1195.21 82.9217 1195.5 82.157Z" fill="black"/>
<path d="M1205.2 84.7379C1205.01 84.6423 1204.92 84.6423 1204.73 84.6423C1204.15 84.6423 1203.58 85.0246 1203.39 85.5981C1203.11 86.3629 1203.49 87.1276 1204.25 87.4143L1204.73 87.6055C1205.49 87.8923 1206.25 87.5099 1206.53 86.7452C1206.82 85.9805 1206.44 85.2158 1205.68 84.929L1205.2 84.7379Z" fill="black"/>
<path d="M1185.03 76.613C1185.41 75.9439 1185.22 75.0836 1184.56 74.6056L1184.18 74.3189C1183.99 74.2233 1183.7 74.1277 1183.41 74.1277C1182.94 74.1277 1182.46 74.4144 1182.18 74.7968C1181.8 75.4659 1181.99 76.3262 1182.65 76.8041L1183.03 77.0909C1183.7 77.5688 1184.65 77.3777 1185.03 76.613Z" fill="black"/>
<path d="M1175.04 70.2086C1175.52 69.5395 1175.33 68.6792 1174.66 68.2013L1174.28 67.9145C1174 67.7233 1173.71 67.6277 1173.42 67.6277C1172.95 67.6277 1172.57 67.8189 1172.28 68.2013C1171.81 68.8704 1172 69.7307 1172.66 70.2086L1173.04 70.4954C1173.71 70.9733 1174.57 70.8777 1175.04 70.2086Z" fill="black"/>
<path d="M1229.46 92.4805C1229.56 91.7158 1229.08 90.9511 1228.32 90.8555L1227.84 90.7599C1227.75 90.7599 1227.65 90.7599 1227.56 90.7599C1226.89 90.7599 1226.32 91.2378 1226.13 91.9069C1226.04 92.6716 1226.51 93.4363 1227.27 93.5319L1227.75 93.6275C1228.6 93.8187 1229.37 93.2452 1229.46 92.4805Z" fill="black"/>
<path d="M1216.81 88.3702L1216.33 88.2746C1216.24 88.2746 1216.05 88.179 1215.95 88.179C1215.29 88.179 1214.71 88.5614 1214.62 89.2305C1214.43 89.9952 1214.9 90.7599 1215.67 90.951L1216.14 91.0466C1216.9 91.2378 1217.66 90.7599 1217.85 89.9952C1218.04 89.3261 1217.57 88.5614 1216.81 88.3702Z" fill="black"/>
<path d="M1165.53 63.0395C1166 62.466 1165.91 61.5101 1165.34 61.0322L1164.96 60.7454C1164.67 60.5543 1164.39 60.4587 1164.1 60.4587C1163.72 60.4587 1163.25 60.6499 1162.96 61.0322C1162.48 61.6057 1162.58 62.5616 1163.15 63.0395L1163.53 63.3263C1164.1 63.8042 1165.05 63.7087 1165.53 63.0395Z" fill="black"/>
<path d="M1383.68 27.4811C1384.15 28.1502 1385.01 28.2458 1385.68 27.7678L1386.06 27.4811C1386.72 27.0031 1386.82 26.1428 1386.34 25.4737C1386.06 25.0914 1385.68 24.9002 1385.2 24.9002C1384.92 24.9002 1384.63 24.9958 1384.34 25.187L1383.96 25.4737C1383.39 25.9517 1383.2 26.9075 1383.68 27.4811Z" fill="black"/>
<path d="M1241.26 93.8187C1241.35 93.054 1240.78 92.3849 1239.93 92.2893H1239.45H1239.35C1238.59 92.2893 1238.02 92.8628 1237.93 93.6275C1237.83 94.3922 1238.4 95.1569 1239.26 95.1569H1239.74C1240.5 95.1569 1241.16 94.5834 1241.26 93.8187Z" fill="black"/>
<path d="M1253.05 94.2966C1253.05 93.5319 1252.39 92.8628 1251.63 92.8628H1251.15C1250.39 92.8628 1249.72 93.5319 1249.72 94.2966C1249.72 95.0613 1250.3 95.7304 1251.15 95.7304H1251.63C1252.39 95.7304 1253.05 95.0613 1253.05 94.2966Z" fill="black"/>
<path d="M1347.53 58.5469C1348 59.1204 1348.95 59.216 1349.52 58.7381L1349.9 58.4513C1350.48 57.9734 1350.57 57.0175 1350.09 56.444C1349.81 56.0617 1349.43 55.9661 1349.05 55.9661C1348.76 55.9661 1348.38 56.0616 1348.1 56.3484L1347.72 56.6352C1347.15 57.0175 1347.05 57.8778 1347.53 58.5469Z" fill="black"/>
<path d="M1328.59 72.7895C1329.07 73.4586 1329.93 73.6498 1330.59 73.1718L1330.97 72.8851C1331.64 72.4071 1331.83 71.5468 1331.35 70.8777C1331.07 70.4954 1330.59 70.2086 1330.21 70.2086C1329.93 70.2086 1329.64 70.3042 1329.45 70.4954L1329.07 70.7821C1328.31 71.2601 1328.12 72.1204 1328.59 72.7895Z" fill="black"/>
<path d="M1338.3 65.9072C1338.77 66.5763 1339.63 66.6719 1340.3 66.1939L1340.68 65.9072C1341.34 65.4292 1341.44 64.5689 1340.96 63.8998C1340.68 63.5175 1340.3 63.3263 1339.82 63.3263C1339.53 63.3263 1339.25 63.4219 1338.96 63.6131L1338.58 63.8998C1337.92 64.3778 1337.82 65.3336 1338.3 65.9072Z" fill="black"/>
<path d="M1365.51 42.775C1365.98 43.3485 1366.93 43.4441 1367.51 42.8706L1367.89 42.5838C1368.46 42.1059 1368.55 41.15 1367.98 40.5765C1367.7 40.2897 1367.31 40.0986 1366.93 40.0986C1366.55 40.0986 1366.27 40.1942 1365.98 40.4809L1365.6 40.7677C1365.03 41.3412 1364.94 42.2015 1365.51 42.775Z" fill="black"/>
<path d="M1374.45 35.0325C1374.93 35.606 1375.88 35.7016 1376.45 35.2236L1376.83 34.9369C1377.4 34.4589 1377.49 33.5031 1377.02 32.9295C1376.73 32.5472 1376.35 32.4516 1375.88 32.4516C1375.59 32.4516 1375.21 32.5472 1374.93 32.7384L1374.55 33.0251C1374.07 33.5031 1373.97 34.3633 1374.45 35.0325Z" fill="black"/>
<path d="M1356.56 50.7088C1357.04 51.2823 1357.99 51.3779 1358.56 50.8044L1358.94 50.5176C1359.51 50.0397 1359.61 49.0838 1359.04 48.5103C1358.75 48.2235 1358.37 48.0323 1357.99 48.0323C1357.61 48.0323 1357.33 48.1279 1357.04 48.4147L1356.66 48.7015C1356.09 49.1794 1355.99 50.1353 1356.56 50.7088Z" fill="black"/>
<path d="M1275.32 91.429C1275.22 91.429 1275.22 91.429 1275.13 91.429L1274.65 91.5246C1273.89 91.6202 1273.32 92.3849 1273.41 93.1496C1273.51 93.9143 1274.27 94.4878 1275.03 94.3922L1275.51 94.2966C1276.27 94.2011 1276.84 93.4364 1276.74 92.6717C1276.65 91.907 1275.98 91.429 1275.32 91.429Z" fill="black"/>
<path d="M1286.16 89.4216C1285.4 89.6128 1284.93 90.3775 1285.12 91.1422C1285.31 91.9069 1286.07 92.3849 1286.83 92.1937L1287.3 92.0981C1288.07 91.9069 1288.54 91.1422 1288.35 90.3775C1288.16 89.7084 1287.59 89.2305 1286.92 89.2305C1286.83 89.2305 1286.73 89.2305 1286.64 89.2305L1286.16 89.4216Z" fill="black"/>
<path d="M1263.52 92.576C1263.52 92.576 1263.42 92.576 1263.52 92.576H1262.95C1262.19 92.576 1261.52 93.3408 1261.62 94.1055C1261.62 94.8702 1262.28 95.4437 1263.14 95.4437H1263.61C1264.38 95.4437 1265.04 94.679 1264.95 93.9143C1264.95 93.1496 1264.28 92.576 1263.52 92.576Z" fill="black"/>
<path d="M1297.48 86.3629C1296.72 86.6496 1296.34 87.4143 1296.53 88.179C1296.82 88.9437 1297.58 89.3261 1298.34 89.1349L1298.82 88.9437C1299.58 88.657 1299.96 87.8923 1299.77 87.1276C1299.58 86.554 1299.01 86.1717 1298.44 86.1717C1298.25 86.1717 1298.15 86.1717 1297.96 86.2673L1297.48 86.3629Z" fill="black"/>
<path d="M1318.98 76.9953C1318.32 77.3777 1318.03 78.238 1318.41 78.9071C1318.79 79.5762 1319.65 79.8629 1320.32 79.4806L1320.7 79.2894C1321.36 78.9071 1321.65 78.0468 1321.27 77.3777C1320.98 76.8997 1320.51 76.613 1320.03 76.613C1319.84 76.613 1319.56 76.7086 1319.37 76.8041L1318.98 76.9953Z" fill="black"/>
<path d="M1308.42 82.157C1307.66 82.4438 1307.38 83.3041 1307.66 84.0688C1307.95 84.8335 1308.81 85.1202 1309.57 84.8335L1310.04 84.6423C1310.8 84.3555 1311.09 83.4952 1310.8 82.7305C1310.61 82.157 1310.04 81.8702 1309.47 81.8702C1309.28 81.8702 1309.09 81.8702 1308.9 81.9658L1308.42 82.157Z" fill="black"/>
</g>
<defs>
<clipPath id="clip0">
<rect width="1440" height="102.278" fill="white" transform="translate(0 0.143066)"/>
</clipPath>
</defs>
</svg>
