<svg width="61" height="62" viewBox="0 0 61 62" fill="none" xmlns="http://www.w3.org/2000/svg">
<g clip-path="url(#clip0)">
<path d="M26.2183 22.7606C25.0863 22.7606 24.0138 22.1648 23.4179 21.1519C22.4646 19.6027 23.0009 17.5769 24.55 16.6832C28.0654 14.5382 31.9383 13.0486 36.0495 12.0953C37.837 11.6782 39.5649 12.8103 39.982 14.5978C40.3991 16.3853 39.267 18.1132 37.4795 18.5303C34.0833 19.3048 30.8658 20.5561 27.9462 22.3436C27.41 22.5819 26.8142 22.7606 26.2183 22.7606Z" fill="url(#paint0_linear)"/>
<path d="M9.77346 61.0725C8.28389 61.0725 6.91348 60.0596 6.55598 58.5104C6.1389 56.6038 5.84099 54.6375 5.72182 52.7309C5.60265 50.9434 6.97306 49.3346 8.76055 49.2155C10.548 49.0963 12.1568 50.4667 12.2759 52.2542C12.3951 53.8629 12.6334 55.4121 12.9909 57.0208C13.408 58.8083 12.2759 60.5362 10.4885 60.9533C10.2501 61.0129 10.0118 61.0725 9.77346 61.0725Z" fill="url(#paint1_linear)"/>
<path d="M9.71386 45.5809C9.47553 45.5809 9.2372 45.5809 8.99887 45.5213C7.21138 45.1043 6.13889 43.3764 6.49638 41.5889C7.62846 36.4647 9.77345 31.6981 12.8122 27.4081C13.8847 25.9186 15.9105 25.6206 17.4001 26.6335C18.8896 27.706 19.1875 29.7319 18.1746 31.2214C15.6126 34.7964 13.8847 38.7289 12.9313 43.0189C12.5738 44.568 11.263 45.5809 9.71386 45.5809Z" fill="url(#paint2_linear)"/>
<path d="M20.6175 34.7368C18.6513 34.7368 16.6851 34.2006 14.9572 33.0685C12.5738 31.5789 10.9055 29.1956 10.3097 26.4548C9.05846 20.7944 12.6334 15.134 18.2938 13.8232C21.0346 13.2274 23.8946 13.7041 26.2779 15.1936C28.6612 16.6832 30.3296 19.0665 30.9254 21.8073C32.1766 27.4677 28.6017 33.1281 22.9413 34.4389C22.1667 34.6177 21.3921 34.7368 20.6175 34.7368ZM20.6175 20.139C20.3196 20.139 20.0217 20.1986 19.7238 20.2582C17.5788 20.7348 16.2084 22.8798 16.6851 25.0248C16.9234 26.0973 17.5192 26.9315 18.4726 27.5273C19.3663 28.1231 20.4388 28.3019 21.5113 28.0635C23.6563 27.5869 25.0267 25.4419 24.55 23.2969C24.3117 22.2244 23.7159 21.3903 22.7625 20.7944C22.1071 20.3178 21.3921 20.139 20.6175 20.139Z" fill="#1BA3DD"/>
<path d="M8.87971 55.7696C5.00682 55.7696 1.55101 53.0884 0.657268 49.2155C-0.355642 44.6872 2.50434 40.1589 7.03264 39.146C11.5609 38.1331 16.0892 40.993 17.1022 45.5213C17.5788 47.7259 17.2213 49.9901 15.9701 51.8371C14.7784 53.7438 12.8718 55.0546 10.7268 55.5313C10.131 55.71 9.47554 55.7696 8.87971 55.7696ZM8.87971 45.5213C8.76054 45.5213 8.5818 45.5213 8.46263 45.5809C7.44972 45.8192 6.85389 46.7726 7.03264 47.7855C7.27097 48.7984 8.2243 49.4538 9.23721 49.2155C9.71387 49.0963 10.131 48.7984 10.4289 48.3813C10.7268 47.9642 10.7864 47.4876 10.6672 46.9513C10.548 46.4747 10.2501 46.0576 9.83304 45.7597C9.59471 45.6405 9.23721 45.5213 8.87971 45.5213Z" fill="#1BA3DD"/>
<path d="M47.8469 25.2631C42.0674 25.2631 36.8241 21.2711 35.5133 15.3724C34.7983 12.0953 35.3941 8.69908 37.1816 5.8391C38.9691 2.97912 41.8291 1.01289 45.1061 0.297891C48.3832 -0.417104 51.7794 0.178725 54.6394 1.96621C57.4994 3.7537 59.4656 6.61368 60.1806 9.89074C60.8956 13.1678 60.2998 16.564 58.5123 19.424C56.7248 22.284 53.8648 24.2502 50.5877 24.9652C49.694 25.2036 48.7407 25.2631 47.8469 25.2631ZM47.8469 6.5541C47.4299 6.5541 46.9532 6.61368 46.5361 6.67326C43.2591 7.38826 41.1736 10.6653 41.9482 13.9424C42.3057 15.5511 43.259 16.8619 44.6295 17.7557C45.9999 18.6494 47.6086 18.8878 49.2173 18.5303C50.8261 18.1728 52.1369 17.2194 53.0306 15.849C53.9244 14.4786 54.1627 12.8699 53.8052 11.2611C53.1498 8.46075 50.6473 6.5541 47.8469 6.5541Z" fill="#1BA3DD"/>
</g>
<defs>
<linearGradient id="paint0_linear" x1="46.7385" y1="10.8834" x2="20.167" y2="21.8364" gradientUnits="userSpaceOnUse">
<stop offset="0.4" stop-color="#1BA3DD"/>
<stop offset="1" stop-color="#1BA3DD" stop-opacity="0"/>
</linearGradient>
<linearGradient id="paint1_linear" x1="9.89054" y1="62.9209" x2="9.28208" y2="53.7933" gradientUnits="userSpaceOnUse">
<stop offset="0.4" stop-color="#1BA3DD"/>
<stop offset="1" stop-color="#1BA3DD" stop-opacity="0"/>
</linearGradient>
<linearGradient id="paint2_linear" x1="17.0616" y1="24.3652" x2="9.55668" y2="42.6204" gradientUnits="userSpaceOnUse">
<stop offset="0.4" stop-color="#1BA3DD"/>
<stop offset="1" stop-color="#1BA3DD" stop-opacity="0"/>
</linearGradient>
<clipPath id="clip0">
<rect width="60" height="61.0725" fill="white" transform="translate(0.478516)"/>
</clipPath>
</defs>
</svg>
