<svg width="61" height="60" viewBox="0 0 61 60" fill="none" xmlns="http://www.w3.org/2000/svg">
<g clip-path="url(#clip0)">
<path d="M46.9093 13.4308C45.5247 13.4308 44.3708 12.2769 44.3708 10.8923V6.73846C44.3708 5.81539 43.6324 5.07692 42.7093 5.07692H18.2478C17.3247 5.07692 16.5862 5.81539 16.5862 6.73846V10.8923C16.5862 12.2769 15.4324 13.4308 14.0478 13.4308C12.6631 13.4308 11.5093 12.2769 11.5093 10.8923V6.73846C11.4631 3.04615 14.5093 0 18.2478 0H42.7093C46.4478 0 49.4478 3.04615 49.4478 6.73846V10.8923C49.4478 12.3231 48.3401 13.4308 46.9093 13.4308Z" fill="url(#paint0_linear)"/>
<path d="M42.7093 59.1231H18.2478C14.5093 59.1231 11.5093 56.0769 11.5093 52.3846V38.2615C11.5093 36.8769 12.6631 35.7231 14.0478 35.7231C15.4324 35.7231 16.5862 36.8769 16.5862 38.2615V52.3385C16.5862 53.2616 17.3247 54 18.2478 54H42.7093C43.6324 54 44.3708 53.2616 44.3708 52.3385V38.2615C44.3708 36.8769 45.5247 35.7231 46.9093 35.7231C48.2939 35.7231 49.4478 36.8769 49.4478 38.2615V52.3385C49.4478 56.0769 46.4478 59.1231 42.7093 59.1231Z" fill="url(#paint1_linear)"/>
<path d="M30.4785 50.5846C32.4922 50.5846 34.1247 48.9522 34.1247 46.9385C34.1247 44.9248 32.4922 43.2923 30.4785 43.2923C28.4648 43.2923 26.8324 44.9248 26.8324 46.9385C26.8324 48.9522 28.4648 50.5846 30.4785 50.5846Z" fill="#1BA3DD"/>
<path d="M15.3401 33.6462H3.75544C1.95544 33.6462 0.478516 32.1692 0.478516 30.3692V18.7846C0.478516 16.9846 1.95544 15.5077 3.75544 15.5077H15.3401C17.1401 15.5077 18.617 16.9846 18.617 18.7846V30.3692C18.617 32.2154 17.1401 33.6462 15.3401 33.6462Z" fill="#1BA3DD"/>
<path d="M36.2478 33.6462H24.6631C22.8631 33.6462 21.3862 32.1692 21.3862 30.3692V18.7846C21.3862 16.9846 22.8631 15.5077 24.6631 15.5077H36.2478C38.0478 15.5077 39.5247 16.9846 39.5247 18.7846V30.3692C39.5247 32.2154 38.0939 33.6462 36.2478 33.6462Z" fill="#1BA3DD"/>
<path d="M57.2016 33.6462H45.5708C43.7708 33.6462 42.2939 32.1692 42.2939 30.3692V18.7846C42.2939 16.9846 43.7708 15.5077 45.5708 15.5077H57.1554C58.9554 15.5077 60.4324 16.9846 60.4324 18.7846V30.3692C60.4785 32.2154 59.0016 33.6462 57.2016 33.6462Z" fill="#1BA3DD"/>
</g>
<defs>
<linearGradient id="paint0_linear" x1="30.4687" y1="-4.9842" x2="30.4687" y2="12.6918" gradientUnits="userSpaceOnUse">
<stop offset="0.4" stop-color="#1BA3DD"/>
<stop offset="1" stop-color="#1BA3DD" stop-opacity="0"/>
</linearGradient>
<linearGradient id="paint1_linear" x1="30.225" y1="59.1018" x2="30.6462" y2="35.3049" gradientUnits="userSpaceOnUse">
<stop offset="0.4" stop-color="#1BA3DD"/>
<stop offset="1" stop-color="#1BA3DD" stop-opacity="0"/>
</linearGradient>
<clipPath id="clip0">
<rect width="60" height="59.1231" fill="white" transform="translate(0.478516)"/>
</clipPath>
</defs>
</svg>
