<svg width="60" height="34" viewBox="0 0 60 34" fill="none" xmlns="http://www.w3.org/2000/svg">
<g clip-path="url(#clip0)">
<path d="M30 33.3178C20.7944 33.3178 13.3177 25.8411 13.3177 16.6355C13.3177 7.42991 20.7944 0 30 0C39.2056 0 46.6822 7.47664 46.6822 16.6822C46.6822 25.8879 39.2056 33.3178 30 33.3178ZM30 5.14019C23.6449 5.14019 18.4579 10.3271 18.4579 16.6822C18.4579 23.0374 23.6449 28.2243 30 28.2243C36.3551 28.2243 41.5421 23.0374 41.5421 16.6822C41.5421 10.3271 36.3551 5.14019 30 5.14019Z" fill="#1BA3DD"/>
<path d="M48.5047 30.0467C48.1776 30.0467 47.8037 29.9533 47.5234 29.7664C46.6355 29.2056 46.4019 28.0841 46.9159 27.1963C48.8785 24.0654 49.9065 20.4206 49.9065 16.6822C49.9065 13.0374 48.9252 9.48598 47.0561 6.35514C46.542 5.46728 46.8224 4.34579 47.7103 3.78504C48.5981 3.27102 49.7196 3.5514 50.2804 4.43925C52.5233 8.13084 53.6916 12.3364 53.6916 16.6822C53.6916 21.1215 52.4766 25.4206 50.1402 29.1589C49.7196 29.7196 49.1121 30.0467 48.5047 30.0467Z" fill="url(#paint0_linear)"/>
<path d="M11.6355 30.2337C11.0281 30.2337 10.4206 29.9065 10.0468 29.3458C7.61685 25.5608 6.35516 21.1682 6.35516 16.6355C6.35516 12.1963 7.57012 7.8972 9.90657 4.15889C10.4673 3.27104 11.5888 2.99066 12.4767 3.55141C13.3645 4.11216 13.6449 5.23365 13.0841 6.1215C11.1215 9.25234 10.0935 12.8972 10.0935 16.5888C10.0935 20.3738 11.1682 24.1122 13.2243 27.2897C13.7851 28.1776 13.5047 29.2991 12.6636 29.8598C12.3365 30.1402 11.9626 30.2337 11.6355 30.2337Z" fill="url(#paint1_linear)"/>
<path d="M53.8317 33.4579C53.5046 33.4579 53.1308 33.3645 52.8504 33.1776C51.9626 32.6168 51.7289 31.4953 52.243 30.6075C54.8598 26.4486 56.2149 21.6355 56.2149 16.6822C56.2149 11.9159 54.9065 7.24298 52.4766 3.13083C51.9626 2.24298 52.243 1.07476 53.1308 0.560737C54.0187 0.0467183 55.1402 0.327092 55.7009 1.21494C58.5046 5.88784 60 11.2149 60 16.6822C60 22.3364 58.4112 27.8505 55.4205 32.6168C55.0934 33.1308 54.486 33.4579 53.8317 33.4579Z" fill="url(#paint2_linear)"/>
<path d="M6.30841 33.7383C5.70093 33.7383 5.09346 33.458 4.71963 32.8972C1.63551 28.0374 0 22.4299 0 16.6822C0 11.0748 1.54206 5.65421 4.43925 0.934582C5 0.0467315 6.1215 -0.233642 7.00935 0.327105C7.8972 0.887853 8.17757 2.00935 7.61682 2.8972C5.09346 7.00935 3.73832 11.7757 3.73832 16.6822C3.73832 21.729 5.18692 26.6355 7.8972 30.8411C8.45794 31.729 8.2243 32.8505 7.33645 33.4112C7.00935 33.6449 6.68224 33.7383 6.30841 33.7383Z" fill="url(#paint3_linear)"/>
</g>
<defs>
<linearGradient id="paint0_linear" x1="50.147" y1="1.61406" x2="50.147" y2="37.6451" gradientUnits="userSpaceOnUse">
<stop offset="0.4" stop-color="#1BA3DD"/>
<stop offset="1" stop-color="#1BA3DD" stop-opacity="0"/>
</linearGradient>
<linearGradient id="paint1_linear" x1="9.74362" y1="36.2579" x2="10.2209" y2="-0.489011" gradientUnits="userSpaceOnUse">
<stop offset="0.4" stop-color="#1BA3DD"/>
<stop offset="1" stop-color="#1BA3DD" stop-opacity="0"/>
</linearGradient>
<linearGradient id="paint2_linear" x1="55.9953" y1="1.61405" x2="55.9953" y2="37.6451" gradientUnits="userSpaceOnUse">
<stop offset="0.4" stop-color="#1BA3DD"/>
<stop offset="1" stop-color="#1BA3DD" stop-opacity="0"/>
</linearGradient>
<linearGradient id="paint3_linear" x1="3.93514" y1="36.1824" x2="4.41234" y2="-0.564437" gradientUnits="userSpaceOnUse">
<stop offset="0.4" stop-color="#1BA3DD"/>
<stop offset="1" stop-color="#1BA3DD" stop-opacity="0"/>
</linearGradient>
<clipPath id="clip0">
<rect width="60" height="33.7383" fill="white"/>
</clipPath>
</defs>
</svg>
