<svg width="60" height="61" viewBox="0 0 60 61" fill="none" xmlns="http://www.w3.org/2000/svg">
<path d="M32.4046 42.4809L17.1756 27.2519C15.9733 26.0496 15.9733 24.0458 17.1756 22.7863C18.3779 21.5267 20.3817 21.584 21.6412 22.7863L36.8702 38.0153C38.0725 39.2176 38.0725 41.2214 36.8702 42.4809C35.6107 43.7405 33.6069 43.7405 32.4046 42.4809Z" fill="url(#paint0_linear)"/>
<path d="M51.355 22.271L37.8435 8.7023C36.6412 7.50001 36.6412 5.49619 37.8435 4.23665C39.0458 3.03436 41.0496 3.03436 42.3092 4.23665L55.8779 17.8054C57.0802 19.0076 57.0802 21.0115 55.8779 22.271C54.6756 23.5305 52.6145 23.4733 51.355 22.271Z" fill="url(#paint1_linear)"/>
<path d="M32.5191 27.1374C29.8283 24.4466 29.8283 20.0954 32.5191 17.4046C35.2099 14.7137 39.5611 14.7137 42.2519 17.4046C44.9428 20.0954 44.9428 24.4466 42.2519 27.1374C39.5611 29.8282 35.2099 29.8282 32.5191 27.1374ZM39.3893 20.2099C38.2443 19.0649 36.4122 19.0649 35.3244 20.2099C34.1794 21.355 34.1794 23.187 35.3244 24.2748C36.4695 25.3626 38.3015 25.4198 39.3893 24.2748C40.5344 23.187 40.5344 21.355 39.3893 20.2099Z" fill="#1BA3DD"/>
<path d="M0.916033 59.1412C0.400766 58.626 0.0572542 57.9389 2.23797e-06 57.1947C2.23797e-06 56.8511 -0.687021 48.0916 7.44275 39.9618C8.64504 38.7595 10.6489 38.7595 11.9084 39.9618C13.1679 41.1641 13.1107 43.1679 11.9084 44.4275C8.58779 47.7481 7.21374 51.126 6.69848 53.4733C9.0458 52.958 12.3664 51.584 15.7443 48.2061C16.9466 47.0038 18.9504 47.0038 20.2099 48.2061C21.4695 49.4084 21.4122 51.4122 20.2099 52.6718C11.9084 60.9733 3.26336 60.1145 2.91985 60.0573C2.06107 60 1.4313 59.6565 0.916033 59.1412Z" fill="url(#paint2_linear)"/>
<path d="M24.3321 49.0649L10.9351 35.6679C9.96184 34.6947 9.73283 33.2634 10.3054 32.0611C15 22.5 28.855 0.229008 56.7939 0C58.5115 0 59.9428 1.37405 59.9428 3.0916C60.229 22.3282 49.1794 38.3588 27.9389 49.5801C26.7939 50.2672 25.3054 50.0382 24.3321 49.0649ZM17.0038 32.8626L27.0802 42.9389C39.1031 36.1259 52.3855 24.6183 53.5878 6.46946C32.9771 8.12977 21.6985 24.0458 17.0038 32.8626Z" fill="#1BA3DD"/>
<defs>
<linearGradient id="paint0_linear" x1="15.3026" y1="44.6418" x2="31.0133" y2="28.5176" gradientUnits="userSpaceOnUse">
<stop offset="0.4" stop-color="#1BA3DD"/>
<stop offset="1" stop-color="#1BA3DD" stop-opacity="0"/>
</linearGradient>
<linearGradient id="paint1_linear" x1="33.3532" y1="26.3126" x2="53.5084" y2="6.77745" gradientUnits="userSpaceOnUse">
<stop offset="0.4" stop-color="#1BA3DD"/>
<stop offset="1" stop-color="#1BA3DD" stop-opacity="0"/>
</linearGradient>
<linearGradient id="paint2_linear" x1="-7.36872" y1="67.4495" x2="20.1322" y2="39.9486" gradientUnits="userSpaceOnUse">
<stop offset="0.4" stop-color="#1BA3DD"/>
<stop offset="1" stop-color="#1BA3DD" stop-opacity="0"/>
</linearGradient>
</defs>
</svg>
