<svg width="60" height="56" viewBox="0 0 60 56" fill="none" xmlns="http://www.w3.org/2000/svg">
<path d="M54.0394 55.7143C50.7389 55.7143 48.0788 53.0542 48.0788 49.7537C48.0788 46.4532 50.7389 43.7931 54.0394 43.7931C57.3399 43.7931 60 46.4532 60 49.7537C60 53.0542 57.2906 55.7143 54.0394 55.7143ZM54.0394 46.2562C52.1182 46.2562 50.5418 47.8325 50.5418 49.7537C50.5418 51.6749 52.1182 53.2512 54.0394 53.2512C55.9606 53.2512 57.5369 51.6749 57.5369 49.7537C57.5369 47.8325 55.9606 46.2562 54.0394 46.2562Z" fill="#1BA3DD"/>
<path d="M6.69951 13.399C3.00493 13.399 0 10.3941 0 6.69951C0 3.00493 3.00493 0 6.69951 0C10.3941 0 13.399 3.00493 13.399 6.69951C13.399 10.3941 10.3941 13.399 6.69951 13.399ZM6.69951 2.46305C4.33498 2.46305 2.46305 4.33498 2.46305 6.69951C2.46305 9.06404 4.33498 10.936 6.69951 10.936C9.06404 10.936 10.936 9.06404 10.936 6.69951C10.936 4.33498 9.01478 2.46305 6.69951 2.46305Z" fill="#1BA3DD"/>
<path d="M9.80297 52.4138C6.94582 52.4138 4.63055 50.0985 4.63055 47.2414C4.63055 44.3842 6.94582 42.069 9.80297 42.069C12.6601 42.069 14.9754 44.3842 14.9754 47.2414C14.9754 50.0985 12.6108 52.4138 9.80297 52.4138ZM9.80297 44.532C8.32513 44.532 7.09361 45.7636 7.09361 47.2414C7.09361 48.7192 8.32513 49.9507 9.80297 49.9507C11.2808 49.9507 12.5123 48.7192 12.5123 47.2414C12.5123 45.7636 11.2808 44.532 9.80297 44.532Z" fill="#1BA3DD"/>
<path d="M51.8227 14.6305C49.3104 14.6305 47.2414 12.5616 47.2414 10.0493C47.2414 7.53694 49.3104 5.46797 51.8227 5.46797C54.335 5.46797 56.404 7.53694 56.404 10.0493C56.404 12.5616 54.335 14.6305 51.8227 14.6305ZM51.8227 7.98029C50.6404 7.98029 49.7044 8.91625 49.7044 10.0985C49.7044 11.2808 50.6404 12.2167 51.8227 12.2167C53.0049 12.2167 53.9409 11.2808 53.9409 10.0985C53.9409 8.91625 52.9557 7.98029 51.8227 7.98029Z" fill="#1BA3DD"/>
<path d="M46.7487 16.798V26.2561H41.33V19.5074C37.7832 19.1626 34.2857 17.5369 30.8374 14.6305C27.3891 17.5369 23.8916 19.2118 20.3448 19.5074V27.5369H6.69948C6.00983 27.5369 5.46796 26.9951 5.46796 26.3054V12.9557C5.46796 12.266 6.00983 11.7241 6.69948 11.7241C7.38914 11.7241 7.93101 12.266 7.93101 12.9557V25.0739H14.9261V16.798C14.9261 16.0098 15.2709 15.2709 15.8128 14.7783C16.4039 14.2857 17.1428 14.0394 17.931 14.0887C21.4778 14.4828 25.0739 12.8571 28.9162 9.01477C29.4088 8.52216 30.0985 8.22659 30.8374 8.22659C31.5763 8.22659 32.266 8.52216 32.7586 9.01477C36.601 12.8571 40.1478 14.4828 43.7438 14.0887C44.4827 13.9901 45.2709 14.2364 45.862 14.7783C46.4039 15.2709 46.7487 16.0098 46.7487 16.798Z" fill="url(#paint0_linear)"/>
<path d="M55.2709 28.9655V45.0739C55.2709 45.7635 54.729 46.3054 54.0394 46.3054C53.3497 46.3054 52.8079 45.7635 52.8079 45.0739V30.197H46.7488V33.0049C46.7488 37.931 44.2857 42.5616 40.197 45.3202L32.3645 50.6404C31.9212 50.936 31.3793 51.0837 30.8374 51.0837C30.2955 51.0837 29.8029 50.936 29.3103 50.6404L21.4778 45.2709C17.3891 42.5123 14.9261 37.8818 14.9261 32.9557V28.9655H20.3448V32.9557C20.3448 36.1084 21.9212 39.0148 24.4827 40.7882L30.8374 45.0739L37.1921 40.7882C39.8029 39.0148 41.33 36.1084 41.33 32.9557V27.734H54.0394C54.729 27.734 55.2709 28.2759 55.2709 28.9655Z" fill="url(#paint1_linear)"/>
<defs>
<linearGradient id="paint0_linear" x1="28.0884" y1="23.0149" x2="6.20391" y2="3.26857" gradientUnits="userSpaceOnUse">
<stop offset="0.4" stop-color="#1BA3DD"/>
<stop offset="1" stop-color="#1BA3DD" stop-opacity="0"/>
</linearGradient>
<linearGradient id="paint1_linear" x1="39.6964" y1="38.0836" x2="53.783" y2="50.4093" gradientUnits="userSpaceOnUse">
<stop offset="0.4" stop-color="#1BA3DD"/>
<stop offset="1" stop-color="#1BA3DD" stop-opacity="0"/>
</linearGradient>
</defs>
</svg>
