<svg width="96" height="91" viewBox="0 0 96 91" fill="none" xmlns="http://www.w3.org/2000/svg">
<path fill-rule="evenodd" clip-rule="evenodd" d="M40.3862 11.1269C41.1364 11.1269 41.7447 11.7352 41.7447 12.4854V13.1135H54.0321C55.1478 13.1135 56.0559 14.0276 56.0559 15.1513V17.3111H71.7329C72.458 17.3111 73.1133 17.6839 73.4841 18.3094C73.8563 18.9349 73.8708 19.6878 73.5246 20.3246L69.3563 27.8533L73.5199 35.3734C73.8695 36.0162 73.8556 36.7658 73.4874 37.386C73.1166 38.0095 72.4606 38.3816 71.7329 38.3816H50.0787C47.3278 38.3816 48.1696 34.786 48.041 34.1974H41.7447L41.7442 40.4787C41.7428 41.5116 41.7395 42.2817 41.7325 42.4313L50.6881 55.1442L60.0246 42.7403C60.153 42.5697 60.318 42.4344 60.5041 42.3417C60.6911 42.2475 60.899 42.1957 61.1138 42.1957L61.2954 42.2078C61.6529 42.2558 61.9796 42.4448 62.1996 42.737C71.7263 55.4089 76.0036 61.0984 77.8546 63.5605L78.0211 63.782C78.0743 63.8527 78.1252 63.9204 78.1739 63.9852L78.3135 64.1709C78.5799 64.5253 78.7703 64.7786 78.9033 64.9555C78.8998 64.9508 78.9228 64.9815 78.9786 65.0557L78.9754 65.0519L78.9877 65.0677L79.0007 65.085L78.9889 65.0684L79.0264 65.1194L79.0299 65.1238L79.0641 65.1694C79.0798 65.1902 79.0884 65.2017 79.1006 65.2179L79.0969 65.2139L79.1187 65.2419L79.1316 65.2591C79.1353 65.264 79.1389 65.2688 79.1423 65.2734L79.1607 65.2978L79.1769 65.3193C79.354 65.5548 79.4494 65.8413 79.4494 66.1358V77.6962C79.4494 78.4464 78.8412 79.0547 78.0909 79.0547H12.8834C12.1332 79.0547 11.5249 78.4464 11.5249 77.6962V41.3294C11.5249 41.0488 11.6118 40.7755 11.773 40.5467L24.9772 21.8005C25.4899 21.0748 26.6932 21.0741 27.2026 21.7965C27.2037 21.798 27.2047 21.7994 27.2056 21.8008C27.2123 21.8102 27.2132 21.8115 27.2142 21.8129L27.2236 21.8263L27.2316 21.8377L27.2418 21.8521C27.403 22.0811 28.4155 23.5192 39.0277 38.5917V12.4854C39.0277 11.7352 39.636 11.1269 40.3862 11.1269ZM53.6444 55.7343L52.332 57.4778L65.6179 76.3377H76.7325V66.5895L68.569 55.7354L68.147 56.1574C66.5138 57.8112 63.8236 57.8225 62.1725 56.1521C61.6272 55.6068 60.6063 55.6015 60.0505 56.1574C58.4382 57.7697 55.6709 57.7596 54.068 56.1581L53.6444 55.7343ZM28.0722 39.7932C27.0421 38.763 25.1523 38.7537 24.1049 39.8011C22.0605 41.8785 18.4108 41.9375 16.2743 39.8011L15.8915 39.4181L14.2419 41.7599V76.3377H62.2938L61.9229 75.8111C57.7685 69.9137 56.7629 68.4881 55.7091 66.9937L55.5418 66.7565C53.8558 64.3656 51.63 61.2074 36.2795 39.4079L35.8789 39.8051C33.762 41.9575 30.2402 41.9971 28.0722 39.7932ZM61.1111 45.8195L55.3011 53.5485L55.989 54.2364C56.5627 54.8102 57.5438 54.8142 58.1109 54.2417C59.6773 52.653 62.4116 52.5463 64.0994 54.2371C65.4194 55.5723 66.7759 53.6242 66.9198 53.5427L61.1111 45.8195ZM26.0897 24.9425L17.4822 37.167L18.1953 37.8801C19.2705 38.954 21.102 38.9567 22.1666 37.8841C24.2098 35.81 27.7867 35.6643 30.0012 37.8801C31.0658 38.962 32.9039 38.9554 33.9539 37.8881L34.693 37.1556L26.0897 24.9425ZM70.5834 20.0281H56.0559V32.1735C56.0559 33.2893 55.1478 34.1973 54.0321 34.1974H50.7579V35.6646H70.5755L66.7952 28.837C66.4629 28.2142 66.4629 27.4925 66.7859 26.8875L70.5834 20.0281ZM53.339 15.8305H41.7513V31.4804H53.339V15.8305Z" fill="black"/>
<circle opacity="0.2" cx="78.9963" cy="72.5608" r="16.4905" fill="#1BA3DD"/>
</svg>
