<svg width="79" height="69" viewBox="0 0 79 69" fill="none" xmlns="http://www.w3.org/2000/svg">
<path fill-rule="evenodd" clip-rule="evenodd" d="M61.9423 41.0499L56.2087 43.5063C54.4506 37.6004 49.2613 33.3368 43.0939 32.7898V28.6227C45.3414 28.3845 49.9068 27.5092 53.1353 24.2797C57.4775 19.9382 57.5663 13.1736 57.5683 12.8877C57.5703 12.5249 57.427 12.176 57.1703 11.9193C56.913 11.6626 56.5747 11.4901 56.2019 11.5213C55.916 11.5233 49.1521 11.6122 44.8099 15.9536C44.1376 16.6258 43.5777 17.3592 43.0939 18.1147V16.0916C43.0987 16.0451 43.1211 16.0047 43.1211 15.957C43.1211 15.8759 43.1077 15.7981 43.0939 15.7207V1.48186C43.0939 0.731634 42.4856 0.12337 41.7354 0.12337C40.9852 0.12337 40.3769 0.731634 40.3769 1.48186V6.70962C39.894 5.95658 39.3312 5.22668 38.6609 4.55638C34.3194 0.214253 27.5542 0.125367 27.2683 0.123383C26.9326 0.0815961 26.5565 0.264666 26.2998 0.52138C26.0431 0.778094 25.8999 1.12699 25.9018 1.48983C25.9038 1.77573 25.9934 8.54098 30.3348 12.8824C33.5638 16.1114 38.1294 16.9871 40.3769 17.2253V32.7954C34.6229 33.3179 29.6447 37.1054 27.5967 42.5005C26.2063 41.8797 24.9408 40.9773 23.8953 39.8307C23.8701 39.8028 23.8435 39.7763 23.8157 39.7504C21.1962 36.922 17.4942 35.3022 13.6396 35.3022H12.3083V35.2684C12.3083 33.5212 10.8868 32.0997 9.1396 32.0997H4.16334C2.41614 32.0997 0.994629 33.5212 0.994629 35.2684V60.4183C0.994629 62.1655 2.41614 63.5877 4.16334 63.5877H9.13961C10.5456 63.5877 11.7267 62.6605 12.1398 61.3904L29.8453 67.3249C31.2721 67.8038 32.758 68.0466 34.2617 68.0466C36.9296 68.0466 39.5252 67.2838 41.7666 65.839L66.6161 49.8542C68.73 48.5046 69.4572 45.8607 68.5126 43.6807C67.4254 41.1354 64.4798 39.9647 61.9423 41.0499ZM46.7309 17.8746C49.174 15.4323 52.734 14.6296 54.7267 14.3663C54.4673 16.3543 53.6686 19.9037 51.2143 22.3587C48.7713 24.8017 45.2112 25.6043 43.2186 25.8677C43.478 23.879 44.2766 20.3296 46.7309 17.8746ZM32.2558 10.9614C29.8135 8.51841 29.0102 4.95768 28.7468 2.96505C30.7355 3.22441 34.2849 4.02305 36.7399 6.47736C39.1829 8.92038 39.9856 12.4811 40.2489 14.4737C38.2603 14.2144 34.7108 13.4157 32.2558 10.9614ZM41.7434 35.4468C47.3853 35.4468 52.252 39.2288 53.6992 44.5814L52.1556 45.2428C51.2774 44.1383 49.9368 43.473 48.4682 43.473H32.1384C31.4861 43.473 30.8421 43.4022 30.2076 43.2899C32.0651 38.6122 36.6209 35.4468 41.7434 35.4468ZM9.59133 60.4183C9.59133 60.6677 9.38835 60.8707 9.1396 60.8707H4.16334C3.91458 60.8707 3.71161 60.6677 3.71161 60.4183V35.2683C3.71161 35.0189 3.91458 34.8166 4.16334 34.8166H9.13961C9.38836 34.8166 9.59133 35.0189 9.59133 35.2683C9.59133 39.2883 9.59133 53.9291 9.59133 60.4183ZM65.1501 47.567L40.296 63.5545C37.4769 65.3694 33.8956 65.8204 30.7096 64.7485L12.3083 58.5809V38.0191H13.6396C16.7678 38.0191 19.772 39.3465 21.8814 41.6615C21.9073 41.6893 21.9338 41.7159 21.9617 41.7417C24.6414 44.6346 28.4305 46.19 32.1384 46.19H48.4682C49.6049 46.19 50.4721 47.1196 50.4721 48.1932C50.4721 49.2546 49.6151 50.1978 48.4682 50.1978H34.206C33.4558 50.1978 32.8475 50.8054 32.8475 51.5563C32.8475 52.3072 33.4558 52.9148 34.206 52.9148H48.4682C51.12 52.9148 53.1891 50.7549 53.1891 48.1932C53.1891 48.0511 53.162 47.913 53.1494 47.7726L63.0116 43.5473C64.1512 43.0631 65.5336 43.6229 66.0171 44.7545C66.4544 45.7662 66.0998 46.96 65.1501 47.567Z" fill="black"/>
<circle opacity="0.2" cx="62.4226" cy="24.2156" r="16.4905" fill="#1BA3DD"/>
</svg>
