<svg width="93" height="91" viewBox="0 0 93 91" fill="none" xmlns="http://www.w3.org/2000/svg">
<path fill-rule="evenodd" clip-rule="evenodd" d="M23.9518 35.0701C25.2478 33.0541 27.8398 32.6221 30.1438 33.6301L32.4478 35.2141C33.8878 36.2221 34.4638 37.8061 34.3198 39.3901H35.9038C39.2158 39.2461 41.5198 40.6861 42.9598 41.6941C42.9958 41.7301 43.0408 41.7661 43.0903 41.8021L43.4053 42.0181L43.5358 42.1261C44.6878 41.8381 46.9918 41.2621 48.2878 40.9741L48.423 40.9704C49.6086 40.9049 50.0003 40.0072 53.4718 41.1181C55.1998 41.6941 57.2158 42.2701 60.0958 41.2621L63.4078 40.1101C62.8318 38.0941 63.6958 35.9341 65.5678 34.9261L68.0158 33.6301C70.0318 32.6221 72.6238 33.3421 73.7758 35.5021L82.1278 51.6301C83.2798 53.6461 82.4158 56.2381 80.2558 57.3901L77.8078 58.6861C77.0878 58.9741 76.5118 59.1181 75.7918 59.1181C74.3518 59.1181 73.0558 58.2541 72.1918 57.1021L69.5998 57.9661L64.2718 62.2861C64.5598 63.5821 64.2718 65.1661 63.2638 66.1741C62.5438 66.8941 61.5358 67.3261 60.5278 67.4701C60.5278 68.4781 60.0958 69.4861 59.3758 70.3501C58.6558 71.0701 57.6478 71.5021 56.6398 71.6461C56.6398 72.6541 56.2078 73.6621 55.4878 74.5261C54.7678 75.2461 53.7598 75.6781 52.7518 75.8221C52.7518 76.8301 52.3198 77.8381 51.5998 78.7021C50.0158 80.4301 47.4238 80.8621 44.9758 78.5581C44.6878 78.4141 44.5438 78.1261 44.1118 77.8381L43.9573 77.9815C43.518 78.3608 42.8638 78.7021 42.0958 78.7021C41.6638 78.7021 40.9438 78.5581 40.2238 77.9821L40.0798 77.8381C39.9358 77.5501 39.5038 77.2621 39.2158 76.9741C38.3518 76.2541 37.4878 75.5341 37.1998 74.5261C36.4798 74.5261 35.7598 74.0941 35.0398 73.5181L34.8981 73.3757C34.4393 72.9104 33.7006 72.1069 33.3118 71.0701H33.0238C32.1598 71.0701 31.2958 70.7821 30.5758 70.0621L30.4728 69.9895C29.9836 69.6286 28.9712 68.6735 28.7038 67.4701C27.8398 67.4701 27.1198 67.0381 26.3998 66.4621L26.1118 66.1741C25.5358 65.5981 24.2398 64.4461 24.0958 62.8621C24.0958 62.1421 24.2398 61.2781 25.1038 60.2701L25.2478 60.1261L23.6638 58.8301C23.2318 58.5421 22.9438 58.1101 22.6558 57.6781C21.0718 58.8301 19.1998 58.8301 17.7598 57.8221L15.4558 56.3821C13.4398 55.0861 12.8638 52.3501 14.1598 50.3341L23.9518 35.0701ZM35.9038 42.2701L32.8798 42.4141L24.8158 55.0861C25.1038 55.6621 25.3918 56.0941 25.8238 56.5261L27.5518 57.9661C28.4158 57.2461 29.4238 56.6701 30.5758 56.6701C32.0158 56.6701 33.5998 57.5341 34.4638 59.5501C34.8958 59.4061 35.3278 59.2621 35.7598 59.2621C36.6238 59.2621 38.0638 59.6941 38.7838 60.4141L38.9908 60.6388C39.7168 61.4931 40.0798 62.6701 40.0798 63.7261C40.9438 63.8701 41.6638 64.1581 42.3838 64.8781C42.5278 65.0221 42.6718 65.0221 42.6718 65.1661C44.1118 67.0381 43.9678 68.4781 43.5358 69.6301C43.9678 69.9181 44.5438 70.2061 44.9758 70.6381C46.2718 71.9341 46.5598 73.8061 45.9838 75.3901L46.1177 75.5236C46.5157 75.9191 47.6089 76.9947 47.8558 77.1181C48.4318 77.4061 49.1518 77.2621 49.5838 76.8301C50.0158 76.2541 50.0158 75.3901 49.4398 74.8141L46.4158 72.0781C45.8398 71.5021 45.6958 70.6381 46.2718 70.0621C46.7038 69.4861 47.4238 69.4861 47.9998 69.7741C48.1438 69.7741 48.4318 69.9181 48.5758 70.0621L51.3118 72.5101C51.8878 72.9421 52.7518 72.9421 53.3278 72.3661C53.9038 71.7901 53.9038 70.9261 53.3278 70.3501L49.5838 66.7501L49.4634 66.6123C49.0316 66.0429 49.185 65.2658 49.5838 64.7341L49.7215 64.6138C50.291 64.182 51.0681 64.3353 51.5998 64.7341L55.3438 68.3341L55.5001 68.4466C56.185 68.8873 56.9586 68.725 57.3598 68.1901C57.7918 67.6141 57.7918 66.7501 57.2158 66.1741L52.8958 62.4301C52.3198 61.9981 52.1758 60.9901 52.7518 60.4141C53.1838 59.8381 54.1918 59.6941 54.7678 60.2701L59.0878 64.0141L59.2335 64.1467C59.9211 64.713 60.7006 64.5517 61.1038 64.0141C61.5358 63.4381 61.5358 62.5741 60.9598 61.9981L60.8158 61.8541L60.7826 61.8289C60.154 61.347 57.7839 59.2726 49.5838 52.0621C49.2958 51.7741 48.7198 51.6301 48.1438 51.7741L42.0958 53.0701L41.9404 53.1308C41.6638 53.2141 41.3038 53.2141 40.9438 53.2141C38.4958 53.2141 36.4798 51.6301 35.9038 49.3261C35.1838 46.5901 36.7678 43.7101 39.5038 42.9901C38.4958 42.5581 37.3438 42.2701 35.9038 42.2701ZM42.0051 72.2227L41.9518 72.2221C41.3758 72.2221 40.5118 73.2301 40.0798 73.6621C40.2238 73.9501 40.7998 74.3821 41.0878 74.6701L42.0958 75.6781C42.1678 75.6061 42.2398 75.5251 42.3118 75.4396L42.7438 74.9086L42.9598 74.6701L43.0587 74.5232C43.3878 73.9741 43.3438 73.3141 42.8158 72.6541C42.3838 72.2221 42.0958 72.2221 41.9518 72.2221L42.0051 72.2227ZM39.2703 66.6067L39.2158 66.6061C38.2078 66.6061 37.0558 68.3341 35.9038 69.4861C35.7598 69.6301 35.7598 69.7741 35.7598 69.9181C35.9038 70.2061 36.1918 70.6381 36.7678 71.2141C36.9118 71.2141 36.9118 71.2141 37.0558 71.3581C37.1998 71.5021 37.3438 71.6461 37.4878 71.6461C38.3518 71.6461 39.6478 69.6301 40.0798 68.9101C40.5118 68.3341 40.6558 67.9021 39.9358 66.8941L39.7867 66.799C39.4678 66.6061 39.3418 66.6061 39.2158 66.6061L39.2703 66.6067ZM35.1838 62.1421C35.0398 62.1421 34.7518 62.1421 34.3198 62.5741C34.1758 62.7181 31.4398 65.7421 31.2958 65.8861C31.2958 65.9221 31.2868 65.9581 31.2733 65.9941L31.1743 66.2101L31.1518 66.3181C31.1518 66.6061 31.4398 66.8941 32.1598 67.6141L32.4478 67.9021C32.5918 68.0461 32.7358 68.1901 32.8798 68.1901C33.7438 68.1901 35.3278 65.7421 36.3358 64.5901C36.7678 64.0141 36.7678 63.1501 36.1918 62.5741L36.1248 62.5142C35.9398 62.3626 35.5618 62.1421 35.1838 62.1421ZM30.71 59.8579C29.7909 59.1988 28.9314 60.0657 28.1313 61.0049L27.8668 61.3186C27.5608 61.6831 27.2638 62.0341 26.9758 62.2861C26.9758 62.3221 26.9668 62.3581 26.9533 62.3941L26.8543 62.6101L26.8318 62.7181C26.8318 63.1501 28.4158 64.4461 28.5598 64.4461C28.8478 64.4461 29.1358 64.1581 29.4238 63.8701L29.4708 63.8229C29.7713 63.5213 31.1422 62.1325 31.0078 61.9981C31.4398 61.4221 31.5838 60.9901 30.8638 59.9821L30.71 59.8579ZM64.7038 42.4141L61.2478 43.9981C57.9358 45.1501 55.6318 44.8621 52.6078 43.8541C50.5918 43.2781 51.1678 43.2781 47.8558 44.1421H47.7118L47.1544 44.2825C45.5498 44.689 43.7935 45.1501 43.5358 45.1501L40.2238 45.7261C38.9278 46.0141 38.2078 47.3101 38.4958 48.6061C38.7838 49.9021 40.0798 50.6221 41.3758 50.3341L47.4238 49.0381C48.8638 48.6061 50.3038 49.0381 51.4558 49.9021C55.8375 53.6667 56.0932 53.7548 55.9974 53.5898L55.9708 53.5488C55.9643 53.5394 55.9576 53.53 55.9513 53.5211L55.9338 53.4963C55.9312 53.4926 55.9288 53.4891 55.9268 53.4859L55.9181 53.4707C55.9153 53.4636 55.9189 53.463 55.9331 53.4726L55.9628 53.4953C56.1948 53.6831 57.4468 54.8519 62.6878 59.6941L68.0158 55.5181C68.1598 55.3741 68.3038 55.2301 68.4478 55.2301L70.8958 54.3661L64.7038 42.4141ZM71.1838 36.3661C70.8958 35.6461 70.0318 35.3581 69.3118 35.7901L66.8638 37.0861C65.2798 37.9501 66.5758 39.6781 66.5758 39.8221L74.6398 55.2301C74.9278 55.8061 75.7918 56.0941 76.5118 55.8061L78.9598 54.5101C79.6798 54.0781 79.9678 53.2141 79.5358 52.4941L71.1838 36.3661ZM28.4158 36.2221C27.6958 35.7901 26.8318 35.9341 26.3998 36.6541L16.6078 51.9181C16.1758 52.6381 16.3198 53.5021 17.0398 53.9341L19.3438 55.5181C20.0638 55.9501 20.9278 55.6621 21.3598 55.0861L31.1518 39.8221C31.5838 39.1021 31.4398 38.2381 30.7198 37.8061L28.4158 36.2221ZM48.7198 11.0221C56.0638 11.0221 61.9678 16.9261 61.9678 24.2701C61.9678 31.6141 56.0638 37.5181 48.7198 37.5181C41.3758 37.5181 35.4718 31.6141 35.4718 24.2701C35.4718 16.9261 41.3758 11.0221 48.7198 11.0221ZM48.7198 13.9021C42.9598 13.9021 38.3518 18.5101 38.3518 24.2701C38.3518 30.0301 42.9598 34.6381 48.7198 34.6381C54.4798 34.6381 59.0878 30.0301 59.0878 24.2701C59.0878 18.5101 54.4798 13.9021 48.7198 13.9021ZM54.9118 18.5101C55.4878 17.9341 56.3518 17.9341 56.9278 18.5101C57.5038 19.0861 57.5038 19.9501 56.9278 20.5261L47.2798 30.1741C46.9918 30.4621 46.7038 30.6061 46.2718 30.6061C45.8398 30.6061 45.5518 30.4621 45.2638 30.1741L40.5118 25.4221C39.9358 24.8461 39.9358 23.9821 40.5118 23.4061C41.0878 22.8301 41.9518 22.8301 42.5278 23.4061L46.2718 27.1501L54.9118 18.5101Z" fill="black"/>
<circle opacity="0.2" cx="16.9778" cy="45.5827" r="16.4905" fill="#1BA3DD"/>
</svg>
