<svg width="68" height="80" viewBox="0 0 68 80" fill="none" xmlns="http://www.w3.org/2000/svg">
<path fill-rule="evenodd" clip-rule="evenodd" d="M33.9999 0.130371L34.1817 0.142538C34.5398 0.190843 34.8669 0.380826 35.0864 0.673631L41.5538 9.2962C41.8211 9.54429 41.9883 9.8985 41.9883 10.2919C41.9883 11.0467 41.3754 11.6835 40.6159 11.6503H38.9045V25.3316C40.401 25.6781 41.8511 26.1694 43.2373 26.822V16.5682C43.2373 13.8638 45.4316 11.6643 48.128 11.6643H56.2113V10.9167C56.2113 9.69882 57.1977 8.70848 58.4096 8.70848C58.8998 8.70848 59.3688 8.86833 59.7654 9.17081L67.1071 14.8263C67.653 15.2529 67.9621 15.8857 67.9621 16.5682C67.9621 17.2508 67.653 17.8836 67.1144 18.3048L59.7727 23.9743C59.3707 24.2801 58.9044 24.4386 58.4175 24.4386C57.201 24.4386 56.2113 23.4436 56.2113 22.2198V21.4589H53.0327V36.0823C54.7431 39.2302 55.6541 42.7868 55.6541 46.4006C55.6541 59.2946 44.389 69.2723 31.7058 67.9302C20.8533 66.7902 12.3456 57.5338 12.3456 46.4006C12.3456 42.8022 13.2515 39.2553 14.9538 36.1112V21.4589H11.7884V22.2198C11.7884 23.4429 10.7961 24.4386 9.57623 24.4386C9.08338 24.4386 8.61507 24.2767 8.22238 23.9696L0.891966 18.3095C0.347375 17.8843 0.0375977 17.2508 0.0375977 16.5682C0.0375977 15.8857 0.347374 15.2522 0.886654 14.8316L8.22898 9.17547C8.61704 8.87167 9.088 8.70849 9.58416 8.70849C10.7994 8.70849 11.7884 9.69884 11.7884 10.9167V11.6643H19.8717C22.5681 11.6643 24.7624 13.8638 24.7624 16.5682V26.8223C26.1496 26.1691 27.5998 25.6779 29.0959 25.3317V11.6503H27.3839C26.8691 11.6503 26.3982 11.3591 26.1686 10.8988C25.9385 10.4384 25.9889 9.88721 26.298 9.47596L32.914 0.672966C33.1707 0.33136 33.5727 0.130371 33.9999 0.130371ZM33.9959 52.7626C28.5769 52.7626 23.5487 55.0738 20.0294 59.1403C23.824 63.2956 28.8957 65.3379 33.9999 65.3379C39.2117 65.3379 44.2514 63.2135 47.9668 59.1442C44.4474 55.075 39.4174 52.7626 33.9959 52.7626ZM35.6564 27.5368C24.5106 26.5581 15.0626 35.3574 15.0626 46.4006C15.0626 50.3291 16.2663 53.9809 18.3223 57.0096C22.3392 52.5764 27.9466 50.0456 33.9959 50.0456C40.0477 50.0456 45.6569 52.5782 49.674 57.0142C51.7321 53.9846 52.9371 50.3311 52.9371 46.4006C52.9371 36.2924 45.0731 28.3677 35.6564 27.5368ZM34.0005 30.4311C39.0219 30.4311 43.1067 34.5158 43.1067 39.5372C43.1067 44.5586 39.0219 48.6433 34.0005 48.6433C28.9792 48.6433 24.8944 44.5586 24.8944 39.5372C24.8944 34.5158 28.9792 30.4311 34.0005 30.4311ZM34.0005 33.148C30.4776 33.148 27.6114 36.0143 27.6114 39.5372C27.6114 43.0601 30.4776 45.9264 34.0005 45.9264C37.5235 45.9264 40.3897 43.0601 40.3897 39.5372C40.3897 36.0143 37.5235 33.148 34.0005 33.148ZM9.07143 11.9561L3.08359 16.5689L9.07143 21.1929V20.1004C9.07143 19.3502 9.67969 18.7419 10.4299 18.7419H16.3123C17.0625 18.7419 17.6708 19.3502 17.6708 20.1004V32.1756C18.8916 30.7727 20.5697 29.3141 22.0454 28.3356V16.5682C22.0454 15.3623 21.0703 14.3812 19.8717 14.3812H10.4299C9.67969 14.3812 9.07143 13.773 9.07143 13.0228V11.9561ZM58.9283 11.9555V13.0228C58.9283 13.773 58.32 14.3812 57.5698 14.3812H48.128C46.9294 14.3812 45.9543 15.3623 45.9543 16.5682V28.337C47.3918 29.293 49.0632 30.7292 50.3157 32.1624V20.1004C50.3157 19.3502 50.924 18.7419 51.6742 18.7419H57.5698C58.32 18.7419 58.9283 19.3502 58.9283 20.1004V21.1936L64.9168 16.5689L58.9283 11.9555ZM33.9985 3.75145L30.1042 8.93336H30.4544C31.2046 8.93336 31.8129 9.54163 31.8129 10.2919V24.8578C32.9264 24.7441 34.6032 24.6977 36.1875 24.8578V10.2918C36.1875 9.54161 36.7958 8.93335 37.546 8.93335H37.8856L33.9985 3.75145Z" fill="black"/>
<circle opacity="0.2" cx="19.0002" cy="62.6003" r="16.4905" fill="#1BA3DD"/>
</svg>
