<svg width="58" height="50" viewBox="0 0 58 50" fill="none" xmlns="http://www.w3.org/2000/svg">
<path d="M6.28786 50C5.74581 50 5.25796 49.8416 4.77011 49.5776C3.36076 48.7328 2.87291 46.9905 3.7402 45.6177L6.45048 41.2355C7.31777 39.8627 9.10655 39.3875 10.5159 40.2323C11.9252 41.0771 12.4131 42.8194 11.5458 44.1922L8.83553 48.5744C8.29347 49.5248 7.31777 50 6.28786 50Z" fill="url(#paint0_linear)"/>
<path d="M19.243 28.9862C18.1589 28.9862 17.1832 28.4054 16.6411 27.5079C16.099 26.6103 16.099 25.5015 16.6953 24.6039L30.843 1.42549C31.656 0.0527372 33.499 -0.369649 34.9084 0.422325C36.3177 1.2143 36.8056 2.95664 36.0467 4.3294C32.5233 10.4012 28.8916 16.209 25.3682 21.8584C24.1757 23.7592 22.9832 25.6599 21.7906 27.5607C21.2486 28.4054 20.2729 28.9862 19.243 28.9862Z" fill="url(#paint1_linear)"/>
<path d="M51.5496 50C50.5197 50 49.544 49.472 49.0019 48.5744L21.8991 4.38222C21.0318 3.00947 21.5197 1.21432 22.929 0.42235C24.3384 -0.422423 26.1814 0.0527615 26.9945 1.42552L54.0973 45.6177C54.9646 46.9905 54.4767 48.7856 53.0674 49.5776C52.5795 49.8944 52.0917 50 51.5496 50Z" fill="url(#paint2_linear)"/>
<path d="M55.0187 37.3284H2.98131C1.35514 37.3284 0 36.0085 0 34.4245C0 32.8406 1.35514 31.5206 2.98131 31.5206H55.0187C56.6449 31.5206 58 32.8406 58 34.4245C58 36.0085 56.6449 37.3284 55.0187 37.3284Z" fill="white"/>
<defs>
<linearGradient id="paint0_linear" x1="2.0195" y1="53.9465" x2="10.2745" y2="40.0037" gradientUnits="userSpaceOnUse">
<stop stop-color="white"/>
<stop offset="0.5811" stop-color="#F9FAFA" stop-opacity="0.4189"/>
<stop offset="1" stop-color="#F1F2F2" stop-opacity="0"/>
</linearGradient>
<linearGradient id="paint1_linear" x1="39.1737" y1="-5.97277" x2="16.8488" y2="31.4995" gradientUnits="userSpaceOnUse">
<stop stop-color="white"/>
<stop offset="0.5811" stop-color="#F9FAFA" stop-opacity="0.4189"/>
<stop offset="1" stop-color="#F1F2F2" stop-opacity="0"/>
</linearGradient>
<linearGradient id="paint2_linear" x1="26.9244" y1="6.25704" x2="54.5876" y2="55.6849" gradientUnits="userSpaceOnUse">
<stop stop-color="white"/>
<stop offset="0.5811" stop-color="#F9FAFA" stop-opacity="0.4189"/>
<stop offset="1" stop-color="#F1F2F2" stop-opacity="0"/>
</linearGradient>
</defs>
</svg>
