<svg width="58" height="51" viewBox="0 0 58 51" fill="none" xmlns="http://www.w3.org/2000/svg">
<g clip-path="url(#clip0)">
<path d="M6.28786 50.5279C5.74581 50.5279 5.25796 50.3695 4.77011 50.1055C3.36076 49.2608 2.87291 47.5184 3.7402 46.1457L6.45048 41.7634C7.31777 40.3907 9.10655 39.9155 10.5159 40.7602C11.9252 41.605 12.4131 43.3474 11.5458 44.7201L8.83552 49.1024C8.29347 50.0527 7.31777 50.5279 6.28786 50.5279Z" fill="url(#paint0_linear)"/>
<path d="M19.243 29.5139C18.1589 29.5139 17.1832 28.9331 16.6411 28.0356C16.099 27.138 16.099 26.0292 16.6953 25.1317L30.843 1.9532C31.6561 0.580447 33.499 0.158061 34.9084 0.950035C36.3177 1.74201 36.8056 3.48435 36.0467 4.85711C32.5233 10.9289 28.8916 16.7367 25.3682 22.3861C24.1757 24.2869 22.9832 26.1876 21.7906 28.0884C21.2486 28.9331 20.2729 29.5139 19.243 29.5139Z" fill="url(#paint1_linear)"/>
<path d="M51.5495 50.528C50.5196 50.528 49.5439 50.0001 49.0019 49.1025L21.8991 4.9103C21.0318 3.53754 21.5196 1.7424 22.929 0.950426C24.3383 0.105653 26.1813 0.580838 26.9944 1.95359L54.0972 46.1458C54.9645 47.5185 54.4766 49.3137 53.0673 50.1057C52.5794 50.4225 52.0916 50.528 51.5495 50.528Z" fill="url(#paint2_linear)"/>
<path d="M55.0187 37.8563H2.98131C1.35514 37.8563 0 36.5363 0 34.9524C0 33.3684 1.35514 32.0485 2.98131 32.0485H55.0187C56.6449 32.0485 58 33.3684 58 34.9524C58 36.5363 56.6449 37.8563 55.0187 37.8563Z" fill="white"/>
</g>
<defs>
<linearGradient id="paint0_linear" x1="2.0195" y1="54.4745" x2="10.2745" y2="40.5317" gradientUnits="userSpaceOnUse">
<stop stop-color="white"/>
<stop offset="0.1377" stop-color="#FBFBFB"/>
<stop offset="0.2692" stop-color="#F0F0F0"/>
<stop offset="0.3983" stop-color="#DCDCDC"/>
<stop offset="0.5259" stop-color="#C1C1C1"/>
<stop offset="0.6524" stop-color="#9E9E9E"/>
<stop offset="0.7781" stop-color="#747474"/>
<stop offset="0.9008" stop-color="#424242"/>
<stop offset="0.9888" stop-color="#1A1A1A"/>
</linearGradient>
<linearGradient id="paint1_linear" x1="39.1737" y1="-5.44506" x2="16.8488" y2="32.0272" gradientUnits="userSpaceOnUse">
<stop stop-color="white"/>
<stop offset="0.1377" stop-color="#FBFBFB"/>
<stop offset="0.2692" stop-color="#F0F0F0"/>
<stop offset="0.3983" stop-color="#DCDCDC"/>
<stop offset="0.5259" stop-color="#C1C1C1"/>
<stop offset="0.6524" stop-color="#9E9E9E"/>
<stop offset="0.7781" stop-color="#747474"/>
<stop offset="0.9008" stop-color="#424242"/>
<stop offset="0.9888" stop-color="#1A1A1A"/>
</linearGradient>
<linearGradient id="paint2_linear" x1="26.9244" y1="6.78511" x2="54.5876" y2="56.213" gradientUnits="userSpaceOnUse">
<stop stop-color="white"/>
<stop offset="0.1377" stop-color="#FBFBFB"/>
<stop offset="0.2692" stop-color="#F0F0F0"/>
<stop offset="0.3983" stop-color="#DCDCDC"/>
<stop offset="0.5259" stop-color="#C1C1C1"/>
<stop offset="0.6524" stop-color="#9E9E9E"/>
<stop offset="0.7781" stop-color="#747474"/>
<stop offset="0.9008" stop-color="#424242"/>
<stop offset="0.9888" stop-color="#1A1A1A"/>
</linearGradient>
<clipPath id="clip0">
<rect width="58" height="50" fill="white" transform="translate(0 0.527832)"/>
</clipPath>
</defs>
</svg>
