<svg width="38" height="50" viewBox="0 0 38 50" fill="none" xmlns="http://www.w3.org/2000/svg">
<g clip-path="url(#clip0)">
<path d="M24.6127 9.68663C24.1138 9.68663 23.6149 9.52175 23.1576 9.19199C22.1598 8.40881 22.0351 6.9661 22.825 6.01804L27.0657 0.824305C27.8556 -0.164978 29.3108 -0.288638 30.267 0.494544C31.2648 1.27773 31.3895 2.72043 30.5996 3.66849L26.4005 8.82101C25.9432 9.39809 25.2779 9.68663 24.6127 9.68663Z" fill="url(#paint0_linear)"/>
<path d="M13.3873 9.68667C12.7221 9.68667 12.0569 9.39813 11.5996 8.86227L7.40044 3.70975C6.6105 2.72047 6.73523 1.31899 7.73304 0.535804C8.73085 -0.247378 10.1444 -0.123718 10.9344 0.865565L15.1335 6.01808C15.9234 7.00736 15.7987 8.40884 14.8009 9.19203C14.3851 9.52179 13.8862 9.68667 13.3873 9.68667Z" fill="url(#paint1_linear)"/>
<path d="M2.28665 36.7683C1.03939 36.7683 0 35.7378 0 34.5012V22.7947C0 21.5581 1.03939 20.5276 2.28665 20.5276C3.53392 20.5276 4.5733 21.5581 4.5733 22.7947V34.5012C4.5733 35.7378 3.53392 36.7683 2.28665 36.7683Z" fill="white"/>
<path d="M35.7133 36.7683C34.466 36.7683 33.4266 35.7378 33.4266 34.5012V22.7947C33.4266 21.5581 34.466 20.5276 35.7133 20.5276C36.9606 20.5276 37.9999 21.5581 37.9999 22.7947V34.5012C37.9999 35.7378 37.0021 36.7683 35.7133 36.7683Z" fill="white"/>
<path d="M13.7615 49.9999C12.5142 49.9999 11.4749 48.9694 11.4749 47.7328V41.4673C11.4749 40.2307 12.5142 39.2002 13.7615 39.2002C15.0088 39.2002 16.0482 40.2307 16.0482 41.4673V47.7328C16.0482 49.0106 15.0088 49.9999 13.7615 49.9999Z" fill="url(#paint2_linear)"/>
<path d="M24.2801 49.9999C23.0328 49.9999 21.9934 48.9694 21.9934 47.7328V41.4673C21.9934 40.2307 23.0328 39.2002 24.2801 39.2002C25.5273 39.2002 26.5667 40.2307 26.5667 41.4673V47.7328C26.5667 49.0106 25.5273 49.9999 24.2801 49.9999Z" fill="url(#paint3_linear)"/>
<path d="M24.5711 42.4155H13.4289C9.22975 42.4155 5.82056 39.0354 5.82056 34.8722V22.7947C5.82056 21.5581 6.85994 20.5276 8.10721 20.5276H29.8512C31.0985 20.5276 32.1378 21.5581 32.1378 22.7947V34.9134C32.1794 39.0766 28.7702 42.4155 24.5711 42.4155ZM10.3939 25.0618V34.9134C10.3939 36.5622 11.7659 37.9225 13.4289 37.9225H24.5711C26.2341 37.9225 27.6061 36.5622 27.6061 34.9134V25.0618H10.3939Z" fill="white"/>
<path d="M29.8928 18.9198C28.6455 18.9198 27.6061 17.8893 27.6061 16.6527C27.6061 11.9536 23.7396 8.12015 19 8.12015C14.2604 8.12015 10.3939 11.9536 10.3939 16.6527C10.3939 17.8893 9.35447 18.9198 8.10721 18.9198C6.85994 18.9198 5.82056 17.8893 5.82056 16.6527C5.82056 9.43919 11.7659 3.58594 19 3.58594C26.2757 3.58594 32.1794 9.43919 32.1794 16.6527C32.1794 17.8893 31.14 18.9198 29.8928 18.9198Z" fill="white"/>
</g>
<defs>
<linearGradient id="paint0_linear" x1="30.0452" y1="0.478757" x2="23.6408" y2="9.05624" gradientUnits="userSpaceOnUse">
<stop stop-color="white"/>
<stop offset="0.5811" stop-color="#F9FAFA" stop-opacity="0.4189"/>
<stop offset="1" stop-color="#F1F2F2" stop-opacity="0"/>
</linearGradient>
<linearGradient id="paint1_linear" x1="8.57898" y1="0.751014" x2="13.5937" y2="8.47843" gradientUnits="userSpaceOnUse">
<stop stop-color="white"/>
<stop offset="0.5811" stop-color="#F9FAFA" stop-opacity="0.4189"/>
<stop offset="1" stop-color="#F1F2F2" stop-opacity="0"/>
</linearGradient>
<linearGradient id="paint2_linear" x1="13.8026" y1="49.9047" x2="13.73" y2="42.3629" gradientUnits="userSpaceOnUse">
<stop stop-color="white"/>
<stop offset="0.5811" stop-color="#F9FAFA" stop-opacity="0.4189"/>
<stop offset="1" stop-color="#F1F2F2" stop-opacity="0"/>
</linearGradient>
<linearGradient id="paint3_linear" x1="24.2087" y1="49.6921" x2="24.2812" y2="42.3782" gradientUnits="userSpaceOnUse">
<stop stop-color="white"/>
<stop offset="0.5811" stop-color="#F9FAFA" stop-opacity="0.4189"/>
<stop offset="1" stop-color="#F1F2F2" stop-opacity="0"/>
</linearGradient>
<clipPath id="clip0">
<rect width="38" height="50" fill="white"/>
</clipPath>
</defs>
</svg>
