<svg width="49" height="51" viewBox="0 0 49 51" fill="none" xmlns="http://www.w3.org/2000/svg">
<g clip-path="url(#clip0)">
<path d="M25.112 42.763C25.112 44.7148 23.5082 46.2929 21.5245 46.2929H8.22997C6.24634 46.2929 4.64255 44.7148 4.64255 42.763V12.0321C4.64255 9.83111 6.45736 8.0454 8.69423 8.0454H10.4246C10.4246 6.50886 10.4246 5.01384 10.298 3.47729H6.41516C2.82773 3.47729 0 6.25969 0 9.70653V45.0055C0 48.2032 2.65891 50.8195 5.9087 50.8195H23.8458C27.0956 50.8195 29.7545 48.2032 29.7545 45.0055V35.4125C29.7545 34.1667 28.6994 33.1285 27.4332 33.1285C26.1671 33.1285 25.112 34.1667 25.112 35.4125V42.763Z" fill="url(#paint0_radial)"/>
<path d="M27.4333 33.1287C26.1671 33.1287 25.112 34.1669 25.112 35.4127V42.7632C25.112 44.715 23.5082 46.2931 21.5246 46.2931H18.2748C18.4436 47.8297 18.528 49.3247 18.528 50.8612H23.8458C27.0956 50.8612 29.7545 48.2449 29.7545 45.0473V35.4127C29.7545 34.1253 28.6994 33.1287 27.4333 33.1287Z" fill="url(#paint1_linear)"/>
<path d="M14.8562 44.092C16.6976 44.092 18.1904 42.6231 18.1904 40.8112C18.1904 38.9993 16.6976 37.5305 14.8562 37.5305C13.0147 37.5305 11.522 38.9993 11.522 40.8112C11.522 42.6231 13.0147 44.092 14.8562 44.092Z" fill="url(#paint2_linear)"/>
<path d="M11.522 34.6235C11.0999 34.6235 10.7201 34.499 10.3402 34.2913C9.62273 33.876 9.20068 33.0455 9.20068 32.2149V26.7332C9.20068 26.6501 9.20068 26.5671 9.20068 26.5255V3.14514C9.20068 1.89929 10.2558 0.861084 11.522 0.861084H46.6787C47.9449 0.861084 49 1.89929 49 3.14514V26.7747C49 28.0206 47.9449 29.0588 46.6787 29.0588H21.5667C21.0603 29.0588 20.5538 29.2249 20.1318 29.474L12.7881 34.2498C12.4083 34.499 11.9862 34.6235 11.522 34.6235ZM13.8432 26.9823V28.0621L18.1481 25.2797C18.95 24.7398 19.8785 24.4907 20.8493 24.4907H44.3574V5.42919H13.8432V26.7747C13.8432 26.8578 13.8432 26.8993 13.8432 26.9823Z" fill="white"/>
<path d="M41.2765 24.4907H20.1318V29.4741L20.7648 29.0588H41.4031C41.4031 27.5223 41.3609 25.9857 41.2765 24.4907Z" fill="url(#paint3_linear)"/>
<path d="M38.913 12.7383H19.3721C18.5702 12.7383 17.8949 12.0738 17.8949 11.2848C17.8949 10.4958 18.5702 9.8313 19.3721 9.8313H38.913C39.7149 9.8313 40.3902 10.4958 40.3902 11.2848C40.3902 12.0738 39.7149 12.7383 38.913 12.7383Z" fill="white"/>
<path d="M30.8518 19.175H19.3721C18.5702 19.175 17.8949 18.5106 17.8949 17.7216C17.8949 16.9325 18.5702 16.2681 19.3721 16.2681H30.8518C31.6537 16.2681 32.329 16.9325 32.329 17.7216C32.329 18.5106 31.6537 19.175 30.8518 19.175Z" fill="white"/>
</g>
<defs>
<radialGradient id="paint0_radial" cx="0" cy="0" r="1" gradientUnits="userSpaceOnUse" gradientTransform="translate(34.8448 12.8842) rotate(36.626) scale(28.769 28.1072)">
<stop offset="0.6565" stop-color="#1A1A1A"/>
<stop offset="0.7012" stop-color="#1E1E1E"/>
<stop offset="0.7466" stop-color="#2A2A2A"/>
<stop offset="0.7923" stop-color="#3E3E3E"/>
<stop offset="0.8382" stop-color="#5B5B5B"/>
<stop offset="0.8844" stop-color="#7F7F7F"/>
<stop offset="0.9307" stop-color="#ACACAC"/>
<stop offset="0.9763" stop-color="#E1E1E1"/>
<stop offset="1" stop-color="white"/>
</radialGradient>
<linearGradient id="paint1_linear" x1="22.0637" y1="52.169" x2="27.7136" y2="33.912" gradientUnits="userSpaceOnUse">
<stop offset="0.1234" stop-color="white"/>
<stop offset="0.216" stop-color="#EFEFEF"/>
<stop offset="0.3981" stop-color="#C4C4C4"/>
<stop offset="0.6521" stop-color="#7F7F7F"/>
<stop offset="0.9655" stop-color="#212121"/>
<stop offset="0.9888" stop-color="#1A1A1A"/>
</linearGradient>
<linearGradient id="paint2_linear" x1="8.79941" y1="46.893" x2="23.9563" y2="31.2737" gradientUnits="userSpaceOnUse">
<stop stop-color="white"/>
<stop offset="0.1377" stop-color="#FBFBFB"/>
<stop offset="0.2692" stop-color="#F0F0F0"/>
<stop offset="0.3983" stop-color="#DCDCDC"/>
<stop offset="0.5259" stop-color="#C1C1C1"/>
<stop offset="0.6524" stop-color="#9E9E9E"/>
<stop offset="0.7781" stop-color="#747474"/>
<stop offset="0.9008" stop-color="#424242"/>
<stop offset="0.9888" stop-color="#1A1A1A"/>
</linearGradient>
<linearGradient id="paint3_linear" x1="46.7557" y1="26.8484" x2="11.0566" y2="27.0237" gradientUnits="userSpaceOnUse">
<stop offset="0.2218" stop-color="white"/>
<stop offset="0.4573" stop-color="#FDFDFD"/>
<stop offset="0.5656" stop-color="#F5F5F5"/>
<stop offset="0.6479" stop-color="#E9E9E9"/>
<stop offset="0.7171" stop-color="#D6D6D6"/>
<stop offset="0.778" stop-color="#BFBFBF"/>
<stop offset="0.8331" stop-color="#A2A2A2"/>
<stop offset="0.884" stop-color="#7F7F7F"/>
<stop offset="0.9313" stop-color="#565656"/>
<stop offset="0.9743" stop-color="#2A2A2A"/>
<stop offset="0.9888" stop-color="#1A1A1A"/>
</linearGradient>
<clipPath id="clip0">
<rect width="49" height="50" fill="white" transform="translate(0 0.861084)"/>
</clipPath>
</defs>
</svg>
