<svg width="25" height="23" viewBox="0 0 25 23" fill="none" xmlns="http://www.w3.org/2000/svg">
<path d="M9.53609 9.03479H7.0462V16.4301H9.53609V9.03479Z" fill="black"/>
<path d="M8.27854 5.33716C7.46332 5.33716 6.80609 5.94762 6.80609 6.70344C6.80609 7.45925 7.46332 8.06972 8.27854 8.06972C9.09376 8.06972 9.75099 7.45925 9.75099 6.70344C9.75099 5.94762 9.09376 5.33716 8.27854 5.33716Z" fill="black"/>
<path d="M15.9378 8.80811C14.2315 8.80811 13.5174 10.029 13.5174 10.029V9.03485H11.1287V16.4302H13.5174C13.5174 16.4302 13.5174 13.686 13.5174 12.5465C13.5174 11.5058 14.0356 10.8895 15.0341 10.8895C15.9505 10.8895 16.3865 11.4825 16.3865 12.5465C16.3865 13.6104 16.3865 16.4302 16.3865 16.4302H18.8637C18.8637 16.4302 18.8637 13.7267 18.8637 11.7442C18.8637 9.76741 17.6441 8.80811 15.9378 8.80811Z" fill="black"/>
</svg>
