<svg width="60" height="59" viewBox="0 0 60 59" fill="none" xmlns="http://www.w3.org/2000/svg">
<circle opacity="0.2" cx="42.5972" cy="38.7514" r="16.4905" fill="#1BA3DD"/>
<g clip-path="url(#clip0)">
<path d="M49.6495 0.518555L43.3392 5.41819L37.1136 18.0651H22.7143V17.772C22.7143 16.1806 24.0272 14.9243 25.5941 14.9243H31.9468C34.9537 14.9243 37.3677 12.5373 37.3677 9.56404V7.8052H39.6123V0.602309H32.3703V7.76332H34.8266V9.52216C34.8266 11.1135 33.5138 12.3698 31.9468 12.3698H25.5941C22.5872 12.3698 20.1732 14.7568 20.1732 17.7301V18.0232H17.7169C17.8439 17.1857 18.1827 16.4738 18.7333 15.8875C20.2579 14.2543 21.0626 12.1186 21.0626 9.85718C21.0626 7.30267 19.9615 4.87379 18.0557 3.1987C16.1499 1.52361 13.5665 0.686064 10.9831 0.979205C6.66328 1.48173 3.31756 4.91567 2.97875 9.18715C2.767 11.7835 3.69872 14.2962 5.51981 16.1388C6.07037 16.6832 6.45153 17.3532 6.66328 18.0651H5.05395L4.75749 18.9445C3.91047 21.5828 4.67279 24.8074 5.05395 26.1056L1.20002 32.5547C0.564753 33.6016 0.480051 34.8579 0.90356 35.9467C1.32707 37.0774 2.25879 37.9149 3.40226 38.25L5.43511 38.8781V42.0608C5.43511 46.751 9.28904 50.5619 14.0323 50.5619H14.5829V58.5186H37.41V47.5467C37.41 46.1648 38.0453 44.8247 39.1464 44.029C49.5648 36.198 47.4472 19.824 47.3625 19.1121L47.1931 18.0232H45.6261L49.6495 8.22397V0.518555ZM34.9113 3.11494H37.0712V5.25068H34.9113V3.11494ZM47.1084 6.96765C46.6002 6.96765 46.2614 6.75827 46.0073 6.507L47.1084 5.66946V6.96765ZM7.3409 14.3799C6.02802 13.0399 5.35041 11.2391 5.51981 9.35466C5.73156 6.38137 8.23027 3.82686 11.2372 3.49184C13.143 3.28245 14.9217 3.86873 16.3193 5.08318C17.7169 6.29762 18.4792 8.05646 18.4792 9.89906C18.4792 11.4904 17.8863 13.0399 16.7851 14.2124C15.8534 15.2593 15.2605 16.5994 15.0911 18.0232H13.5665V13.6261C14.9641 13.1236 15.9805 11.7835 15.9805 10.2341C15.9805 8.22397 14.3288 6.63263 12.296 6.63263C10.2631 6.63263 8.65378 8.26585 8.65378 10.2341C8.65378 11.7835 9.6702 13.1236 11.0254 13.6261V18.0651H9.24669C8.99258 16.6832 8.35732 15.4269 7.3409 14.3799ZM11.1948 10.2341C11.1948 9.60592 11.703 9.14527 12.296 9.14527C12.9312 9.14527 13.4394 9.6478 13.4394 10.2341C13.4394 10.8204 12.9312 11.3229 12.296 11.3229C11.703 11.3229 11.1948 10.8204 11.1948 10.2341ZM37.6218 42.0189C35.9278 43.3171 34.869 45.3691 34.869 47.5467V56.0059H17.124V48.0492H14.0323C10.6866 48.0492 7.97616 45.3691 7.97616 42.0608V37.0355L4.16458 35.863C3.74107 35.7373 3.44461 35.4442 3.27521 35.0254C3.10581 34.6485 3.14816 34.1879 3.35991 33.811L7.76441 26.3568L7.595 25.8124C7.595 25.7705 6.62093 22.9229 6.95974 20.5359H17.6322H44.9485C45.245 24.2211 45.4567 36.1561 37.6218 42.0189ZM39.9511 18.0651L44.6097 8.64274C45.1179 9.06151 45.7532 9.35466 46.4308 9.48029L42.9157 18.0651H39.9511Z" fill="black"/>
</g>
<defs>
<clipPath id="clip0">
<rect width="49" height="58" fill="white" transform="translate(0.649902 0.518555)"/>
</clipPath>
</defs>
</svg>
