<svg width="52" height="69" viewBox="0 0 52 69" fill="none" xmlns="http://www.w3.org/2000/svg">
<circle opacity="0.2" cx="35.4556" cy="16.5622" r="16.4905" fill="#1BA3DD"/>
<g clip-path="url(#clip0)">
<path d="M39.4933 68.5186H6.6772C3.06292 68.5186 0.105774 65.5597 0.105774 61.9432V18.0939C0.105774 14.4775 3.06292 11.5186 6.6772 11.5186H39.4933C43.1076 11.5186 46.0647 14.4775 46.0647 18.0939V61.9021C46.1058 65.5597 43.1486 68.5186 39.4933 68.5186ZM6.6772 13.9843C4.41827 13.9843 2.57006 15.8336 2.57006 18.0939V61.9021C2.57006 64.1624 4.41827 66.0117 6.6772 66.0117H39.4933C41.7522 66.0117 43.6004 64.1624 43.6004 61.9021V18.0939C43.6004 15.8336 41.7522 13.9843 39.4933 13.9843H6.6772Z" fill="black"/>
<path d="M41.095 19.7789H5.03433C4.33611 19.7789 3.80219 19.2446 3.80219 18.546C3.80219 17.8474 4.33611 17.3131 5.03433 17.3131H41.095C41.7933 17.3131 42.3272 17.8474 42.3272 18.546C42.3272 19.2446 41.7933 19.7789 41.095 19.7789Z" fill="black"/>
<path d="M41.095 57.8748H5.03433C4.33611 57.8748 3.80219 57.3405 3.80219 56.6419C3.80219 55.9432 4.33611 55.409 5.03433 55.409H41.095C41.7933 55.409 42.3272 55.9432 42.3272 56.6419C42.3272 57.3405 41.7933 57.8748 41.095 57.8748Z" fill="black"/>
<path d="M23.229 48.7514C23.0236 48.7514 22.8183 48.7103 22.6129 48.587L13.3718 43.2857C13.0022 43.0802 12.7558 42.6692 12.7558 42.2172V31.5734C12.7558 31.1213 13.0022 30.7103 13.3718 30.5049L22.5718 25.2035C22.9415 24.998 23.4343 24.998 23.804 25.2035L33.004 30.5049C33.3736 30.7103 33.6201 31.1213 33.6201 31.5734V42.2172C33.6201 42.6692 33.3736 43.0802 33.004 43.2857L23.8451 48.587C23.6397 48.7103 23.4343 48.7514 23.229 48.7514ZM15.2201 41.5186L23.1879 46.1213L31.1968 41.5186V32.272L23.229 27.6692L15.2201 32.272V41.5186Z" fill="black"/>
<path d="M17.0272 34.5733C16.8218 34.5733 16.6165 34.5322 16.4111 34.409L13.3718 32.6829C12.7968 32.3542 12.5915 31.5733 12.9201 30.998C13.2486 30.4227 14.029 30.2172 14.604 30.5459L17.6433 32.272C18.2183 32.6007 18.4236 33.3816 18.0951 33.9569C17.8486 34.3268 17.4379 34.5733 17.0272 34.5733Z" fill="black"/>
<path d="M23.229 38.1076C23.0236 38.1076 22.8183 38.0665 22.6129 37.9432L19.5736 36.2172C18.9986 35.8884 18.7933 35.1076 19.1218 34.5323C19.4504 33.9569 20.2308 33.7514 20.8058 34.0802L23.229 35.4775L25.6522 34.0802C26.2272 33.7514 27.0076 33.9569 27.3361 34.5323C27.6647 35.1076 27.4593 35.8884 26.8843 36.2172L23.845 37.9432C23.6397 38.0665 23.4343 38.1076 23.229 38.1076Z" fill="black"/>
<path d="M29.3897 34.5733C28.979 34.5733 28.5683 34.3679 28.3218 33.9569C27.9933 33.3816 28.1986 32.6007 28.7736 32.272L31.8129 30.5459C32.3879 30.2172 33.1683 30.4227 33.4969 30.998C33.8254 31.5733 33.6201 32.3542 33.0451 32.6829L30.0058 34.409C29.8004 34.4912 29.5951 34.5733 29.3897 34.5733Z" fill="black"/>
<path d="M23.229 41.6007C22.5308 41.6007 21.9969 41.0665 21.9969 40.3678V36.8747C21.9969 36.1761 22.5308 35.6418 23.229 35.6418C23.9272 35.6418 24.4611 36.1761 24.4611 36.8747V40.3678C24.4611 41.0665 23.8861 41.6007 23.229 41.6007Z" fill="black"/>
<path d="M23.229 48.7514C22.5308 48.7514 21.9969 48.2171 21.9969 47.5185V44.0254C21.9969 43.3267 22.5308 42.7925 23.229 42.7925C23.9272 42.7925 24.4611 43.3267 24.4611 44.0254V47.5185C24.4611 48.2171 23.8861 48.7514 23.229 48.7514Z" fill="black"/>
<path d="M32.0183 33.0528C31.6076 33.0528 31.1968 32.8473 30.9504 32.4364C30.6218 31.861 30.8272 31.0802 31.4022 30.7514L37.2343 27.3816C37.8093 27.0528 38.5897 27.2583 38.9183 27.8336C39.2468 28.409 39.0415 29.1898 38.4665 29.5186L32.6343 32.8884C32.429 32.9706 32.2236 33.0528 32.0183 33.0528Z" fill="black"/>
<path d="M14.1111 33.0528C13.9058 33.0528 13.7004 33.0117 13.4951 32.8884L7.66292 29.5186C7.08792 29.1898 6.88256 28.409 7.21113 27.8336C7.5397 27.2583 8.32006 27.0528 8.89506 27.3816L14.7272 30.7514C15.3022 31.0802 15.5076 31.861 15.179 32.4364C14.9326 32.8062 14.5218 33.0528 14.1111 33.0528Z" fill="black"/>
<path d="M23.229 52.861C22.5308 52.861 21.9969 52.3267 21.9969 51.6281V46.5322C21.9969 45.8336 22.5308 45.2993 23.229 45.2993C23.9272 45.2993 24.4611 45.8336 24.4611 46.5322V51.6281C24.4611 52.3267 23.8861 52.861 23.229 52.861Z" fill="black"/>
<path d="M23.1058 64.3679C24.3987 64.3679 25.4469 63.3191 25.4469 62.0254C25.4469 60.7317 24.3987 59.6829 23.1058 59.6829C21.8128 59.6829 20.7647 60.7317 20.7647 62.0254C20.7647 63.3191 21.8128 64.3679 23.1058 64.3679Z" fill="black"/>
</g>
<defs>
<clipPath id="clip0">
<rect width="46" height="57" fill="white" transform="translate(0.105774 11.5186)"/>
</clipPath>
</defs>
</svg>
