<svg width="65" height="63" viewBox="0 0 65 63" fill="none" xmlns="http://www.w3.org/2000/svg">
<circle opacity="0.2" cx="17.3064" cy="45.6992" r="16.4905" fill="#2A333A"/>
<g clip-path="url(#clip0)">
<path d="M63.9173 0.585795C63.6634 0.33435 63.2401 0.16672 62.8592 0.208627C47.5802 1.96874 33.8248 9.97308 24.7674 22.252C24.7251 22.252 24.7251 22.252 24.6827 22.252H24.5981C17.149 22.2939 10.2078 25.6465 5.55218 31.4716C5.25591 31.8069 5.21359 32.2679 5.34056 32.687C5.50986 33.106 5.84845 33.3994 6.31402 33.4832L15.8793 35.1176L14.7789 36.752L11.2236 41.6133C10.4195 42.7029 10.5041 44.2534 11.5199 45.2173L18.7573 52.3835C19.3076 52.9283 20.0271 53.1797 20.7466 53.1797C21.3391 53.1797 21.8893 53.0121 22.3972 52.6349L26.799 49.45C27.0106 49.45 27.2222 49.3661 27.3915 49.2404L28.7459 48.3185L30.3119 57.1609C30.3965 57.58 30.6928 57.9572 31.116 58.1248C31.243 58.1667 31.4123 58.2086 31.5816 58.2086C31.8779 58.2086 32.1318 58.1248 32.3858 57.9572C38.0995 53.4731 41.4431 46.8517 41.6548 39.6855C54.3097 30.7592 62.563 16.9716 64.3406 1.63348C64.3406 1.21441 64.2136 0.83724 63.9173 0.585795ZM9.02277 31.3459C12.705 27.5742 17.6569 25.2274 22.9898 24.8083L17.4876 32.8127L9.02277 31.3459ZM20.8736 50.5815C20.7889 50.6653 20.6196 50.6653 20.535 50.5396L13.2975 43.3734C13.2129 43.2896 13.2129 43.1638 13.2552 43.0381L16.0063 39.3502L24.5981 47.8575L20.8736 50.5815ZM32.4281 54.5208L31.0737 46.726L38.946 41.4456C38.3535 46.4745 36.068 51.0424 32.4281 54.5208ZM39.1153 38.3445L28.9998 45.1335L26.8836 46.5583L17.4876 37.2968L25.7832 25.1436C34.0364 13.0742 46.9876 5.02799 61.5472 2.89071C59.431 17.3069 51.3047 30.1725 39.1153 38.3445Z" fill="black"/>
<path d="M44.9561 26.2334C46.8184 26.2334 48.723 25.5209 50.162 24.0961C51.5587 22.7131 52.3205 20.9111 52.3205 18.9414C52.3205 16.9718 51.5587 15.1698 50.162 13.7868C47.284 10.9371 42.6283 10.9371 39.7926 13.7868C38.3959 15.1698 37.634 16.9718 37.634 18.9414C37.634 20.9111 38.3959 22.7131 39.7926 24.0961C41.1893 25.5209 43.0939 26.2334 44.9561 26.2334ZM41.5702 15.5888C42.5013 14.6669 43.7287 14.2059 44.9561 14.2059C46.1835 14.2059 47.4109 14.6669 48.3421 15.5888C49.2309 16.4689 49.7388 17.6842 49.7388 18.9414C49.7388 20.1987 49.2309 21.414 48.3421 22.294C46.4798 24.138 43.4325 24.138 41.5279 22.294C40.6391 21.414 40.1312 20.1987 40.1312 18.9414C40.1312 17.6842 40.6391 16.4689 41.5702 15.5888Z" fill="black"/>
</g>
<defs>
<clipPath id="clip0">
<rect width="59" height="58" fill="white" transform="translate(5.29834 0.20874)"/>
</clipPath>
</defs>
</svg>
