<svg width="63" height="59" viewBox="0 0 63 59" fill="none" xmlns="http://www.w3.org/2000/svg">
<circle opacity="0.2" cx="16.6272" cy="23.6992" r="16.4905" fill="#2A333A"/>
<g clip-path="url(#clip0)">
<path d="M46.5061 36.9279H42.4168C40.7894 36.9279 39.4958 35.5632 39.4958 33.9426V32.1087C39.4958 31.9382 39.3706 31.7676 39.2037 31.6823C38.9951 31.597 38.7865 31.6396 38.6613 31.7676L37.3677 33.047C36.2411 34.1984 34.3633 34.1984 33.1949 33.047L30.3157 30.0617C29.7733 29.5073 29.4395 28.7396 29.4395 27.9293C29.4395 27.119 29.7315 26.3514 30.3157 25.797L31.6093 24.4749C31.7345 24.347 31.7762 24.1337 31.6927 23.9632C31.6093 23.7499 31.4424 23.622 31.2755 23.622H29.4812C27.8538 23.622 26.5602 22.2573 26.5602 20.6367V16.4573C26.5602 14.794 27.8955 13.472 29.4812 13.472H31.2755C31.4424 13.472 31.6093 13.344 31.6927 13.1734C31.7762 12.9602 31.7345 12.747 31.6093 12.619L30.3157 11.297C29.7733 10.7426 29.4395 9.97492 29.4395 9.16462C29.4395 8.35433 29.7315 7.62933 30.3157 7.03227L33.1949 4.08962C33.7374 3.53521 34.4885 3.19403 35.2813 3.19403C36.0742 3.19403 36.7835 3.49256 37.3677 4.08962L38.6613 5.41168C38.7865 5.53962 38.9951 5.58227 39.162 5.49698C39.3706 5.41168 39.4958 5.24109 39.4958 5.0705V3.19403C39.4958 1.5308 40.8311 0.20874 42.4168 0.20874H46.5061C48.1335 0.20874 49.427 1.57345 49.427 3.19403V5.02786C49.427 5.19845 49.5522 5.36903 49.7191 5.45433C49.9277 5.53962 50.1364 5.49698 50.2616 5.36903L51.5551 4.04698C52.6818 2.8955 54.5595 2.8955 55.7279 4.04698L58.6071 6.98962C59.7337 8.14109 59.7337 10.0602 58.6071 11.2543L57.3135 12.5764C57.1884 12.7043 57.1466 12.9176 57.2301 13.0882V13.1308C57.3135 13.3014 57.4804 13.4293 57.6474 13.4293H59.4417C61.069 13.4293 62.3626 14.794 62.3626 16.4146V20.6793C62.3626 22.3426 61.0273 23.6646 59.4417 23.6646H57.6474C57.4804 23.6646 57.3135 23.7926 57.2301 23.9632C57.1466 24.1764 57.1884 24.3896 57.3135 24.5176L58.6071 25.8396C59.7337 26.9911 59.7337 28.9102 58.6071 30.1043L55.7279 33.047C54.6012 34.1984 52.7235 34.1984 51.5551 33.047L50.2616 31.7249C50.1364 31.597 49.9277 31.5543 49.7608 31.6396H49.7191C49.5522 31.7249 49.427 31.8955 49.427 32.0661V33.8999C49.427 35.6058 48.1335 36.9279 46.5061 36.9279ZM38.9534 29.0382C39.3289 29.0382 39.7462 29.1234 40.1217 29.294C41.2484 29.7631 41.9995 30.872 41.9995 32.1087V33.9426C41.9995 34.1984 42.2081 34.369 42.4168 34.369H46.5061C46.7564 34.369 46.9233 34.1558 46.9233 33.9426V32.1087C46.9233 30.872 47.6327 29.8058 48.7594 29.3367C49.886 28.8676 51.1796 29.0808 52.0141 29.9764L53.3077 31.2984C53.4746 31.469 53.7667 31.469 53.9336 31.2984L56.8128 28.3558C56.9797 28.1852 56.9797 27.8867 56.8128 27.7161L55.5193 26.394C54.6847 25.5411 54.4343 24.219 54.8933 23.0676L56.0617 23.5367L54.8933 23.0676C55.3523 21.9161 56.4373 21.1911 57.6056 21.1911H59.3999C59.6503 21.1911 59.8172 20.9779 59.8172 20.7646V16.5852C59.8172 16.3293 59.6086 16.1587 59.3999 16.1587H57.6056C56.3955 16.1587 55.3523 15.4337 54.8933 14.2823C54.4343 13.1308 54.643 11.8087 55.5193 10.9558L56.8128 9.63374C56.9797 9.46315 56.9797 9.16462 56.8128 8.99403L53.9336 6.05139C53.7667 5.8808 53.4746 5.8808 53.3077 6.05139L52.0141 7.37345C51.1796 8.22639 49.886 8.48227 48.7594 8.01315C47.6327 7.54403 46.8816 6.43521 46.8816 5.19845V3.19403C46.8816 2.93815 46.673 2.76756 46.4643 2.76756H42.375C42.1247 2.76756 41.9578 2.9808 41.9578 3.19403V5.02786C41.9578 6.26462 41.2484 7.3308 40.1217 7.79992C38.9951 8.26903 37.7015 8.0558 36.867 7.16021L35.5734 5.83815C35.4482 5.71021 35.3231 5.71021 35.2813 5.71021C35.1979 5.71021 35.0727 5.71021 34.9892 5.83815L32.11 8.7808C31.9848 8.90874 31.9848 9.03668 31.9848 9.07933C31.9848 9.12197 31.9848 9.29256 32.11 9.37786L33.4036 10.6999C34.2381 11.5529 34.4885 12.8749 34.0295 14.0264C33.5705 15.1779 32.4856 15.9455 31.2755 15.9455H29.4812C29.2308 15.9455 29.0639 16.1587 29.0639 16.372V20.6793C29.0639 20.9352 29.2725 21.1058 29.4812 21.1058H31.2755C32.4856 21.1058 33.5288 21.8308 33.9878 22.9823C34.4468 24.1337 34.2381 25.4558 33.3619 26.3087L32.0683 27.6308C31.9431 27.7587 31.9431 27.8867 31.9431 27.9293C31.9431 27.972 31.9431 28.1426 32.0683 28.2279L34.9475 31.1705C35.1144 31.3411 35.4065 31.3411 35.5734 31.1705L36.867 29.8484C37.4094 29.3367 38.1605 29.0382 38.9534 29.0382Z" fill="black"/>
<path d="M44.4614 27.3749C39.7045 27.3749 35.8238 23.4088 35.8238 18.547C35.8238 13.6852 39.7045 9.71906 44.4614 9.71906C49.2184 9.71906 53.099 13.6852 53.099 18.547C53.099 23.4088 49.2184 27.3749 44.4614 27.3749ZM44.4614 12.3205C41.0815 12.3205 38.3275 15.1352 38.3275 18.5896C38.3275 22.0441 41.0815 24.8588 44.4614 24.8588C47.8414 24.8588 50.5954 22.0441 50.5954 18.5896C50.5954 15.1352 47.8414 12.3205 44.4614 12.3205Z" fill="black"/>
<path d="M22.5961 58.2088C22.2206 58.2088 21.845 58.1235 21.5112 57.9529C20.8853 57.6543 20.3845 57.1426 20.1342 56.4602L19.6334 55.0529C19.6334 55.0102 19.55 55.0102 19.5083 54.9676C19.4248 54.9676 19.3831 54.9676 19.3831 55.0102L18.7989 56.3749C18.5068 57.0146 18.0061 57.5264 17.3384 57.7823C16.6708 58.0382 15.9614 57.9955 15.3355 57.697L12.3311 56.2896C11.7052 55.9911 11.2045 55.4794 10.9541 54.797C10.7037 54.1146 10.7455 53.3896 11.0375 52.7499L11.6217 51.3852C11.6217 51.3426 11.6217 51.2999 11.58 51.2573C11.5383 51.2146 11.4966 51.172 11.4548 51.172L10.0778 51.6838C9.41017 51.9396 8.7008 51.897 8.07489 51.5985C7.44897 51.2999 6.94824 50.7882 6.69787 50.1058L5.57122 46.9499C5.32086 46.2676 5.36259 45.5426 5.65468 44.9029C5.94677 44.2632 6.44751 43.7514 7.11515 43.4955L8.49216 42.9838C8.53389 42.9838 8.57562 42.8985 8.57562 42.8558C8.57562 42.7705 8.57562 42.7279 8.53389 42.6852L7.1986 42.0455C6.57269 41.747 6.07196 41.2352 5.82159 40.5529C5.57122 39.8705 5.61295 39.1455 5.90505 38.5058L7.28206 35.4352C7.86625 34.1132 9.41017 33.5161 10.7455 34.1132L12.0807 34.7102C12.1225 34.7102 12.1642 34.7102 12.2059 34.6676L12.2477 34.6249C12.2477 34.6249 12.2894 34.5823 12.2894 34.497L11.7886 33.0896C11.5383 32.4073 11.58 31.6823 11.8721 31.0426C12.1642 30.4029 12.6649 29.8911 13.3326 29.6352L16.4204 28.4838C17.0881 28.2279 17.7974 28.2705 18.4233 28.569C19.0493 28.8676 19.55 29.3793 19.8004 30.0617L20.3011 31.469C20.3011 31.5117 20.3845 31.5543 20.4263 31.5543C20.5097 31.5543 20.5515 31.5543 20.5932 31.5117L21.2191 30.147C21.8033 28.8249 23.3472 28.2279 24.6825 28.8249L27.6869 30.2323C28.9804 30.8293 29.5646 32.4073 28.9804 33.772L28.3963 35.1367C28.3963 35.1793 28.3963 35.222 28.438 35.2646C28.4797 35.3073 28.5214 35.3499 28.5632 35.3499L29.9402 34.8382C30.6078 34.5823 31.3172 34.6249 31.9431 34.9235C32.569 35.222 33.0698 35.7338 33.3201 36.4161L34.4468 39.572C34.6971 40.2543 34.6554 40.9793 34.3633 41.6191C34.0712 42.2588 33.5705 42.7705 32.9029 43.0264L31.3172 43.7088C31.2755 43.7088 31.2337 43.7941 31.2337 43.8367V43.8793C31.2337 43.922 31.2337 44.0073 31.2755 44.0073L32.6108 44.6043C33.9043 45.2014 34.4885 46.7793 33.9043 48.1441L32.5273 51.2146C31.9431 52.5367 30.3992 53.1338 29.0639 52.5367L27.7286 51.9396C27.6869 51.9396 27.6452 51.9396 27.6034 51.9823C27.5617 52.0249 27.52 52.0676 27.52 52.1102L28.0207 53.5176C28.2711 54.1999 28.2294 54.9249 27.9373 55.5646C27.6452 56.2044 27.1444 56.7161 26.4768 56.972L23.3889 58.1235C23.1803 58.1661 22.8882 58.2088 22.5961 58.2088ZM19.5917 52.4941C20.7184 52.5367 21.6364 53.2191 22.0119 54.2426L22.5127 55.6499C22.5127 55.6499 22.5127 55.6926 22.5544 55.6926C22.5961 55.6926 22.6378 55.6926 22.6378 55.6926L25.7257 54.5411C25.7257 54.5411 25.7674 54.5411 25.7674 54.4985C25.7674 54.4558 25.7674 54.4132 25.7674 54.4132L25.2667 53.0058C24.8911 51.9823 25.1832 50.8735 25.9761 50.1058C26.7689 49.3382 27.8955 49.1676 28.8553 49.5941L30.1905 50.1911C30.2323 50.2338 30.3157 50.1911 30.3157 50.1485L31.6927 47.0779C31.7345 47.0352 31.6927 46.9499 31.651 46.9499L30.3157 46.3529C29.356 45.8838 28.7718 44.9029 28.8135 43.7941L30.0654 43.8367L28.8135 43.7941C28.8553 42.6852 29.5229 41.747 30.5244 41.3632L31.9014 40.8514C31.9014 40.8514 31.9431 40.8514 31.9431 40.8088C31.9431 40.7661 31.9431 40.7235 31.9431 40.7235L30.8165 37.5676C30.8165 37.5676 30.8165 37.5249 30.7747 37.5249C30.733 37.5249 30.6913 37.5249 30.6913 37.5249L29.2308 37.994C28.2294 38.3779 27.1444 38.0793 26.3933 37.269C25.6422 36.4588 25.4753 35.3073 25.8926 34.3264L26.4768 32.9617C26.5185 32.919 26.4768 32.8338 26.4351 32.8338L23.4307 31.4264C23.3889 31.3838 23.3055 31.4264 23.3055 31.469L22.6796 32.8338C22.2623 33.8146 21.2608 34.4117 20.2176 34.369C19.1327 34.3264 18.173 33.644 17.8392 32.6205L17.3384 31.2132C17.3384 31.2132 17.3384 31.1705 17.2967 31.1705C17.255 31.1705 17.2132 31.1705 17.2132 31.1705L14.1254 32.322C14.1254 32.322 14.0837 32.322 14.0837 32.3646C14.0837 32.4073 14.0837 32.4499 14.0837 32.4499L14.5844 33.8573C14.96 34.8808 14.6679 35.9896 13.875 36.7573L13.8333 36.7999C13.0822 37.5249 11.9556 37.7382 10.9958 37.269L9.66054 36.672C9.61881 36.6293 9.53535 36.672 9.53535 36.7146L8.15834 39.7852C8.15834 39.7852 8.15834 39.8279 8.15834 39.8705C8.15834 39.9132 8.20007 39.9132 8.20007 39.9132L9.53535 40.5529C10.4951 41.022 11.0793 42.0029 11.0375 43.1117C10.9958 44.2205 10.3282 45.2014 9.32672 45.5426L7.9497 46.0543C7.9497 46.0543 7.90797 46.0543 7.90797 46.097C7.90797 46.1396 7.90797 46.1823 7.90797 46.1823L9.03462 49.3382C9.03462 49.3382 9.03462 49.3808 9.07635 49.3808C9.11808 49.3808 9.1598 49.3808 9.1598 49.3808L10.5368 48.8691C11.5383 48.4852 12.6232 48.7838 13.3743 49.5941C14.1254 50.4044 14.2923 51.5558 13.875 52.5367L13.2908 53.9014C13.2908 53.9014 13.2908 53.9441 13.2908 53.9867C13.2908 54.0294 13.3326 54.0293 13.3326 54.0293L16.337 55.4367C16.337 55.4367 16.3787 55.4367 16.4204 55.4367C16.4621 55.4367 16.4621 55.3941 16.4621 55.3941L17.0463 54.0293C17.5471 53.0485 18.5068 52.4514 19.5917 52.4941Z" fill="black"/>
<path d="M19.9255 50.7455C18.9241 50.7455 17.8809 50.5323 16.9629 50.0632C15.2103 49.2529 13.9168 47.8029 13.2491 45.969C11.8721 42.1735 13.7499 37.9514 17.4636 36.544C21.1774 35.1367 25.3084 37.0558 26.6854 40.8514C27.3531 42.6852 27.2696 44.6896 26.4768 46.4382C25.684 48.2293 24.2652 49.5514 22.4709 50.2337C21.5947 50.6176 20.7601 50.7455 19.9255 50.7455ZM19.9255 38.6764C19.3831 38.6764 18.8406 38.7617 18.2982 38.9749C17.1298 39.4014 16.2118 40.297 15.6693 41.4484C15.1686 42.5999 15.1269 43.8793 15.5441 45.0734C15.9614 46.2676 16.8377 47.2058 17.9643 47.7602C19.091 48.272 20.3428 48.3146 21.5112 47.8882C22.6796 47.4617 23.5976 46.5661 24.14 45.4146C24.6408 44.2632 24.6825 42.9837 24.2652 41.7896C23.5976 39.8705 21.8033 38.6764 19.9255 38.6764Z" fill="black"/>
</g>
<defs>
<clipPath id="clip0">
<rect width="57" height="58" fill="white" transform="translate(5.44604 0.20874)"/>
</clipPath>
</defs>
</svg>
