<svg width="69" height="57" viewBox="0 0 69 57" fill="none" xmlns="http://www.w3.org/2000/svg">
<circle opacity="0.2" cx="16.59" cy="17.313" r="16.4905" fill="#2A333A"/>
<g clip-path="url(#clip0)">
<path d="M58.5822 5.20874H20.807C15.2493 5.20874 10.6946 9.70631 10.6946 15.1942V39.0437C10.6946 44.5728 15.2493 49.0291 20.807 49.0291H52.356L51.771 53.568C51.6456 54.5583 52.147 55.5073 53.0663 55.9199C53.4006 56.085 53.7767 56.1675 54.111 56.1675C54.696 56.1675 55.281 55.9612 55.7407 55.5073L66.2709 45.5631L66.3545 45.4806C67.8588 43.7063 68.6946 41.4369 68.6946 39.085V15.1942C68.6946 9.70631 64.1398 5.20874 58.5822 5.20874ZM66.1874 39.0437C66.1874 40.7767 65.5606 42.4684 64.4741 43.7888L54.3199 53.4854L55.1975 46.5534H20.807C16.6283 46.5534 13.2018 43.2112 13.2018 39.0437V15.1942C13.2018 11.068 16.6283 7.68447 20.807 7.68447H58.5822C62.7609 7.68447 66.1874 11.068 66.1874 15.1942V39.0437Z" fill="black"/>
<path d="M25.3199 26.5413C26.8243 25.9636 27.5346 24.8495 27.5346 23.6942C27.5346 22.4976 26.8661 21.5898 25.9467 21.0946C24.9857 20.517 23.8574 20.3519 22.0188 20.3519C20.5145 20.3519 18.9266 20.4757 18.1326 20.6408V33.5971C18.8012 33.6796 19.9295 33.8034 21.392 33.8034C24.0663 33.8034 25.6542 33.3908 26.6571 32.6068C27.4929 31.9466 28.0361 30.9976 28.0361 29.801C27.9525 28.1092 26.8243 26.9539 25.3199 26.5413ZM21.0577 22.6213C21.3084 22.5801 21.6845 22.5388 22.3531 22.5388C23.732 22.5388 24.4842 23.0752 24.4842 24.0655C24.4842 25.0558 23.6485 25.6747 22.0606 25.6747H21.0577V22.6213ZM22.2277 31.5752C21.7263 31.5752 21.3502 31.5752 21.0577 31.534V27.8204H22.1024C23.6067 27.8204 24.8185 28.3568 24.8185 29.6772C24.7767 31.0801 23.5649 31.5752 22.2277 31.5752Z" fill="black"/>
<path d="M33.0505 28.0679H37.9813V25.6335H33.0505V22.9102H38.2738V20.4757H30.0001V33.6383H38.5246V31.2039H33.0505V28.0679Z" fill="black"/>
<path d="M49.9323 20.4757H39.6946V22.9927H43.2882V33.6383H46.2969V22.9927H49.9323V20.4757Z" fill="black"/>
<path d="M53.2335 20.4757L49.1384 33.6796H52.2724L53.2335 30.2961H57.0361L58.0807 33.6796H61.3401L57.2032 20.4757H53.2335ZM53.6514 28.0267L54.4453 25.2209C54.6542 24.4781 54.8632 23.4466 55.0721 22.6626H55.1139C55.3228 23.4466 55.5318 24.4369 55.7825 25.2209L56.6182 28.0267H53.6514Z" fill="black"/>
</g>
<defs>
<clipPath id="clip0">
<rect width="58" height="51" fill="white" transform="translate(10.6946 5.20874)"/>
</clipPath>
</defs>
</svg>
