<svg width="57" height="58" viewBox="0 0 57 58" fill="none" xmlns="http://www.w3.org/2000/svg">
<circle opacity="0.2" cx="40.4225" cy="21.3835" r="16.4905" fill="#1BA3DD"/>
<path d="M30.1376 37.0251C36.2328 33.4989 40 27.0273 40 20.1408C40 14.9138 37.8836 9.97707 34.0741 6.24345C30.3069 2.55131 25.3122 0.518555 20.0212 0.518555C19.9788 0.518555 19.9365 0.518555 19.8942 0.518555C8.93122 0.601524 0 9.39628 0 20.1408C0 27.1932 3.89418 33.7478 10.2011 37.2325C10.709 37.5229 11.1323 37.9378 11.4286 38.4356C11.5556 38.643 11.6402 38.8089 11.6825 39.0164C10.1164 39.7631 9.0582 41.0491 9.0582 42.5841C9.0582 43.7456 9.65079 44.7827 10.6667 45.5295C9.69312 46.2762 9.0582 47.3133 9.0582 48.4749C9.0582 50.6321 11.1323 52.3745 13.8836 52.6234C14.4339 55.4028 16.9735 57.4771 19.9365 57.4771C22.8995 57.4771 25.4392 55.4028 25.9894 52.6234C28.7407 52.333 30.8148 50.6321 30.8148 48.4749C30.8148 47.3133 30.2222 46.2762 29.2063 45.5295C30.1799 44.7827 30.8148 43.7456 30.8148 42.5841C30.8148 41.1736 29.9259 39.929 28.5291 39.1823C28.7831 38.2696 29.3333 37.4814 30.1376 37.0251ZM14.6878 40.8417H25.3122C27.0476 40.8417 28.3598 41.7544 28.3598 42.5426C28.3598 43.3723 27.0476 44.2434 25.3122 44.2434H14.6878C12.9524 44.2434 11.6402 43.3308 11.6402 42.5426C11.6402 41.7544 12.9524 40.8417 14.6878 40.8417ZM15.9153 19.0622H14.6032C13.7989 19.0622 13.5026 18.4814 13.418 18.3155C13.3333 18.1496 13.1217 17.5273 13.6296 16.9465C13.9259 16.5731 14.3069 16.4902 14.6032 16.4902C14.8148 16.4902 14.9841 16.5317 15.1111 16.5731C15.3228 16.6561 15.9577 16.9465 15.9577 17.7762V19.0622H15.9153ZM21.4603 38.3526H18.455V21.5513H21.4603V38.3526ZM20.0212 55.0295C18.455 55.0295 17.1429 54.0753 16.5926 52.7063H23.4074C22.8995 54.0753 21.5873 55.0295 20.0212 55.0295ZM25.3122 50.2172H14.6878C12.9524 50.2172 11.6402 49.3046 11.6402 48.5164C11.6402 47.6867 12.9524 46.8155 14.6878 46.8155H25.3122C27.0476 46.8155 28.3598 47.7282 28.3598 48.5164C28.3598 49.3046 27.0476 50.2172 25.3122 50.2172ZM26.2011 38.3526H25.3122H24V21.5513H25.3968C26.9206 21.5513 28.2751 20.7216 28.9101 19.3526C29.545 17.9836 29.3333 16.4487 28.3175 15.2871L28.2328 15.2041C27.1746 14.0011 25.4815 13.5862 23.9577 14.1255C22.4339 14.6648 21.4603 16.0753 21.4603 17.6517V19.0622H18.455V17.7762C18.455 16.1998 17.4815 14.7893 15.9577 14.25C14.4339 13.7107 12.7407 14.1255 11.6825 15.3286C10.6667 16.4487 10.455 18.0251 11.0899 19.3941C11.7249 20.7631 13.0794 21.5928 14.6032 21.5928H15.9153V38.4356H14.6878H14.1799C14.0529 38.0207 13.8836 37.6059 13.6296 37.2325C13.1217 36.3614 12.3598 35.6146 11.4286 35.1168C5.92593 32.0884 2.53968 26.3635 2.53968 20.1823C2.53968 10.7238 10.328 3.04912 19.8942 3.00764C19.9365 3.00764 19.9788 3.00764 19.9788 3.00764C24.5926 3.00764 28.9524 4.79148 32.2963 8.02729C35.6402 11.2631 37.4603 15.5775 37.4603 20.1408C37.4603 26.1561 34.1587 31.8395 28.8677 34.9094C27.5132 35.6561 26.582 36.9007 26.2011 38.3526ZM24 19.0622V17.6517C24 16.822 24.6349 16.5317 24.8466 16.4487C25.0582 16.3657 25.7354 16.1998 26.2857 16.822L26.3704 16.905C26.8783 17.4858 26.6667 18.1081 26.582 18.274C26.4974 18.44 26.1587 19.0207 25.3968 19.0207H24V19.0622Z" fill="black"/>
</svg>
