<svg width="1440" height="121" viewBox="0 0 1440 121" fill="none" xmlns="http://www.w3.org/2000/svg">
<circle cx="206.704" cy="60.2087" r="60" fill="#1BA3DD"/>
<circle cx="619.222" cy="60.2087" r="60" fill="#1BA3DD"/>
<circle cx="1031.74" cy="60.2087" r="60" fill="#1BA3DD"/>
<circle cx="412.963" cy="60.2087" r="60" fill="#2A333A"/>
<circle cx="825.482" cy="60.2087" r="60" fill="#2A333A"/>
<circle cx="1238" cy="60.2087" r="60" fill="#2A333A"/>
<g clip-path="url(#clip0)">
<path d="M543.425 35.5766C544.091 35.1943 544.281 34.2384 543.901 33.5693C543.52 32.9002 542.569 32.709 541.903 33.0914L541.522 33.3781C540.856 33.8561 540.666 34.7163 541.141 35.3855C541.427 35.7678 541.903 36.0546 542.378 36.0546C542.664 36.0546 542.949 35.959 543.139 35.8634L543.425 35.5766Z" fill="black"/>
<path d="M533.721 42.3634C534.387 41.8854 534.482 41.0252 534.006 40.356C533.53 39.6869 532.579 39.5913 532.008 40.0693L531.723 40.2605C531.057 40.7384 530.962 41.5987 531.437 42.2678C531.723 42.6501 532.103 42.8413 532.579 42.8413C532.865 42.8413 533.15 42.7457 533.435 42.5545L533.721 42.3634Z" fill="black"/>
<path d="M553.509 29.6502C554.175 29.2679 554.461 28.4076 554.08 27.7385C553.7 27.0694 552.843 26.7826 552.177 27.165L551.797 27.2606C551.131 27.6429 550.846 28.5032 551.226 29.1723C551.512 29.6502 551.987 29.937 552.463 29.937C552.653 29.937 552.939 29.8414 553.129 29.7458L553.509 29.6502Z" fill="black"/>
<path d="M631.522 14.0695C631.427 14.8342 631.998 15.5989 632.759 15.5989H633.235C633.33 15.5989 633.33 15.5989 633.425 15.5989C634.186 15.5989 634.757 15.0253 634.852 14.3562C634.947 13.5915 634.376 12.8268 633.615 12.8268H633.139C632.283 12.6356 631.617 13.3048 631.522 14.0695Z" fill="black"/>
<path d="M524.492 49.7236C525.063 49.2456 525.158 48.2898 524.683 47.7162C524.207 47.1427 523.256 47.0471 522.685 47.5251L522.304 47.8118C521.733 48.2898 521.638 49.2456 522.114 49.8192C522.399 50.2015 522.78 50.2971 523.256 50.2971C523.541 50.2971 523.922 50.2015 524.207 50.0103L524.492 49.7236Z" fill="black"/>
<path d="M599.366 14.3563C599.27 13.5916 598.604 13.018 597.748 13.1136L597.273 13.2092C596.511 13.3048 595.941 13.9739 596.036 14.8342C596.131 15.5989 596.702 16.0768 597.463 16.0768C597.558 16.0768 597.558 16.0768 597.653 16.0768L598.129 15.9813C598.89 15.7901 599.461 15.121 599.366 14.3563Z" fill="black"/>
<path d="M611.163 13.4959C611.163 12.7312 610.497 12.1577 609.736 12.1577C609.736 12.1577 609.736 12.1577 609.64 12.1577H609.165C608.404 12.1577 607.738 12.8268 607.833 13.6871C607.833 14.4518 608.499 15.0253 609.26 15.0253C609.26 15.0253 609.26 15.0253 609.355 15.0253H609.831C610.592 14.9297 611.163 14.2606 611.163 13.4959Z" fill="black"/>
<path d="M619.725 13.4004C619.725 14.1651 620.296 14.8342 621.152 14.8342H621.628C621.628 14.8342 621.628 14.8342 621.723 14.8342C622.484 14.8342 623.15 14.2606 623.15 13.496C623.15 12.7313 622.579 12.0621 621.818 11.9666H621.342C620.391 12.0621 619.725 12.6357 619.725 13.4004Z" fill="black"/>
<path d="M586.046 17.893L586.522 17.7974C587.283 17.6062 587.759 16.8415 587.664 16.0768C587.473 15.3121 586.712 14.8342 585.951 14.9298L585.476 15.0254C584.714 15.2165 584.239 15.9812 584.334 16.7459C584.429 17.4151 585.095 17.893 585.761 17.893C585.856 17.893 585.951 17.893 586.046 17.893Z" fill="black"/>
<path d="M576.152 18.8488C575.962 18.0841 575.106 17.7018 574.344 17.893L573.869 17.9885C573.108 18.1797 572.727 19.04 572.917 19.8047C573.108 20.3782 573.678 20.8562 574.249 20.8562C574.344 20.8562 574.535 20.8562 574.63 20.7606L575.106 20.665C575.867 20.3782 576.342 19.6135 576.152 18.8488Z" fill="black"/>
<path d="M564.165 24.5841C564.926 24.2973 565.211 23.4371 564.926 22.6724C564.64 21.9077 563.784 21.6209 563.023 21.9077L562.547 22.0988C561.786 22.3856 561.501 23.2459 561.786 24.0106C561.977 24.5841 562.547 24.8709 563.118 24.8709C563.309 24.8709 563.499 24.8709 563.689 24.7753L564.165 24.5841Z" fill="black"/>
<path d="M409.281 108.892C409.281 109.657 409.947 110.23 410.708 110.23H410.803H411.279C412.04 110.23 412.706 109.466 412.611 108.701C412.611 107.936 411.85 107.363 411.089 107.363H410.613C409.852 107.363 409.186 108.032 409.281 108.892Z" fill="black"/>
<path d="M377.125 107.172C377.22 106.407 376.744 105.642 375.983 105.547L375.507 105.451C374.746 105.26 373.985 105.833 373.89 106.598C373.795 107.363 374.271 108.127 375.032 108.223L375.507 108.319C375.602 108.319 375.698 108.319 375.698 108.319C376.364 108.414 376.934 107.936 377.125 107.172Z" fill="black"/>
<path d="M488.34 80.6939C489.006 80.2159 489.101 79.3557 488.626 78.6865C488.15 78.0174 487.294 77.9218 486.628 78.3998L486.247 78.6865C485.581 79.1645 485.486 80.0248 485.962 80.6939C486.247 81.0762 486.628 81.2674 487.103 81.2674C487.389 81.2674 487.674 81.1718 487.96 80.9806L488.34 80.6939Z" fill="black"/>
<path d="M388.827 108.51C388.922 107.745 388.256 107.076 387.495 106.98H387.019C386.258 106.885 385.497 107.458 385.497 108.319C385.402 109.083 385.972 109.848 386.829 109.848H387.304H387.4C388.161 109.848 388.827 109.275 388.827 108.51Z" fill="black"/>
<path d="M352.865 99.429C352.104 99.1422 351.342 99.5246 351.057 100.289C350.772 101.054 351.152 101.819 351.913 102.105L352.389 102.297C352.579 102.392 352.674 102.392 352.865 102.392C353.435 102.392 354.006 102.01 354.197 101.436C354.482 100.672 354.101 99.9069 353.34 99.6202L352.865 99.429Z" fill="black"/>
<path d="M364.471 103.061L363.996 102.966C363.235 102.775 362.474 103.253 362.283 104.017C362.093 104.782 362.569 105.547 363.33 105.738L363.805 105.833C363.901 105.833 363.996 105.833 364.186 105.833C364.852 105.833 365.423 105.355 365.613 104.782C365.708 104.017 365.233 103.253 364.471 103.061Z" fill="black"/>
<path d="M400.719 108.988C400.719 108.223 400.053 107.554 399.292 107.554H398.816C398.055 107.554 397.389 108.223 397.389 108.988C397.389 109.752 397.96 110.422 398.816 110.422H399.292C400.053 110.422 400.719 109.848 400.719 108.988Z" fill="black"/>
<path d="M468.457 94.0761C469.123 93.6937 469.408 92.8334 469.028 92.1643C468.647 91.4952 467.791 91.2085 467.125 91.5908L466.744 91.782C466.078 92.1643 465.793 93.0246 466.173 93.6937C466.459 94.1717 466.934 94.4584 467.41 94.4584C467.6 94.4584 467.886 94.3628 468.076 94.2672L468.457 94.0761Z" fill="black"/>
<path d="M457.706 99.429C458.467 99.1423 458.753 98.282 458.467 97.5173C458.182 96.7526 457.326 96.4658 456.565 96.7526L456.184 96.9438C455.423 97.2305 455.137 98.0908 455.423 98.8555C455.613 99.429 456.184 99.7158 456.755 99.7158C456.945 99.7158 457.135 99.7158 457.326 99.6202L457.706 99.429Z" fill="black"/>
<path d="M478.636 87.7674C479.302 87.2894 479.493 86.4291 479.017 85.76C478.541 85.0909 477.685 84.8997 477.019 85.3777L476.638 85.6644C475.972 86.1424 475.782 87.0027 476.258 87.6718C476.543 88.0541 477.019 88.3409 477.4 88.3409C477.685 88.3409 477.97 88.2453 478.161 88.0541L478.636 87.7674Z" fill="black"/>
<path d="M422.315 106.311C421.554 106.407 420.983 107.172 421.078 107.936C421.173 108.701 421.744 109.179 422.505 109.179C422.6 109.179 422.6 109.179 422.696 109.179L423.171 109.083C423.932 108.988 424.503 108.223 424.408 107.458C424.313 106.694 423.552 106.12 422.791 106.216L422.315 106.311Z" fill="black"/>
<path d="M447.431 101.914C447.146 101.15 446.385 100.767 445.624 100.958L445.148 101.15C444.387 101.436 444.006 102.201 444.197 102.966C444.387 103.539 444.958 103.922 445.529 103.922C445.719 103.922 445.814 103.922 446.004 103.826L446.48 103.635C447.241 103.444 447.622 102.679 447.431 101.914Z" fill="black"/>
<path d="M432.78 105.929C432.97 106.598 433.541 107.076 434.207 107.076C434.302 107.076 434.397 107.076 434.493 107.076L434.968 106.98C435.729 106.789 436.205 106.025 436.015 105.26C435.825 104.495 435.063 104.017 434.302 104.208L433.827 104.304C433.066 104.4 432.59 105.164 432.78 105.929Z" fill="black"/>
<path d="M697.357 38.8266C696.882 39.4957 697.072 40.356 697.643 40.834L698.023 41.1207C698.309 41.3119 698.594 41.4075 698.879 41.4075C699.355 41.4075 699.736 41.2163 700.021 40.834C700.497 40.1648 700.306 39.3046 699.736 38.8266L699.355 38.5399C698.689 38.0619 697.833 38.1575 697.357 38.8266Z" fill="black"/>
<path d="M676.998 26.4958C676.617 27.1649 676.903 28.0252 677.664 28.4076L678.044 28.5987C678.234 28.6943 678.52 28.7899 678.71 28.7899C679.186 28.7899 679.757 28.5032 679.947 28.0252C680.328 27.3561 680.042 26.4958 679.281 26.1135L678.805 25.9223C678.234 25.5399 677.378 25.8267 676.998 26.4958Z" fill="black"/>
<path d="M687.463 32.2311C687.082 32.9002 687.272 33.7605 687.938 34.2384L688.319 34.5252C688.509 34.7164 688.795 34.7164 689.08 34.7164C689.556 34.7164 690.032 34.5252 690.317 34.0473C690.698 33.3781 690.507 32.5179 689.841 32.0399L689.461 31.7532C688.7 31.3708 687.843 31.562 687.463 32.2311Z" fill="black"/>
<path d="M644.461 17.2239L644.936 17.3194C645.031 17.3194 645.127 17.3194 645.222 17.3194C645.888 17.3194 646.459 16.8415 646.649 16.1724C646.839 15.4077 646.268 14.643 645.507 14.4518L645.031 14.3562C644.27 14.2606 643.509 14.7386 643.414 15.5033C643.129 16.3636 643.7 17.1283 644.461 17.2239Z" fill="black"/>
<path d="M340.211 95.4143C339.831 96.0834 340.116 96.9437 340.877 97.3261L341.353 97.5172C341.543 97.6128 341.734 97.6128 341.924 97.6128C342.495 97.6128 342.97 97.3261 343.256 96.7525C343.636 96.0834 343.256 95.2231 342.59 94.8408L342.209 94.6496C341.353 94.3629 340.497 94.7452 340.211 95.4143Z" fill="black"/>
<path d="M706.776 46.0913C706.3 46.6648 706.395 47.6207 706.966 48.0986L707.347 48.3854C707.632 48.5765 707.917 48.6721 708.203 48.6721C708.583 48.6721 709.059 48.481 709.344 48.0986C709.82 47.5251 709.725 46.5692 709.154 46.0913L708.774 45.8045C708.203 45.3266 707.251 45.4222 706.776 46.0913Z" fill="black"/>
<path d="M666.152 21.812C665.867 22.5767 666.247 23.3414 667.008 23.6282L667.484 23.8194C667.674 23.915 667.865 23.915 668.055 23.915C668.626 23.915 669.196 23.5326 669.387 23.0547C669.672 22.29 669.292 21.5253 668.626 21.2385L668.15 21.0473C667.294 20.665 666.438 21.0473 666.152 21.812Z" fill="black"/>
<path d="M655.877 19.9003L656.353 19.9959C656.448 19.9959 656.638 20.0915 656.733 20.0915C657.304 20.0915 657.875 19.7092 658.065 19.0401C658.256 18.2754 657.875 17.5107 657.114 17.2239L656.638 17.1283C655.877 16.9371 655.116 17.3195 654.926 18.0842C654.64 18.9445 655.116 19.7092 655.877 19.9003Z" fill="black"/>
<path d="M13.3192 104.591L13.7949 104.495C14.556 104.304 14.9366 103.444 14.7463 102.679C14.556 101.914 13.6998 101.532 12.9387 101.723L12.463 101.819C11.7019 102.01 11.3213 102.87 11.5116 103.635C11.7019 104.208 12.2727 104.686 12.8435 104.686C13.0338 104.686 13.2241 104.591 13.3192 104.591Z" fill="black"/>
<path d="M25.1163 100.385C25.8774 100.098 26.1628 99.2378 25.8774 98.4731C25.592 97.7084 24.7357 97.4217 23.9746 97.7084L23.5941 97.8996C22.833 98.1864 22.5476 99.0467 22.833 99.8114C23.0233 100.385 23.5941 100.672 24.1649 100.672C24.3552 100.672 24.5455 100.672 24.7357 100.576L25.1163 100.385Z" fill="black"/>
<path d="M35.8668 95.2232C36.5327 94.8408 36.8182 93.9805 36.4376 93.3114C36.0571 92.6423 35.2008 92.3556 34.5348 92.7379L34.1543 92.9291C33.4883 93.3114 33.2029 94.1717 33.5835 94.8408C33.8689 95.3188 34.3446 95.6055 34.8203 95.6055C35.0105 95.6055 35.296 95.5099 35.4862 95.4144L35.8668 95.2232Z" fill="black"/>
<path d="M2.1882 107.458C2.9493 107.267 3.42499 106.502 3.32985 105.738C3.13957 104.973 2.37847 104.495 1.61737 104.591L1.14169 104.686C0.380588 104.877 -0.0950986 105.642 3.88073e-05 106.407C0.0951762 107.076 0.761138 107.554 1.4271 107.554C1.52224 107.554 1.61737 107.554 1.71251 107.554L2.1882 107.458Z" fill="black"/>
<path d="M46.6173 87.0982C46.1416 86.4291 45.2854 86.2379 44.6194 86.7159L44.2389 87.0026C43.5729 87.385 43.3826 88.3409 43.7632 89.01C44.0486 89.3923 44.5243 89.6791 45 89.6791C45.2854 89.6791 45.5708 89.5835 45.7611 89.4879L46.1416 89.2011C46.9027 88.6276 47.093 87.7673 46.6173 87.0982Z" fill="black"/>
<path d="M329.841 89.5835C329.461 90.2526 329.651 91.1129 330.317 91.5909L330.698 91.8776C330.888 91.9732 331.173 92.0688 331.459 92.0688C331.934 92.0688 332.41 91.782 332.696 91.3997C333.076 90.7306 332.886 89.8703 332.22 89.3923L331.839 89.1056C331.078 88.7232 330.222 88.9144 329.841 89.5835Z" fill="black"/>
<path d="M244.503 25.54C244.123 26.2091 244.503 27.0694 245.169 27.4517L245.55 27.6429C245.74 27.7385 245.93 27.8341 246.216 27.8341C246.786 27.8341 247.262 27.5473 247.452 27.0694C247.833 26.4003 247.548 25.54 246.786 25.1576L246.311 24.9664C245.645 24.4885 244.789 24.7753 244.503 25.54Z" fill="black"/>
<path d="M234.799 22.9591C234.989 23.0547 235.085 23.0547 235.275 23.0547C235.846 23.0547 236.416 22.6723 236.607 22.0988C236.892 21.3341 236.512 20.5694 235.75 20.2827L235.275 20.0915C234.514 19.8047 233.753 20.1871 233.467 20.9518C233.182 21.7165 233.562 22.4812 234.323 22.7679L234.799 22.9591Z" fill="black"/>
<path d="M254.968 31.084C254.588 31.7531 254.778 32.6134 255.444 33.0914L255.824 33.3781C256.015 33.4737 256.3 33.5693 256.586 33.5693C257.061 33.5693 257.537 33.2825 257.822 32.9002C258.203 32.2311 258.013 31.3708 257.347 30.8928L256.966 30.6061C256.3 30.1282 255.349 30.3193 254.968 31.084Z" fill="black"/>
<path d="M264.958 37.4884C264.482 38.1575 264.672 39.0178 265.338 39.4957L265.719 39.7825C266.004 39.9736 266.29 40.0692 266.575 40.0692C267.051 40.0692 267.431 39.878 267.717 39.4957C268.192 38.8266 268.002 37.9663 267.336 37.4884L266.956 37.2016C266.29 36.7237 265.433 36.8193 264.958 37.4884Z" fill="black"/>
<path d="M210.539 15.2165C210.444 15.9812 210.92 16.7459 211.681 16.8415L212.156 16.9371C212.252 16.9371 212.347 16.9371 212.442 16.9371C213.108 16.9371 213.679 16.4591 213.869 15.79C213.964 15.0253 213.488 14.2606 212.727 14.165L212.156 14.0695C211.395 13.8783 210.729 14.4518 210.539 15.2165Z" fill="black"/>
<path d="M223.192 19.3268L223.668 19.4224C223.763 19.4224 223.953 19.518 224.049 19.518C224.715 19.518 225.285 19.1356 225.38 18.4665C225.571 17.7018 225.095 16.9371 224.334 16.746L223.858 16.6504C223.097 16.4592 222.336 16.9371 222.146 17.7018C221.956 18.3709 222.431 19.1356 223.192 19.3268Z" fill="black"/>
<path d="M274.471 44.5618C273.996 45.1353 274.091 46.0912 274.662 46.5692L275.042 46.8559C275.328 47.0471 275.613 47.1427 275.898 47.1427C276.279 47.1427 276.755 46.9515 277.04 46.5692C277.516 45.9956 277.421 45.0398 276.85 44.5618L276.469 44.2751C275.899 43.8927 274.947 43.9883 274.471 44.5618Z" fill="black"/>
<path d="M56.3213 80.1204C55.8456 79.4513 54.9894 79.3557 54.3234 79.8336L53.9429 80.1204C53.2769 80.5983 53.1818 81.4586 53.6575 82.1277C53.9429 82.5101 54.3234 82.7012 54.7991 82.7012C55.0845 82.7012 55.3699 82.6057 55.6554 82.4145L56.0359 82.1277C56.6067 81.7454 56.797 80.7895 56.3213 80.1204Z" fill="black"/>
<path d="M198.742 13.8783C198.647 14.643 199.218 15.3121 200.074 15.4077H200.55H200.645C201.406 15.4077 201.977 14.8342 202.072 14.0695C202.167 13.3048 201.596 12.5401 200.74 12.5401H200.264C199.598 12.4445 198.837 13.1136 198.742 13.8783Z" fill="black"/>
<path d="M319.947 82.8924C319.471 83.5615 319.662 84.4218 320.328 84.8997L320.708 85.1864C320.994 85.3776 321.279 85.4732 321.564 85.4732C322.04 85.4732 322.421 85.282 322.706 84.8997C323.182 84.2306 322.991 83.3703 322.326 82.8924L321.945 82.6056C321.374 82.1277 320.423 82.3188 319.947 82.8924Z" fill="black"/>
<path d="M310.624 75.6277C310.148 76.2013 310.243 77.1571 310.814 77.6351L311.194 77.9218C311.48 78.113 311.765 78.2086 312.051 78.2086C312.431 78.2086 312.907 78.0174 313.192 77.6351C313.668 77.0615 313.573 76.1057 313.002 75.6277L312.622 75.341C311.956 74.9586 311.099 75.0542 310.624 75.6277Z" fill="black"/>
<path d="M186.945 13.4004C186.945 14.1651 187.611 14.8342 188.372 14.8342H188.848C189.609 14.8342 190.275 14.1651 190.275 13.4004C190.275 12.6357 189.704 11.9666 188.848 11.9666H188.372C187.611 11.9666 186.945 12.6357 186.945 13.4004Z" fill="black"/>
<path d="M92.4736 49.15C91.9979 48.5765 91.0465 48.4809 90.4757 48.9588L90.0951 49.2456C89.5243 49.7235 89.4292 50.6794 89.9049 51.2529C90.1903 51.6353 90.5708 51.7309 90.9514 51.7309C91.2368 51.7309 91.6173 51.6353 91.9027 51.3485L92.2833 51.0618C92.8541 50.6794 92.9493 49.8191 92.4736 49.15Z" fill="black"/>
<path d="M111.406 34.9075C110.93 34.2384 110.074 34.0473 109.408 34.5252L109.027 34.812C108.362 35.2899 108.171 36.1502 108.647 36.8193C108.932 37.2016 109.408 37.4884 109.789 37.4884C110.074 37.4884 110.359 37.3928 110.55 37.2016L110.93 36.9149C111.691 36.4369 111.882 35.5767 111.406 34.9075Z" fill="black"/>
<path d="M101.702 41.7898C101.226 41.1207 100.37 41.0251 99.704 41.5031L99.3234 41.7898C98.6575 42.2678 98.5623 43.128 99.038 43.7971C99.3234 44.1795 99.704 44.3707 100.18 44.3707C100.465 44.3707 100.751 44.2751 101.036 44.0839L101.416 43.7971C102.082 43.3192 102.178 42.3633 101.702 41.7898Z" fill="black"/>
<path d="M74.5877 64.8264C74.112 64.2528 73.1607 64.1573 72.5898 64.7308L72.2093 65.0175C71.6385 65.4955 71.5433 66.4514 72.1142 67.0249C72.3996 67.3116 72.7801 67.5028 73.1607 67.5028C73.5412 67.5028 73.8266 67.4072 74.112 67.1205L74.4926 66.8337C74.9683 66.3558 75.0634 65.4955 74.5877 64.8264Z" fill="black"/>
<path d="M65.5497 72.6645C65.074 72.091 64.1226 71.9954 63.5518 72.4734L63.1712 72.7601C62.6004 73.2381 62.5053 74.1939 62.981 74.7674C63.2664 75.1498 63.6469 75.2454 64.1226 75.2454C64.408 75.2454 64.7886 75.1498 65.074 74.9586L65.4545 74.6719C65.9302 74.1939 66.0254 73.3336 65.5497 72.6645Z" fill="black"/>
<path d="M83.4355 56.9882C82.9598 56.4147 82.0085 56.3191 81.4376 56.8926L81.0571 57.1794C80.4863 57.6573 80.3911 58.6132 80.9619 59.1867C81.2474 59.4735 81.6279 59.6647 82.0085 59.6647C82.389 59.6647 82.6744 59.5691 82.9598 59.2823L83.3404 58.9956C83.9112 58.5176 84.0063 57.5618 83.4355 56.9882Z" fill="black"/>
<path d="M164.683 16.268C164.778 16.268 164.778 16.268 164.873 16.268L165.349 16.1724C166.11 16.0768 166.681 15.3121 166.586 14.5474C166.49 13.7827 165.729 13.2092 164.968 13.3048L164.493 13.4004C163.731 13.496 163.161 14.2607 163.256 15.0254C163.351 15.7901 164.017 16.268 164.683 16.268Z" fill="black"/>
<path d="M153.837 18.2753C154.598 18.0841 155.074 17.3194 154.884 16.5547C154.693 15.79 153.932 15.3121 153.171 15.5033L152.696 15.5989C151.934 15.79 151.459 16.5547 151.649 17.3194C151.839 17.9885 152.41 18.4665 153.076 18.4665C153.171 18.4665 153.266 18.4665 153.361 18.4665L153.837 18.2753Z" fill="black"/>
<path d="M176.48 15.1209C176.48 15.1209 176.575 15.1209 176.48 15.1209H177.051C177.812 15.1209 178.478 14.3562 178.383 13.5915C178.383 12.8268 177.717 12.2533 176.86 12.2533H176.385C175.624 12.2533 174.958 13.018 175.053 13.7827C175.148 14.5474 175.719 15.1209 176.48 15.1209Z" fill="black"/>
<path d="M142.516 21.3341C143.277 21.0474 143.658 20.2827 143.467 19.518C143.182 18.7533 142.421 18.3709 141.66 18.5621L141.184 18.7533C140.423 19.04 140.042 19.8047 140.233 20.5694C140.423 21.1429 140.994 21.5253 141.564 21.5253C141.755 21.5253 141.85 21.5253 142.04 21.4297L142.516 21.3341Z" fill="black"/>
<path d="M121.015 30.7017C121.681 30.3193 121.966 29.4591 121.586 28.7899C121.205 28.1208 120.349 27.8341 119.683 28.2164L119.302 28.4076C118.636 28.7899 118.351 29.6502 118.731 30.3193C119.017 30.7973 119.493 31.084 119.968 31.084C120.159 31.084 120.444 30.9885 120.634 30.8929L121.015 30.7017Z" fill="black"/>
<path d="M131.575 25.54C132.336 25.2532 132.622 24.3929 132.336 23.6282C132.051 22.8635 131.194 22.5768 130.433 22.8635L129.958 23.0547C129.197 23.3415 128.911 24.2018 129.197 24.9665C129.387 25.54 129.958 25.8267 130.528 25.8267C130.719 25.8267 130.909 25.8267 131.099 25.7312L131.575 25.54Z" fill="black"/>
<path d="M511.744 65.4955C511.744 66.3558 511.173 67.2161 510.222 67.4072C509.176 67.5984 508.224 66.9293 507.939 65.8778L506.987 61.0985L502.516 59.2823C501.565 58.9 501.089 57.7529 501.469 56.797C501.85 55.8412 502.992 55.3632 503.943 55.7456L510.317 58.3264L511.744 65.1131C511.744 65.2087 511.744 65.3043 511.744 65.4955Z" fill="black"/>
<path d="M505.941 70.3704C505.941 71.2307 505.37 72.091 504.419 72.2822C503.372 72.4733 502.421 71.8042 502.135 70.7528L501.184 65.9734L496.713 64.1572C495.761 63.7749 495.285 62.6279 495.666 61.672C496.047 60.7161 497.188 60.2382 498.14 60.6205L504.514 63.2014L505.941 69.9881C505.941 70.1792 505.941 70.2748 505.941 70.3704Z" fill="black"/>
<path d="M299.398 57.9441C299.398 58.0396 299.398 58.2308 299.398 58.3264L297.97 65.1131L291.596 67.694C290.645 68.0763 289.503 67.5984 289.123 66.6425C288.742 65.6866 289.218 64.5396 290.169 64.1572L294.641 62.3411L295.592 57.5617C295.782 56.5102 296.829 55.8411 297.875 56.0323C298.732 56.2235 299.398 57.0838 299.398 57.9441Z" fill="black"/>
<path d="M293.499 52.9735C293.499 53.0691 293.499 53.2603 293.499 53.3559L292.072 60.1426L285.698 62.7234C284.746 63.1058 283.605 62.6279 283.224 61.672C282.844 60.7161 283.319 59.5691 284.271 59.1867L288.742 57.3705L289.693 52.5912C289.884 51.5397 290.93 50.8706 291.977 51.0618C292.928 51.3485 293.499 52.1132 293.499 52.9735Z" fill="black"/>
<path d="M972.019 34.334C972.685 33.9517 972.875 32.9958 972.495 32.3267C972.114 31.6576 971.163 31.4664 970.497 31.8487L970.116 32.1355C969.45 32.6134 969.26 33.4737 969.736 34.1428C970.021 34.5252 970.497 34.812 970.972 34.812C971.258 34.812 971.543 34.7164 971.734 34.6208L972.019 34.334Z" fill="black"/>
<path d="M962.315 41.1207C962.981 40.6428 963.076 39.7825 962.6 39.1134C962.125 38.4443 961.173 38.3487 960.602 38.8266L960.317 39.0178C959.651 39.4957 959.556 40.356 960.031 41.0251C960.317 41.4075 960.697 41.5986 961.173 41.5986C961.459 41.5986 961.744 41.5031 962.029 41.3119L962.315 41.1207Z" fill="black"/>
<path d="M982.103 28.4076C982.769 28.0252 983.055 27.1649 982.674 26.4958C982.294 25.8267 981.437 25.5399 980.771 25.9223L980.391 26.1135C979.725 26.4958 979.44 27.3561 979.82 28.0252C980.106 28.5032 980.581 28.7899 981.057 28.7899C981.247 28.7899 981.533 28.6943 981.723 28.5987L982.103 28.4076Z" fill="black"/>
<path d="M1060.12 12.8269C1060.02 13.5915 1060.59 14.3562 1061.35 14.3562H1061.83C1061.92 14.3562 1061.92 14.3562 1062.02 14.3562C1062.78 14.3562 1063.35 13.7827 1063.45 13.1136C1063.54 12.3489 1062.97 11.5842 1062.21 11.5842H1061.73C1060.88 11.4886 1060.21 12.0622 1060.12 12.8269Z" fill="black"/>
<path d="M953.086 48.481C953.657 48.003 953.752 47.0472 953.277 46.4736C952.801 45.9001 951.85 45.8045 951.279 46.2825L950.898 46.5692C950.327 47.0472 950.232 48.003 950.708 48.5766C950.993 48.9589 951.374 49.0545 951.85 49.0545C952.135 49.0545 952.516 48.9589 952.801 48.7677L953.086 48.481Z" fill="black"/>
<path d="M1027.96 13.1136C1027.86 12.3489 1027.2 11.7754 1026.34 11.871L1025.87 11.9665C1025.11 12.0621 1024.53 12.7312 1024.63 13.5915C1024.73 14.3562 1025.3 14.8342 1026.06 14.8342C1026.15 14.8342 1026.15 14.8342 1026.25 14.8342L1026.72 14.7386C1027.48 14.5474 1028.05 13.8783 1027.96 13.1136Z" fill="black"/>
<path d="M1039.76 12.2533C1039.76 11.4886 1039.09 10.9151 1038.33 10.9151C1038.33 10.9151 1038.33 10.9151 1038.23 10.9151H1037.76C1037 10.9151 1036.33 11.5842 1036.43 12.4445C1036.43 13.2092 1037.09 13.7827 1037.85 13.7827C1037.85 13.7827 1037.85 13.7827 1037.95 13.7827H1038.42C1039.19 13.6871 1039.76 13.1136 1039.76 12.2533Z" fill="black"/>
<path d="M1048.32 12.2533C1048.32 13.018 1048.89 13.6871 1049.75 13.6871H1050.22C1050.22 13.6871 1050.22 13.6871 1050.32 13.6871C1051.08 13.6871 1051.74 13.1136 1051.74 12.3489C1051.74 11.5842 1051.17 10.9151 1050.41 10.8195H1049.94C1048.98 10.8195 1048.32 11.393 1048.32 12.2533Z" fill="black"/>
<path d="M1014.64 16.6503L1015.12 16.5547C1015.88 16.3636 1016.35 15.5989 1016.26 14.8342C1016.07 14.0695 1015.31 13.5915 1014.55 13.6871L1014.07 13.7827C1013.31 13.9739 1012.83 14.7386 1012.93 15.5033C1013.02 16.1724 1013.69 16.6503 1014.35 16.6503C1014.45 16.6503 1014.55 16.6503 1014.64 16.6503Z" fill="black"/>
<path d="M1004.75 17.6062C1004.56 16.8415 1003.7 16.4592 1002.94 16.6503L1002.46 16.7459C1001.7 16.9371 1001.32 17.7974 1001.51 18.5621C1001.7 19.1356 1002.27 19.6136 1002.84 19.6136C1002.94 19.6136 1003.13 19.6135 1003.22 19.518L1003.7 19.4224C1004.46 19.1356 1004.94 18.3709 1004.75 17.6062Z" fill="black"/>
<path d="M992.759 23.3414C993.52 23.0547 993.805 22.1944 993.52 21.4297C993.235 20.665 992.378 20.3782 991.617 20.665L991.141 20.8562C990.38 21.1429 990.095 22.0032 990.38 22.7679C990.571 23.3414 991.141 23.6282 991.712 23.6282C991.903 23.6282 992.093 23.6282 992.283 23.5326L992.759 23.3414Z" fill="black"/>
<path d="M837.875 107.65C837.875 108.414 838.541 108.988 839.302 108.988H839.397H839.873C840.634 108.988 841.3 108.223 841.205 107.458C841.205 106.694 840.444 106.12 839.683 106.12H839.207C838.446 106.12 837.78 106.789 837.875 107.65Z" fill="black"/>
<path d="M805.719 105.929C805.814 105.164 805.338 104.4 804.577 104.304L804.101 104.208C803.34 104.017 802.579 104.591 802.484 105.355C802.389 106.12 802.865 106.885 803.626 106.98L804.101 107.076C804.196 107.076 804.292 107.076 804.292 107.076C804.958 107.172 805.528 106.694 805.719 105.929Z" fill="black"/>
<path d="M916.934 79.5468C917.6 79.0689 917.695 78.2086 917.22 77.5395C916.744 76.8704 915.888 76.7748 915.222 77.2528L914.841 77.5395C914.175 78.0174 914.08 78.8777 914.556 79.5468C914.841 79.9292 915.222 80.1204 915.698 80.1204C915.983 80.1204 916.268 80.0248 916.554 79.8336L916.934 79.5468Z" fill="black"/>
<path d="M817.421 107.267C817.516 106.502 816.85 105.833 816.089 105.738H815.613C814.852 105.642 814.091 106.216 814.091 107.076C813.996 107.841 814.566 108.605 815.423 108.605H815.898H815.993C816.755 108.605 817.421 108.032 817.421 107.267Z" fill="black"/>
<path d="M781.459 98.1864C780.698 97.8996 779.936 98.282 779.651 99.0467C779.366 99.8114 779.746 100.576 780.507 100.863L780.983 101.054C781.173 101.15 781.268 101.15 781.459 101.15C782.029 101.15 782.6 100.767 782.791 100.194C783.076 99.429 782.695 98.6643 781.934 98.3776L781.459 98.1864Z" fill="black"/>
<path d="M793.065 101.819L792.59 101.723C791.829 101.532 791.067 102.01 790.877 102.775C790.687 103.539 791.163 104.304 791.924 104.495L792.399 104.591C792.495 104.591 792.59 104.591 792.78 104.591C793.446 104.591 794.017 104.113 794.207 103.539C794.302 102.87 793.826 102.01 793.065 101.819Z" fill="black"/>
<path d="M829.313 107.745C829.313 106.98 828.647 106.311 827.886 106.311H827.41C826.649 106.311 825.983 106.98 825.983 107.745C825.983 108.51 826.554 109.179 827.41 109.179H827.886C828.647 109.179 829.313 108.605 829.313 107.745Z" fill="black"/>
<path d="M896.955 92.8335C897.621 92.4511 897.907 91.5908 897.526 90.9217C897.146 90.2526 896.29 89.9658 895.624 90.3482L895.243 90.5394C894.577 90.9217 894.292 91.782 894.672 92.4511C894.958 92.9291 895.433 93.2158 895.909 93.2158C896.099 93.2158 896.385 93.1202 896.575 93.0246L896.955 92.8335Z" fill="black"/>
<path d="M886.3 98.1863C887.061 97.8996 887.347 97.0393 887.061 96.2746C886.776 95.5099 885.919 95.2231 885.158 95.5099L884.778 95.7011C884.017 95.9878 883.731 96.8481 884.017 97.6128C884.207 98.1863 884.778 98.4731 885.349 98.4731C885.539 98.4731 885.729 98.4731 885.919 98.3775L886.3 98.1863Z" fill="black"/>
<path d="M907.23 86.5247C907.896 86.0467 908.087 85.1865 907.611 84.5173C907.135 83.8482 906.279 83.6571 905.613 84.135L905.232 84.4218C904.566 84.8997 904.376 85.76 904.852 86.4291C905.137 86.8114 905.613 87.0982 905.994 87.0982C906.279 87.0982 906.564 87.0026 906.755 86.8114L907.23 86.5247Z" fill="black"/>
<path d="M850.909 105.069C850.148 105.164 849.577 105.929 849.672 106.694C849.767 107.458 850.338 107.936 851.099 107.936C851.194 107.936 851.194 107.936 851.289 107.936L851.765 107.841C852.526 107.745 853.097 106.98 853.002 106.216C852.907 105.451 852.146 104.877 851.385 104.973L850.909 105.069Z" fill="black"/>
<path d="M876.025 100.672C875.74 99.9069 874.979 99.5246 874.218 99.7158L873.742 99.9069C872.981 100.194 872.6 100.958 872.791 101.723C872.981 102.297 873.552 102.679 874.122 102.679C874.313 102.679 874.408 102.679 874.598 102.583L875.074 102.392C875.835 102.297 876.215 101.436 876.025 100.672Z" fill="black"/>
<path d="M861.374 104.686C861.564 105.355 862.135 105.833 862.801 105.833C862.896 105.833 862.991 105.833 863.086 105.833L863.562 105.738C864.323 105.547 864.799 104.782 864.609 104.017C864.418 103.253 863.657 102.775 862.896 102.966L862.42 103.061C861.659 103.157 861.184 103.922 861.374 104.686Z" fill="black"/>
<path d="M1125.95 37.5839C1125.48 38.2531 1125.67 39.1133 1126.24 39.5913L1126.62 39.878C1126.9 40.0692 1127.19 40.1648 1127.47 40.1648C1127.95 40.1648 1128.33 39.9736 1128.62 39.5913C1129.09 38.9222 1128.9 38.0619 1128.33 37.5839L1127.95 37.2972C1127.28 36.8193 1126.43 37.0104 1125.95 37.5839Z" fill="black"/>
<path d="M1105.59 25.2532C1105.21 25.9223 1105.5 26.7826 1106.26 27.1649L1106.64 27.3561C1106.83 27.4517 1107.11 27.5473 1107.3 27.5473C1107.78 27.5473 1108.35 27.2605 1108.54 26.7826C1108.92 26.1135 1108.64 25.2532 1107.88 24.8709L1107.4 24.6797C1106.83 24.2973 1105.97 24.5841 1105.59 25.2532Z" fill="black"/>
<path d="M1116.06 30.9884C1115.68 31.6575 1115.87 32.5178 1116.53 32.9958L1116.91 33.2825C1117.1 33.4737 1117.39 33.4737 1117.67 33.4737C1118.15 33.4737 1118.63 33.2825 1118.91 32.8046C1119.29 32.1355 1119.1 31.2752 1118.44 30.7972L1118.05 30.5105C1117.29 30.1281 1116.44 30.3193 1116.06 30.9884Z" fill="black"/>
<path d="M1073.05 16.0768L1073.53 16.1724C1073.63 16.1724 1073.72 16.1724 1073.82 16.1724C1074.48 16.1724 1075.05 15.6945 1075.24 15.0254C1075.43 14.2607 1074.86 13.496 1074.1 13.3048L1073.63 13.2092C1072.86 13.1136 1072.1 13.5916 1072.01 14.3563C1071.72 15.1209 1072.29 15.8856 1073.05 16.0768Z" fill="black"/>
<path d="M768.805 94.1717C768.425 94.8408 768.71 95.7011 769.471 96.0835L769.947 96.2746C770.137 96.3702 770.327 96.3702 770.518 96.3702C771.089 96.3702 771.564 96.0835 771.85 95.5099C772.23 94.8408 771.85 93.9805 771.184 93.5982L770.803 93.407C769.947 93.2158 769.091 93.5026 768.805 94.1717Z" fill="black"/>
<path d="M1135.37 44.8486C1134.89 45.4222 1134.99 46.378 1135.56 46.856L1135.94 47.1427C1136.23 47.3339 1136.51 47.4295 1136.8 47.4295C1137.18 47.4295 1137.65 47.2383 1137.94 46.856C1138.41 46.2824 1138.32 45.3266 1137.75 44.8486L1137.37 44.5619C1136.8 44.1795 1135.85 44.2751 1135.37 44.8486Z" fill="black"/>
<path d="M1094.75 20.5694C1094.46 21.3341 1094.84 22.0988 1095.6 22.3856L1096.08 22.5768C1096.27 22.6723 1096.46 22.6723 1096.65 22.6723C1097.22 22.6723 1097.79 22.29 1097.98 21.8121C1098.27 21.0474 1097.89 20.2827 1097.22 19.9959L1096.74 19.8047C1095.89 19.4224 1095.03 19.8047 1094.75 20.5694Z" fill="black"/>
<path d="M1084.47 18.6577L1084.95 18.7533C1085.04 18.7533 1085.23 18.8488 1085.33 18.8488C1085.9 18.8488 1086.47 18.4665 1086.66 17.7974C1086.85 17.0327 1086.47 16.268 1085.71 15.9812L1085.23 15.8856C1084.47 15.6945 1083.71 16.0768 1083.52 16.8415C1083.23 17.7018 1083.71 18.4665 1084.47 18.6577Z" fill="black"/>
<path d="M758.435 88.3409C758.055 89.01 758.245 89.8703 758.911 90.3482L759.292 90.635C759.482 90.7306 759.767 90.8262 760.053 90.8262C760.529 90.8262 761.004 90.5394 761.29 90.1571C761.67 89.4879 761.48 88.6277 760.814 88.1497L760.433 87.863C759.672 87.4806 758.816 87.6718 758.435 88.3409Z" fill="black"/>
<path d="M748.541 81.7453C748.065 82.4144 748.256 83.2747 748.922 83.7526L749.302 84.0394C749.588 84.2306 749.873 84.3262 750.158 84.3262C750.634 84.3262 751.015 84.135 751.3 83.7526C751.776 83.0835 751.586 82.2233 750.92 81.7453L750.539 81.4586C749.968 80.885 749.017 81.0762 748.541 81.7453Z" fill="black"/>
<path d="M739.218 74.3851C738.742 74.9587 738.837 75.9145 739.408 76.3925L739.788 76.6792C740.074 76.8704 740.359 76.966 740.645 76.966C741.025 76.966 741.501 76.7748 741.786 76.3925C742.262 75.8189 742.167 74.8631 741.596 74.3851L741.215 74.0984C740.55 73.716 739.693 73.8116 739.218 74.3851Z" fill="black"/>
<path d="M1156.59 54.7897C1156.59 54.8853 1156.59 55.0765 1156.59 55.172L1155.16 61.9588L1148.78 64.5396C1147.83 64.922 1146.69 64.444 1146.31 63.4882C1145.93 62.5323 1146.41 61.3852 1147.36 61.0029L1151.83 59.1867L1152.78 54.4073C1152.97 53.3559 1154.02 52.6868 1155.06 52.8779C1155.92 53.0691 1156.59 53.9294 1156.59 54.7897Z" fill="black"/>
<path d="M1150.69 49.8192C1150.69 49.9148 1150.69 50.1059 1150.69 50.2015L1149.26 56.9882L1142.89 59.5691C1141.93 59.9514 1140.79 59.4735 1140.41 58.5176C1140.03 57.5618 1140.51 56.4147 1141.46 56.0324L1145.93 54.2162L1146.88 49.4368C1147.07 48.3854 1148.12 47.7163 1149.16 47.9074C1150.12 48.1942 1150.69 48.9589 1150.69 49.8192Z" fill="black"/>
<path d="M940.338 64.2529C940.338 65.1132 939.767 65.9734 938.816 66.1646C937.769 66.3558 936.818 65.6867 936.533 64.6352L935.581 59.8559L931.11 58.0397C930.158 57.6573 929.683 56.5103 930.063 55.5544C930.444 54.5985 931.585 54.1206 932.537 54.503L938.911 57.0838L940.338 63.8705C940.338 63.9661 940.338 64.0617 940.338 64.2529Z" fill="black"/>
<path d="M934.535 69.1278C934.535 69.9881 933.964 70.8484 933.013 71.0396C931.966 71.2307 931.015 70.5616 930.729 69.5102L929.778 64.7308L925.306 62.9146C924.355 62.5323 923.879 61.3852 924.26 60.4294C924.64 59.4735 925.782 58.9956 926.733 59.3779L933.108 61.9588L934.535 68.7455C934.535 68.9366 934.535 69.0322 934.535 69.1278Z" fill="black"/>
<path d="M727.992 56.7014C727.992 56.797 727.992 56.9882 727.992 57.0838L726.565 63.8705L720.19 66.4514C719.239 66.8337 718.097 66.3558 717.717 65.3999C717.336 64.444 717.812 63.297 718.763 62.9146L723.235 61.0985L724.186 56.3191C724.376 55.2676 725.423 54.5985 726.469 54.7897C727.326 54.9809 727.992 55.8412 727.992 56.7014Z" fill="black"/>
<path d="M722.093 51.7309C722.093 51.8265 722.093 52.0177 722.093 52.1133L720.666 58.9L714.292 61.4808C713.34 61.8632 712.199 61.3852 711.818 60.4294C711.438 59.4735 711.913 58.3264 712.865 57.9441L717.336 56.1279L718.287 51.3486C718.478 50.2971 719.524 49.628 720.571 49.8192C721.522 50.1059 722.093 50.8706 722.093 51.7309Z" fill="black"/>
<path d="M1426.68 11.1063L1426.2 11.2019C1425.44 11.393 1425.06 12.2533 1425.25 13.018C1425.44 13.7827 1426.3 14.1651 1427.06 13.9739L1427.54 13.8783C1428.3 13.6871 1428.68 12.8268 1428.49 12.0621C1428.3 11.4886 1427.73 11.0107 1427.16 11.0107C1426.97 11.0107 1426.78 11.1063 1426.68 11.1063Z" fill="black"/>
<path d="M1414.98 15.3121C1414.22 15.5989 1413.93 16.4591 1414.22 17.2238C1414.5 17.9885 1415.36 18.2753 1416.12 17.9885L1416.5 17.7974C1417.26 17.5106 1417.55 16.6503 1417.26 15.8856C1417.07 15.3121 1416.5 15.0253 1415.93 15.0253C1415.74 15.0253 1415.55 15.0253 1415.36 15.1209L1414.98 15.3121Z" fill="black"/>
<path d="M1404.13 20.4738C1403.47 20.8562 1403.18 21.7165 1403.56 22.3856C1403.94 23.0547 1404.8 23.3415 1405.47 22.9591L1405.85 22.7679C1406.51 22.3856 1406.8 21.5253 1406.42 20.8562C1406.13 20.3783 1405.66 20.0915 1405.18 20.0915C1404.99 20.0915 1404.7 20.1871 1404.51 20.2827L1404.13 20.4738Z" fill="black"/>
<path d="M1437.81 8.23865C1437.05 8.42983 1436.57 9.19453 1436.67 9.95923C1436.86 10.7239 1437.62 11.2019 1438.38 11.1063L1438.86 11.0107C1439.62 10.8195 1440.1 10.0548 1440 9.29011C1439.9 8.621 1439.24 8.14307 1438.57 8.14307C1438.48 8.14307 1438.38 8.14307 1438.29 8.14307L1437.81 8.23865Z" fill="black"/>
<path d="M1393.38 28.5987C1393.86 29.2679 1394.71 29.459 1395.38 28.9811L1395.76 28.6943C1396.43 28.312 1396.62 27.3561 1396.24 26.687C1395.95 26.3046 1395.48 26.0179 1395 26.0179C1394.71 26.0179 1394.43 26.1135 1394.24 26.2091L1393.86 26.4958C1393.1 27.0693 1392.91 27.9296 1393.38 28.5987Z" fill="black"/>
<path d="M1195.5 90.157C1195.88 89.4879 1195.5 88.6276 1194.83 88.2453L1194.45 88.0541C1194.26 87.9585 1194.07 87.8629 1193.78 87.8629C1193.21 87.8629 1192.74 88.1497 1192.55 88.6276C1192.17 89.2967 1192.45 90.157 1193.21 90.5394L1193.69 90.7305C1194.36 91.2085 1195.21 90.9217 1195.5 90.157Z" fill="black"/>
<path d="M1205.2 92.7379C1205.01 92.6423 1204.92 92.6423 1204.73 92.6423C1204.15 92.6423 1203.58 93.0246 1203.39 93.5981C1203.11 94.3629 1203.49 95.1276 1204.25 95.4143L1204.73 95.6055C1205.49 95.8923 1206.25 95.5099 1206.53 94.7452C1206.82 93.9805 1206.44 93.2158 1205.68 92.929L1205.2 92.7379Z" fill="black"/>
<path d="M1185.03 84.613C1185.41 83.9439 1185.22 83.0836 1184.56 82.6056L1184.18 82.3189C1183.98 82.2233 1183.7 82.1277 1183.41 82.1277C1182.94 82.1277 1182.46 82.4144 1182.18 82.7968C1181.8 83.4659 1181.99 84.3262 1182.65 84.8041L1183.03 85.0909C1183.7 85.5688 1184.65 85.3777 1185.03 84.613Z" fill="black"/>
<path d="M1175.04 78.2086C1175.52 77.5395 1175.33 76.6792 1174.66 76.2013L1174.28 75.9145C1174 75.7233 1173.71 75.6277 1173.42 75.6277C1172.95 75.6277 1172.57 75.8189 1172.28 76.2013C1171.81 76.8704 1172 77.7307 1172.66 78.2086L1173.04 78.4954C1173.71 78.9733 1174.57 78.8777 1175.04 78.2086Z" fill="black"/>
<path d="M1229.46 100.48C1229.56 99.7158 1229.08 98.9511 1228.32 98.8555L1227.84 98.7599C1227.75 98.7599 1227.65 98.7599 1227.56 98.7599C1226.89 98.7599 1226.32 99.2378 1226.13 99.9069C1226.04 100.672 1226.51 101.436 1227.27 101.532L1227.75 101.628C1228.6 101.819 1229.37 101.245 1229.46 100.48Z" fill="black"/>
<path d="M1216.81 96.3702L1216.33 96.2746C1216.24 96.2746 1216.05 96.179 1215.95 96.179C1215.29 96.179 1214.71 96.5614 1214.62 97.2305C1214.43 97.9952 1214.9 98.7599 1215.67 98.951L1216.14 99.0466C1216.9 99.2378 1217.66 98.7599 1217.85 97.9952C1218.04 97.3261 1217.57 96.5614 1216.81 96.3702Z" fill="black"/>
<path d="M1165.53 71.0395C1166 70.466 1165.91 69.5101 1165.34 69.0322L1164.96 68.7454C1164.67 68.5543 1164.39 68.4587 1164.1 68.4587C1163.72 68.4587 1163.25 68.6499 1162.96 69.0322C1162.48 69.6057 1162.58 70.5616 1163.15 71.0395L1163.53 71.3263C1164.1 71.8042 1165.05 71.7087 1165.53 71.0395Z" fill="black"/>
<path d="M1383.68 35.4811C1384.15 36.1502 1385.01 36.2458 1385.68 35.7678L1386.06 35.4811C1386.72 35.0031 1386.82 34.1428 1386.34 33.4737C1386.06 33.0914 1385.68 32.9002 1385.2 32.9002C1384.92 32.9002 1384.63 32.9958 1384.34 33.187L1383.96 33.4737C1383.39 33.9517 1383.2 34.9075 1383.68 35.4811Z" fill="black"/>
<path d="M1241.26 101.819C1241.35 101.054 1240.78 100.385 1239.93 100.289H1239.45H1239.35C1238.59 100.289 1238.02 100.863 1237.93 101.628C1237.83 102.392 1238.4 103.157 1239.26 103.157H1239.74C1240.5 103.157 1241.16 102.583 1241.26 101.819Z" fill="black"/>
<path d="M1253.05 102.297C1253.05 101.532 1252.39 100.863 1251.63 100.863H1251.15C1250.39 100.863 1249.72 101.532 1249.72 102.297C1249.72 103.061 1250.3 103.73 1251.15 103.73H1251.63C1252.39 103.73 1253.05 103.061 1253.05 102.297Z" fill="black"/>
<path d="M1347.53 66.5469C1348 67.1204 1348.95 67.216 1349.52 66.7381L1349.9 66.4513C1350.48 65.9734 1350.57 65.0175 1350.1 64.444C1349.81 64.0617 1349.43 63.9661 1349.05 63.9661C1348.76 63.9661 1348.38 64.0616 1348.1 64.3484L1347.72 64.6352C1347.15 65.0175 1347.05 65.8778 1347.53 66.5469Z" fill="black"/>
<path d="M1328.59 80.7895C1329.07 81.4586 1329.93 81.6498 1330.59 81.1718L1330.97 80.8851C1331.64 80.4071 1331.83 79.5468 1331.35 78.8777C1331.07 78.4954 1330.59 78.2086 1330.21 78.2086C1329.93 78.2086 1329.64 78.3042 1329.45 78.4954L1329.07 78.7821C1328.31 79.2601 1328.12 80.1204 1328.59 80.7895Z" fill="black"/>
<path d="M1338.3 73.9072C1338.77 74.5763 1339.63 74.6719 1340.3 74.1939L1340.68 73.9072C1341.34 73.4292 1341.44 72.5689 1340.96 71.8998C1340.68 71.5175 1340.3 71.3263 1339.82 71.3263C1339.53 71.3263 1339.25 71.4219 1338.96 71.6131L1338.58 71.8998C1337.92 72.3778 1337.82 73.3336 1338.3 73.9072Z" fill="black"/>
<path d="M1365.51 50.775C1365.98 51.3485 1366.93 51.4441 1367.51 50.8706L1367.89 50.5838C1368.46 50.1059 1368.55 49.15 1367.98 48.5765C1367.7 48.2897 1367.31 48.0986 1366.93 48.0986C1366.55 48.0986 1366.27 48.1942 1365.98 48.4809L1365.6 48.7677C1365.03 49.3412 1364.94 50.2015 1365.51 50.775Z" fill="black"/>
<path d="M1374.45 43.0325C1374.93 43.606 1375.88 43.7016 1376.45 43.2236L1376.83 42.9369C1377.4 42.4589 1377.49 41.5031 1377.02 40.9295C1376.73 40.5472 1376.35 40.4516 1375.88 40.4516C1375.59 40.4516 1375.21 40.5472 1374.93 40.7384L1374.55 41.0251C1374.07 41.5031 1373.97 42.3633 1374.45 43.0325Z" fill="black"/>
<path d="M1356.56 58.7088C1357.04 59.2823 1357.99 59.3779 1358.56 58.8044L1358.94 58.5176C1359.51 58.0397 1359.61 57.0838 1359.04 56.5103C1358.75 56.2235 1358.37 56.0323 1357.99 56.0323C1357.61 56.0323 1357.33 56.1279 1357.04 56.4147L1356.66 56.7015C1356.09 57.1794 1355.99 58.1353 1356.56 58.7088Z" fill="black"/>
<path d="M1275.32 99.429C1275.22 99.429 1275.22 99.429 1275.13 99.429L1274.65 99.5246C1273.89 99.6202 1273.32 100.385 1273.41 101.15C1273.51 101.914 1274.27 102.488 1275.03 102.392L1275.51 102.297C1276.27 102.201 1276.84 101.436 1276.74 100.672C1276.65 99.907 1275.98 99.429 1275.32 99.429Z" fill="black"/>
<path d="M1286.16 97.4216C1285.4 97.6128 1284.93 98.3775 1285.12 99.1422C1285.31 99.9069 1286.07 100.385 1286.83 100.194L1287.3 100.098C1288.07 99.9069 1288.54 99.1422 1288.35 98.3775C1288.16 97.7084 1287.59 97.2305 1286.92 97.2305C1286.83 97.2305 1286.73 97.2305 1286.64 97.2305L1286.16 97.4216Z" fill="black"/>
<path d="M1263.52 100.576C1263.52 100.576 1263.42 100.576 1263.52 100.576H1262.95C1262.19 100.576 1261.52 101.341 1261.62 102.105C1261.62 102.87 1262.28 103.444 1263.14 103.444H1263.61C1264.38 103.444 1265.04 102.679 1264.95 101.914C1264.95 101.15 1264.28 100.576 1263.52 100.576Z" fill="black"/>
<path d="M1297.48 94.3629C1296.72 94.6496 1296.34 95.4143 1296.53 96.179C1296.82 96.9437 1297.58 97.3261 1298.34 97.1349L1298.82 96.9437C1299.58 96.657 1299.96 95.8923 1299.77 95.1276C1299.58 94.554 1299.01 94.1717 1298.44 94.1717C1298.25 94.1717 1298.15 94.1717 1297.96 94.2673L1297.48 94.3629Z" fill="black"/>
<path d="M1318.98 84.9953C1318.32 85.3777 1318.03 86.238 1318.41 86.9071C1318.79 87.5762 1319.65 87.8629 1320.32 87.4806L1320.7 87.2894C1321.36 86.9071 1321.65 86.0468 1321.27 85.3777C1320.98 84.8997 1320.51 84.613 1320.03 84.613C1319.84 84.613 1319.56 84.7086 1319.37 84.8041L1318.98 84.9953Z" fill="black"/>
<path d="M1308.42 90.157C1307.66 90.4438 1307.38 91.3041 1307.66 92.0688C1307.95 92.8335 1308.81 93.1202 1309.57 92.8335L1310.04 92.6423C1310.8 92.3555 1311.09 91.4952 1310.8 90.7305C1310.61 90.157 1310.04 89.8702 1309.47 89.8702C1309.28 89.8702 1309.09 89.8702 1308.9 89.9658L1308.42 90.157Z" fill="black"/>
</g>
<defs>
<clipPath id="clip0">
<rect width="1440" height="102.278" fill="white" transform="translate(0 8.14307)"/>
</clipPath>
</defs>
</svg>
