<svg width="27" height="26" viewBox="0 0 27 26" fill="none" xmlns="http://www.w3.org/2000/svg">
<g opacity="0.5" clip-path="url(#clip0)">
<path d="M13.1346 0.360352C5.97481 0.360352 0.153809 5.96576 0.153809 12.8604C0.153809 19.7549 5.97481 25.3604 13.1346 25.3604C20.2943 25.3604 26.1153 19.7549 26.1153 12.8604C26.1153 5.96576 20.2943 0.360352 13.1346 0.360352ZM13.1346 24.4124C6.5195 24.4124 1.13819 19.2304 1.13819 12.8604C1.13819 6.49028 6.5195 1.30828 13.1346 1.30828C19.7497 1.30828 25.131 6.49028 25.131 12.8604C25.131 19.2304 19.7497 24.4124 13.1346 24.4124Z" fill="#222221"/>
<path d="M11.2315 8.38624C11.2315 9.98508 11.2315 10.3453 11.2315 10.3453H9.6499V12.8289H11.2315V20.1279H14.27V12.7973H16.3897L16.6128 10.3453H14.2634C14.2634 10.3453 14.2634 9.42896 14.2634 8.94868C14.2634 8.36728 14.3815 8.13978 14.9656 8.13978C15.4315 8.13978 16.6128 8.13978 16.6128 8.13978V5.59302C16.6128 5.59302 14.8803 5.59302 14.5062 5.59302C12.2487 5.59302 11.2315 6.55358 11.2315 8.38624Z" fill="#222221"/>
</g>
<defs>
<clipPath id="clip0">
<rect width="25.9615" height="25" fill="white" transform="translate(0.153809 0.360352)"/>
</clipPath>
</defs>
</svg>
