<svg width="25" height="26" viewBox="0 0 25 26" fill="none" xmlns="http://www.w3.org/2000/svg">
<g opacity="0.5" clip-path="url(#clip0)">
<path d="M12.5 0.360352C5.60541 0.360352 0 5.96576 0 12.8604C0 19.7549 5.60541 25.3604 12.5 25.3604C19.3946 25.3604 25 19.7549 25 12.8604C25 5.96576 19.3946 0.360352 12.5 0.360352ZM12.5 24.4124C6.12993 24.4124 0.947927 19.2304 0.947927 12.8604C0.947927 6.49028 6.12993 1.30828 12.5 1.30828C18.8701 1.30828 24.0521 6.49028 24.0521 12.8604C24.0521 19.2304 18.8701 24.4124 12.5 24.4124Z" fill="#222221"/>
<path d="M18.75 8.54407C18.5794 8.10802 18.3582 7.74149 17.9917 7.37496C17.6251 7.00843 17.2586 6.78092 16.8225 6.61662C16.4055 6.45231 15.9252 6.34488 15.2237 6.30696C14.5222 6.27536 14.2947 6.26904 12.5063 6.26904C10.7179 6.26904 10.4904 6.27536 9.78893 6.30696C9.08746 6.33856 8.60718 6.45231 8.19009 6.61662C7.75405 6.78724 7.38751 7.00843 7.02098 7.37496C6.65445 7.74149 6.42695 8.10802 6.26264 8.54407C6.09833 8.96116 5.9909 9.44144 5.9593 10.1429C5.92771 10.8444 5.92139 11.0719 5.92139 12.8603C5.92139 14.6487 5.92771 14.8762 5.9593 15.5777C5.9909 16.2792 6.10465 16.7594 6.26264 17.1765C6.43327 17.6126 6.65445 17.9791 7.02098 18.3456C7.38751 18.7122 7.75405 18.9397 8.19009 19.104C8.60718 19.2683 9.08746 19.3757 9.78893 19.4136C10.4904 19.4452 10.7179 19.4515 12.5063 19.4515C14.2947 19.4515 14.5222 19.4452 15.2237 19.4136C15.9252 19.382 16.4055 19.2683 16.8225 19.104C17.2586 18.9333 17.6251 18.7122 17.9917 18.3456C18.3582 17.9791 18.5857 17.6126 18.75 17.1765C18.9143 16.7594 19.0217 16.2792 19.0597 15.5777C19.0913 14.8762 19.0976 14.6487 19.0976 12.8603C19.0976 11.0719 19.0913 10.8444 19.0597 10.1429C19.0217 9.44144 18.9143 8.96116 18.75 8.54407ZM17.8653 15.5271C17.8337 16.1717 17.7262 16.5193 17.6378 16.7531C17.5177 17.0628 17.3723 17.2776 17.1448 17.5115C16.9173 17.739 16.6962 17.8843 16.3865 18.0044C16.1527 18.0929 15.8051 18.2003 15.1605 18.2319C14.4654 18.2635 14.2568 18.2698 12.4937 18.2698C10.7305 18.2698 10.522 18.2635 9.82685 18.2319C9.18226 18.2003 8.83468 18.0929 8.60086 18.0044C8.2912 17.8843 8.07634 17.739 7.84252 17.5115C7.6087 17.2776 7.46967 17.0628 7.3496 16.7531C7.26112 16.5193 7.15369 16.1717 7.12209 15.5271C7.0905 14.832 7.08418 14.6234 7.08418 12.8603C7.08418 11.0972 7.0905 10.8886 7.12209 10.1935C7.15369 9.54887 7.26112 9.2013 7.3496 8.96748C7.46967 8.65782 7.61502 8.44296 7.84252 8.20913C8.07634 7.97531 8.2912 7.83628 8.60086 7.71621C8.83468 7.62774 9.18226 7.52031 9.82685 7.48871C10.522 7.45711 10.7305 7.45079 12.4937 7.45079C14.2568 7.45079 14.4654 7.45711 15.1605 7.48871C15.8051 7.52031 16.1527 7.62774 16.3865 7.71621C16.6962 7.83628 16.911 7.98163 17.1448 8.20913C17.3787 8.44296 17.5177 8.65782 17.6378 8.96748C17.7262 9.2013 17.8337 9.54887 17.8653 10.1935C17.8969 10.8886 17.9032 11.0972 17.9032 12.8603C17.9032 14.6234 17.8969 14.832 17.8653 15.5271Z" fill="#222221"/>
<path d="M12.5001 9.47314C10.6295 9.47314 9.11279 10.9898 9.11279 12.8604C9.11279 14.731 10.6295 16.2477 12.5001 16.2477C14.3706 16.2477 15.8873 14.731 15.8873 12.8604C15.8873 10.9898 14.3706 9.47314 12.5001 9.47314ZM12.5001 15.0596C11.2867 15.0596 10.3009 14.0738 10.3009 12.8604C10.3009 11.6471 11.2867 10.6612 12.5001 10.6612C13.7134 10.6612 14.6992 11.6471 14.6992 12.8604C14.6992 14.0738 13.7134 15.0596 12.5001 15.0596Z" fill="#222221"/>
<path d="M16.0199 8.55054C15.5839 8.55054 15.23 8.90443 15.23 9.34048C15.23 9.77653 15.5839 10.1304 16.0199 10.1304C16.456 10.1304 16.8099 9.77653 16.8099 9.34048C16.8099 8.90443 16.456 8.55054 16.0199 8.55054Z" fill="#222221"/>
</g>
<defs>
<clipPath id="clip0">
<rect width="25" height="25" fill="white" transform="translate(0 0.360352)"/>
</clipPath>
</defs>
</svg>
