<svg width="26" height="26" viewBox="0 0 26 26" fill="none" xmlns="http://www.w3.org/2000/svg">
<g opacity="0.5" clip-path="url(#clip0)">
<path d="M12.9808 0.360352C5.821 0.360352 0 5.96576 0 12.8604C0 19.7549 5.821 25.3604 12.9808 25.3604C20.1405 25.3604 25.9615 19.7549 25.9615 12.8604C25.9615 5.96576 20.1405 0.360352 12.9808 0.360352ZM12.9808 24.4124C6.3657 24.4124 0.984386 19.2304 0.984386 12.8604C0.984386 6.49028 6.3657 1.30828 12.9808 1.30828C19.5958 1.30828 24.9772 6.49028 24.9772 12.8604C24.9772 19.2304 19.5958 24.4124 12.9808 24.4124Z" fill="#222221"/>
<path d="M9.90291 10.1809H7.31726V18.2193H9.90291V10.1809Z" fill="#222221"/>
<path d="M8.59695 6.16162C7.75038 6.16162 7.06787 6.82517 7.06787 7.64671C7.06787 8.46824 7.75038 9.13179 8.59695 9.13179C9.44352 9.13179 10.126 8.46824 10.126 7.64671C10.126 6.82517 9.44352 6.16162 8.59695 6.16162Z" fill="#222221"/>
<path d="M16.5508 9.93433C14.7789 9.93433 14.0373 11.2614 14.0373 11.2614V10.1808H11.5566V18.2192H14.0373C14.0373 18.2192 14.0373 15.2364 14.0373 13.9978C14.0373 12.8666 14.5754 12.1967 15.6123 12.1967C16.5639 12.1967 17.0167 12.8413 17.0167 13.9978C17.0167 15.1542 17.0167 18.2192 17.0167 18.2192H19.5892C19.5892 18.2192 19.5892 15.2806 19.5892 13.1257C19.5892 10.977 18.3227 9.93433 16.5508 9.93433Z" fill="#222221"/>
</g>
<defs>
<clipPath id="clip0">
<rect width="25.9615" height="25" fill="white" transform="translate(0 0.360352)"/>
</clipPath>
</defs>
</svg>
