<svg width="144" height="54" viewBox="0 0 144 54" fill="none" xmlns="http://www.w3.org/2000/svg">
<path d="M96.8111 0L83.9413 11.5346L61.9796 29.7064L48.0214 11.9212L56.0889 10.568L65.5652 22.5537L96.8111 0Z" fill="#1BA3DD"/>
<path d="M97.5794 16.1099C96.811 14.9499 95.8506 14.1122 94.6981 13.5323C93.5456 12.9523 92.0729 12.6946 90.4082 12.6946C88.6794 12.6946 87.2708 12.9523 86.0543 13.5323C84.9017 14.1122 83.8773 14.8855 83.173 16.1099C82.5967 16.8831 82.2766 18.043 82.0205 19.4607C81.8284 20.9428 81.7003 23.1982 81.7003 26.3557C81.7003 29.5132 81.8284 31.7686 82.0205 33.2507C82.2766 34.6683 82.5967 35.8282 83.173 36.6015C83.9413 37.7614 84.9017 38.5991 86.0543 39.1791C86.1183 39.2435 86.1183 39.2435 86.1183 39.2435C87.2708 39.8235 88.7434 40.0812 90.4082 40.0812C92.0729 40.0812 93.4816 39.8235 94.6341 39.2435C94.6981 39.2435 94.6981 39.2435 94.6981 39.1791C95.8506 38.5991 96.8751 37.8258 97.5794 36.6015C98.0916 35.8282 98.4758 34.6683 98.7319 33.2507C98.988 31.7686 99.052 29.5132 99.052 26.4201C99.052 23.2626 98.988 21.0072 98.7319 19.5896C98.4758 18.1075 98.0916 16.9476 97.5794 16.1099ZM92.9053 28.6755C92.9053 31.5108 92.7772 33.2507 92.3931 33.9595C92.0089 34.6683 91.3686 34.9905 90.4722 34.9905C89.5118 34.9905 88.8715 34.6683 88.5514 33.9595C88.1672 33.1862 87.9751 31.4464 87.9751 28.6755V23.9714C87.9751 21.1361 88.1672 19.3318 88.5514 18.6874C88.8715 17.9786 89.5118 17.6564 90.4722 17.6564C91.4326 17.6564 92.0729 17.9786 92.4571 18.6874C92.7772 19.3318 92.9693 21.1361 92.9693 23.9714V28.6755H92.9053Z" fill="#2A333A"/>
<path d="M111.538 17.463C111.538 18.8162 111.538 20.4916 111.666 22.4248C111.73 24.358 111.922 26.6778 112.114 29.3842L107.056 13.3389H100.781V39.1145H106.223V34.926C106.223 32.9928 106.159 31.0596 106.095 29.062C105.967 27 105.775 24.9379 105.583 22.8114L110.513 39.1145H116.852V13.3389H111.538V17.463Z" fill="#2A333A"/>
<path d="M143.936 29.3199H137.981V30.4798C137.981 32.2841 137.853 33.5084 137.405 34.1528C137.021 34.7972 136.445 35.1194 135.484 35.1194C134.524 35.1194 133.819 34.6683 133.499 33.8306C133.115 32.8641 132.923 30.4154 132.923 26.4201V25.9046C132.923 22.1672 133.051 19.9118 133.499 19.0096C133.819 18.1719 134.524 17.6564 135.484 17.6564C136.381 17.6564 137.021 17.9786 137.405 18.7519C137.789 19.4607 137.981 20.6851 137.981 22.4249L143.872 22.4893V22.2316C143.872 19.0741 143.168 16.6898 141.759 15.1433C140.286 13.5323 138.237 12.759 135.42 12.759C133.755 12.759 132.347 13.0812 131.194 13.5967C130.042 14.1767 129.017 15.0788 128.377 16.1743C127.801 16.9476 127.481 18.1075 127.225 19.5251C126.968 21.0072 126.904 23.2626 126.904 26.4201C126.904 29.5777 126.968 31.833 127.225 33.3151C127.481 34.7328 127.801 35.8927 128.377 36.666C129.081 37.8259 130.042 38.6636 131.194 39.2435C131.258 39.308 131.258 39.308 131.258 39.308C132.411 39.8879 133.884 40.1457 135.484 40.1457C137.213 40.1457 138.622 39.8879 139.838 39.308C140.607 38.9213 141.311 38.4703 141.887 37.8259C143.296 36.2793 143.936 33.8951 143.936 30.7376C144 30.222 144 29.4488 143.936 29.3199Z" fill="#2A333A"/>
<path d="M125.176 13.3389H119.157V39.1145H125.176V13.3389Z" fill="#2A333A"/>
<path d="M45.2041 13.3389H37.9689L32.3344 39.1145H38.4811L39.1854 34.346H43.9235L44.6918 39.1145H50.6465L45.2041 13.3389ZM39.8257 29.7064L41.6185 18.3651L43.3472 29.7064H39.8257Z" fill="#2A333A"/>
<path d="M70.3673 16.6253C69.4069 15.0788 68.4464 13.7256 67.422 12.4368C66.1414 13.4034 64.8608 14.4988 63.5162 15.5943C64.4126 17.0764 65.3731 18.4296 66.4616 19.654C67.7421 18.7518 69.0227 17.7208 70.3673 16.6253Z" fill="#2A333A"/>
<path d="M13.446 14.6277C12.6776 14.1766 11.8453 13.8544 10.8208 13.6611C9.79635 13.4677 8.19564 13.3389 5.95465 13.3389H0V39.1145H6.0827V29.3842H8.25967C10.8848 29.3842 12.9337 28.7398 14.2783 27.3222C15.6229 25.9689 16.3273 23.9713 16.3273 21.3293C16.3273 19.7828 16.0711 18.3651 15.5589 17.2052C15.1107 16.0453 14.4064 15.2076 13.446 14.6277ZM9.54024 23.778C8.96398 24.358 8.13161 24.6157 6.91507 24.6157C6.72299 24.6157 6.21076 24.6157 6.14673 24.5513V18.0429H6.65896C8.00356 18.0429 8.96398 18.3007 9.47621 18.8162C10.0525 19.2673 10.3086 19.9761 10.3086 21.0716C10.3086 22.2315 10.0525 23.1981 9.54024 23.778Z" fill="#2A333A"/>
<path d="M23.6265 13.3389H17.6078V39.1145H30.9257V34.0883H23.6265V13.3389Z" fill="#2A333A"/>
<path d="M46.6768 44.2696L67.1659 31.704L76.578 43.6897L84.7097 42.3365L70.6874 24.5513L46.6768 44.2696Z" fill="#2A333A"/>
<path d="M109.617 49.6182V48.845H107.056V52.518H109.617V51.8092H107.888V50.9715H109.489V50.3271H107.888V49.6182H109.617Z" fill="#2A333A"/>
<path d="M102.702 49.6182V52.518H103.598V49.6182H104.687V48.845H101.613V49.6182H102.702Z" fill="#2A333A"/>
<path d="M95.9786 52.518H96.811L97.0671 51.8736H98.5398L98.2837 51.2292H97.2592L97.8355 49.5538L98.2837 51.2292L98.5398 51.8736L98.7319 52.518H99.6283L98.3477 48.845H97.2592L95.9786 52.518Z" fill="#2A333A"/>
<path d="M92.9053 52.518L94.1218 48.845H93.2254L92.329 51.8092L91.4327 48.845H90.5363L91.6888 52.518H92.9053Z" fill="#2A333A"/>
<path d="M88.2953 49.3605C88.2313 49.2316 88.0392 49.0383 87.7831 48.9738C87.5269 48.845 87.2708 48.7805 86.8867 48.7805C86.5665 48.7805 86.1823 48.845 85.9262 48.9738C85.7341 49.0383 85.5421 49.2316 85.478 49.3605C85.414 49.4893 85.35 49.7471 85.35 49.9404V51.4225C85.35 51.6803 85.414 51.8736 85.478 52.0025C85.5421 52.1313 85.7341 52.3247 85.9262 52.4535C86.1183 52.518 86.5025 52.5824 86.8867 52.5824C87.2708 52.5824 87.5269 52.518 87.7831 52.4535C88.0392 52.3247 88.2313 52.1958 88.2953 52.0025C88.4233 51.8736 88.4233 51.6803 88.4233 51.4225V49.9404C88.4233 49.7471 88.3593 49.4893 88.2953 49.3605ZM87.3989 51.7447C87.3349 51.8092 87.0787 51.8736 86.8226 51.8736C86.5665 51.8736 86.3744 51.8092 86.2464 51.7447C86.1823 51.6803 86.1183 51.487 86.1183 51.3581V50.0693C86.1183 49.876 86.1823 49.7471 86.2464 49.6827C86.3104 49.6182 86.5665 49.5538 86.8226 49.5538C87.0787 49.5538 87.2708 49.6182 87.3989 49.6827C87.4629 49.7471 87.5269 49.8115 87.5269 50.0693C87.5269 50.3271 87.5269 51.1648 87.5269 51.3581C87.5269 51.5514 87.5269 51.6803 87.3989 51.7447Z" fill="#2A333A"/>
<path d="M67.0378 46.9761H66.4615V53.9999H67.0378V46.9761Z" fill="#2A333A"/>
<path d="M70.6874 48.845H69.791V52.518H70.6874V48.845Z" fill="#2A333A"/>
<path d="M64.0925 49.6182V48.845H60.9551V49.6182H62.1076V52.518H62.94V49.6182H64.0925Z" fill="#2A333A"/>
<path d="M57.8177 48.845V51.487L56.345 48.845H55.3206V52.518H56.1529V49.9404L57.5616 52.518H58.65V48.845H57.8177Z" fill="#2A333A"/>
<path d="M80.2277 49.9404L81.6363 52.518H82.7248V48.845H81.8924V51.487L80.4838 48.845H79.4594V52.518H80.2277V49.9404Z" fill="#2A333A"/>
<path d="M75.6176 52.518H76.7061V48.845H75.9378V51.487L74.4651 48.845H73.4407V52.518H74.209V49.9404L75.6176 52.518Z" fill="#2A333A"/>
<path d="M39.9537 48.845H38.8652V52.518H39.6976V49.9404L41.1703 52.518H42.2587V48.845H41.3623V51.487L39.9537 48.845Z" fill="#2A333A"/>
<path d="M36.1761 48.845H35.2797V52.518H36.1761V48.845Z" fill="#2A333A"/>
<path d="M52.7595 52.518V51.8092H51.0948V50.9715H52.6314V50.3271H51.0948V49.6182H52.7595V48.845H50.1984V52.518H52.7595Z" fill="#2A333A"/>
<path d="M47.125 48.845L46.2286 51.8092L45.2682 48.845H44.4358L45.5883 52.518H46.8048L47.9574 48.845H47.125Z" fill="#2A333A"/>
</svg>
