<svg width="13" height="11" viewBox="0 0 13 11" fill="none" xmlns="http://www.w3.org/2000/svg">
<path d="M12.5541 0.883769C12.0486 1.16284 11.4861 1.36051 10.8858 1.47098C10.4055 1.00005 9.72298 0.709351 8.96464 0.709351C7.26469 0.709351 6.01975 2.16865 6.40524 3.68028C4.21868 3.58144 2.28491 2.61633 0.983093 1.15121C0.294265 2.23842 0.62288 3.66284 1.79831 4.38377C1.36858 4.37214 0.964134 4.26168 0.603921 4.08144C0.578643 5.20354 1.45074 6.25005 2.71464 6.4826C2.34179 6.57563 1.93734 6.59888 1.52657 6.5233C1.8615 7.48261 2.83471 8.18609 3.98486 8.20354C2.87895 9.00005 1.48865 9.3547 0.092041 9.20353C1.25483 9.88958 2.63881 10.2907 4.12389 10.2907C9.00256 10.2907 11.7642 6.50005 11.5999 3.09307C12.1118 2.75005 12.5604 2.32563 12.9143 1.84307C12.4404 2.03493 11.9348 2.16284 11.404 2.22098C11.9411 1.92447 12.3582 1.45354 12.5541 0.883769Z" fill="black"/>
</svg>
