<svg width="25" height="26" viewBox="0 0 25 26" fill="none" xmlns="http://www.w3.org/2000/svg">
<g opacity="0.5" clip-path="url(#clip0)">
<path d="M12.5 0.360352C5.60541 0.360352 0 5.96576 0 12.8604C0 19.7549 5.60541 25.3604 12.5 25.3604C19.3946 25.3604 25 19.7549 25 12.8604C25 5.96576 19.3946 0.360352 12.5 0.360352ZM12.5 24.4124C6.12993 24.4124 0.947927 19.2304 0.947927 12.8604C0.947927 6.49028 6.12993 1.30828 12.5 1.30828C18.8701 1.30828 24.0521 6.49028 24.0521 12.8604C24.0521 19.2304 18.8701 24.4124 12.5 24.4124Z" fill="#222221"/>
<path d="M18.5541 7.84266C18.0486 8.146 17.4861 8.36086 16.8858 8.48093C16.4055 7.96905 15.723 7.65308 14.9646 7.65308C13.2647 7.65308 12.0197 9.23927 12.4052 10.8823C10.2187 10.7749 8.28491 9.72588 6.98309 8.13336C6.29427 9.31511 6.62288 10.8634 7.79831 11.647C7.36858 11.6344 6.96413 11.5143 6.60392 11.3184C6.57864 12.5381 7.45074 13.6756 8.71464 13.9284C8.34179 14.0295 7.93734 14.0547 7.52657 13.9726C7.8615 15.0153 8.83471 15.78 9.98486 15.7989C8.87895 16.6647 7.48865 17.0502 6.09204 16.8859C7.25483 17.6316 8.6388 18.0676 10.1239 18.0676C15.0026 18.0676 17.7642 13.9473 17.5999 10.2441C18.1118 9.87123 18.5604 9.4099 18.9143 8.88538C18.4404 9.09393 17.9348 9.23296 17.404 9.29615C17.9411 8.97385 18.3582 8.46197 18.5541 7.84266Z" fill="#222221"/>
</g>
<defs>
<clipPath id="clip0">
<rect width="25" height="25" fill="white" transform="translate(0 0.360352)"/>
</clipPath>
</defs>
</svg>
