<svg width="25" height="26" viewBox="0 0 25 26" fill="none" xmlns="http://www.w3.org/2000/svg">
<g opacity="0.5" clip-path="url(#clip0)">
<path d="M24.0521 8.07648C23.4328 6.57875 22.5228 5.2011 21.341 4.01935C18.9775 1.66217 15.8367 0.360352 12.5 0.360352C9.1633 0.360352 6.0225 1.66217 3.659 4.01935C1.30182 6.38285 0 9.52365 0 12.8604C0 19.7549 5.60541 25.3604 12.5 25.3604C15.8367 25.3604 18.9775 24.0585 21.341 21.7014C23.6982 19.3379 25 16.1971 25 12.8604C25 11.192 24.6714 9.5742 24.0521 8.07648ZM20.6711 21.0315C18.4846 23.2117 15.5839 24.4124 12.5 24.4124C6.12993 24.4124 0.947927 19.2304 0.947927 12.8604C0.947927 9.77643 2.14863 6.87577 4.32887 4.68922C6.51542 2.50899 9.41608 1.30828 12.5 1.30828C15.5839 1.30828 18.4846 2.50899 20.6711 4.68922C22.8514 6.87577 24.0521 9.77643 24.0521 12.8604C24.0521 15.9443 22.8514 18.8449 20.6711 21.0315Z" fill="#222221"/>
<path d="M12.5 8.64136C12.5 8.64136 8.75668 8.64136 7.82085 8.89301C7.30575 9.03063 6.90075 9.43957 6.76313 9.9586C6.51147 10.8984 6.51147 12.8605 6.51147 12.8605C6.51147 12.8605 6.51147 14.8226 6.76313 15.7623C6.90075 16.2814 7.30575 16.6864 7.82085 16.8279C8.75668 17.0796 12.5 17.0796 12.5 17.0796C12.5 17.0796 16.2473 17.0796 17.1792 16.8279C17.6943 16.6864 18.1032 16.2814 18.2408 15.7623C18.4885 14.8226 18.4885 12.8605 18.4885 12.8605C18.4885 12.8605 18.4885 10.8984 18.2408 9.9586C18.1032 9.43957 17.6943 9.03063 17.1792 8.89301C16.2473 8.64136 12.5 8.64136 12.5 8.64136ZM11.2771 14.6417V11.0792L14.4071 12.8605L11.2771 14.6417Z" fill="#222221"/>
</g>
<defs>
<clipPath id="clip0">
<rect width="25" height="25" fill="white" transform="translate(0 0.360352)"/>
</clipPath>
</defs>
</svg>
